<svg width="100" height="231" viewBox="0 0 100 231" fill="none" xmlns="http://www.w3.org/2000/svg">
<g clip-path="url(#clip0_220_1097)">
<path d="M-5.79998 20.1C2.40002 33.5 3.60001 51.9 16.4 60.9C25.6 67.4 37.9 66.8 49 68.9C73.4 73.6 94.1 94.1 98.9 118.5C101.8 133.3 98 150.9 85 158.6C79.7 161.7 73.3 162.9 68.7 167C62.5 172.5 61.4 181.5 59 189.4C53.3 208.4 37.4 224.1 18.2 229C-0.999985 233.9 -22.9 227.1 -35.4 211.7C-44.9 200 -48.9 184.4 -59.5 173.7C-70 163.1 -85.2 159.1 -98.5 152.3C-111.8 145.6 -124.7 133.1 -123 118.3C-121.5 105.7 -110.3 97 -102.4 87.2C-84.6 65.4 -96 32.8 -77.9 13.7C-58.3 -6.70003 -20.5 -4.10003 -5.79998 20.1Z" fill="#FFB700"/>
</g>
<defs>
<clipPath id="clip0_220_1097">
<rect width="222.9" height="230.6" fill="white" transform="translate(-123)"/>
</clipPath>
</defs>
</svg>
