<svg width="302" height="116" viewBox="0 0 302 116" fill="none" xmlns="http://www.w3.org/2000/svg">
<path d="M50.6143 -75.5337C70.2774 -77.372 91.7093 -68.5421 108.952 -78.0077C121.381 -84.7939 127.512 -99.0088 136.026 -110.375C154.836 -135.313 189.431 -147.33 219.628 -139.243C237.938 -134.324 255.699 -120.294 257.195 -101.359C257.76 -93.6608 255.572 -85.773 257.654 -78.3117C260.43 -68.2697 269.979 -62.0466 277.567 -54.9651C295.857 -38.0152 304.777 -11.3791 299.68 13.0037C294.584 37.3866 274.787 58.341 250.487 63.9257C232.023 68.1722 212.201 64.0524 194.257 70.094C176.482 76.0781 163.554 91.0201 148.517 102.268C133.593 113.571 112.345 121.212 96.5811 111.102C83.1899 102.435 79.5695 84.9779 72.8811 70.637C58.128 38.4801 15.023 33.3031 3.48349 2.30207C-8.6931 -31.1115 15.1637 -72.3367 50.6143 -75.5337Z" fill="#FFB700"/>
</svg>
