<svg width="48" height="48" viewBox="0 0 48 48" fill="none" xmlns="http://www.w3.org/2000/svg">
<rect width="48" height="48" rx="18" fill="#EB0723"/>
<path d="M22.5 14H15.8889C15.3879 14 14.9075 14.2107 14.5532 14.5858C14.199 14.9609 14 15.4696 14 16V30C14 30.5304 14.199 31.0391 14.5532 31.4142C14.9075 31.7893 15.3879 32 15.8889 32H29.1111C29.6121 32 30.0925 31.7893 30.4468 31.4142C30.801 31.0391 31 30.5304 31 30V23" stroke="white" stroke-width="2" stroke-linecap="round" stroke-linejoin="round"/>
<path d="M30.4098 12.616C30.8042 12.2216 31.3391 12 31.8969 12C32.4547 12 32.9896 12.2216 33.384 12.616C33.7784 13.0104 34 13.5453 34 14.1031C34 14.6609 33.7784 15.1958 33.384 15.5902L23.9656 25.0086L20 26L20.9914 22.0344L30.4098 12.616Z" stroke="white" stroke-width="2" stroke-linecap="round" stroke-linejoin="round"/>
</svg>
