<svg width="48" height="48" viewBox="0 0 48 48" fill="none" xmlns="http://www.w3.org/2000/svg">
<rect width="48" height="48" rx="18" fill="#00990F"/>
<path d="M36 24.7573V25.9073C35.9985 28.6028 35.1256 31.2256 33.5117 33.3846C31.8977 35.5435 29.6291 37.1229 27.0442 37.8872C24.4593 38.6514 21.6966 38.5597 19.1681 37.6255C16.6396 36.6914 14.4808 34.9649 13.0137 32.7036C11.5466 30.4423 10.8497 27.7674 11.0271 25.0777C11.2045 22.388 12.2465 19.8277 13.9978 17.7786C15.7492 15.7296 18.116 14.3015 20.7452 13.7075C23.3745 13.1134 26.1253 13.3852 28.5875 14.4823" stroke="white" stroke-width="2" stroke-linecap="round" stroke-linejoin="round"/>
<path d="M36 16.4001L22.9231 29.4001L19 25.504" stroke="white" stroke-width="2" stroke-linecap="round" stroke-linejoin="round"/>
</svg>
