<svg width="190" height="126" viewBox="0 0 190 126" fill="none" xmlns="http://www.w3.org/2000/svg">
<path d="M31.7831 76.2198C46.8489 71.7674 64.9325 75.3706 76.9387 65.3361C85.5983 58.1319 88.2023 46.0957 93.1036 35.9175C103.959 13.5653 129.118 -1.12353 153.929 0.555207C168.975 1.58455 184.992 9.81027 189.065 24.3602C190.687 30.282 190.19 36.7745 192.96 42.2789C196.668 49.6911 205.076 53.083 212.086 57.4459C228.963 67.8692 240.013 87.2909 239.777 107.105C239.54 126.919 227.304 146.313 209.193 154.401C195.433 160.549 179.33 160.375 166.251 167.845C153.294 175.243 145.497 188.89 135.486 199.977C125.572 211.09 110.159 220.315 96.3035 214.842C84.521 210.132 79.0162 197.062 71.5948 186.895C55.1446 164.059 20.7049 166.633 6.94035 144.207C-7.69168 119.995 4.60309 84.1555 31.7831 76.2198Z" fill="#EB0723"/>
</svg>
