<svg width="111" height="122" viewBox="0 0 111 122" fill="none" xmlns="http://www.w3.org/2000/svg">
<g clip-path="url(#clip0_220_1038)">
<path d="M5.20002 -88.9C13.4 -75.5 14.6 -57.1 27.4 -48.1C36.6 -41.6 48.9 -42.2 60 -40.1C84.4 -35.4 105.1 -14.9 109.9 9.49997C112.8 24.3 109 41.9 96 49.6C90.7 52.7 84.3 53.9 79.7 58C73.5 63.5 72.4 72.5 70 80.4C64.3 99.4 48.4 115.1 29.2 120C10 124.9 -11.9 118.1 -24.4 102.7C-33.9 91 -37.9 75.4 -48.5 64.7C-59 54.1 -74.2 50.1 -87.5 43.3C-100.8 36.6 -113.7 24.1 -112 9.29997C-110.5 -3.30003 -99.3 -12 -91.4 -21.8C-73.6 -43.6 -85 -76.2 -66.9 -95.3C-47.3 -115.7 -9.49998 -113.1 5.20002 -88.9Z" fill="#EB0723"/>
</g>
<defs>
<clipPath id="clip0_220_1038">
<rect width="222.9" height="230.6" fill="white" transform="translate(-112 -109)"/>
</clipPath>
</defs>
</svg>
