<svg width="236" height="71" viewBox="0 0 236 71" fill="none" xmlns="http://www.w3.org/2000/svg">
<path d="M48.5305 32.0937C64.1866 33.3919 79.7427 43.2919 94.5655 38.2793C105.245 34.695 112.026 24.4156 120.276 16.6992C138.481 -0.213448 167.25 -4.80797 189.774 5.73107C203.429 12.1329 215.386 25.5949 213.921 40.6329C213.292 46.7406 210.48 52.6137 211.071 58.7472C211.847 66.9988 218.46 73.2024 223.417 79.8052C235.381 95.6273 238.658 117.731 231.271 136.118C223.884 154.505 205.462 168.16 185.652 169.15C170.6 169.905 155.649 163.918 140.754 166.151C125.999 168.363 113.793 178.265 100.45 184.981C87.1879 191.755 69.4819 194.781 58.5437 184.668C49.2625 176.015 48.8578 161.839 45.6163 149.676C38.5393 122.436 5.50028 112.379 0.779229 86.4921C-4.10482 58.627 20.3203 29.6613 48.5305 32.0937Z" fill="#00990F"/>
</svg>
