<svg width="19" height="22" viewBox="0 0 19 22" fill="none" xmlns="http://www.w3.org/2000/svg">
<g clip-path="url(#clip0_373_2171)">
<path d="M4.99789 15.4728C3.57298 15.4728 2.2114 15.4728 0.818153 15.4728C0.818153 15.6476 0.818153 15.8225 0.818153 15.9973C0.818153 17.6582 0.818153 19.3483 0.818153 21.0092C0.818153 21.1841 0.849818 21.388 0.754824 21.5046C0.596501 21.7086 0.343184 21.9417 0.121531 21.9417C-0.100121 21.9417 -0.353438 21.7086 -0.511762 21.5046C-0.606756 21.388 -0.575091 21.1549 -0.575091 20.951C-0.575091 18.445 -0.575091 15.939 -0.575091 13.4331C-0.575091 13.2582 -0.575091 13.0834 -0.575091 12.8503C-0.828408 12.8503 -1.0184 12.8503 -1.24005 12.8503C-1.71502 12.8503 -2 12.588 -2 12.2384C-2 11.8887 -1.71502 11.5973 -1.27171 11.5973C-0.575091 11.5973 0.121531 11.5973 0.913147 11.5973C0.533172 10.5483 1.19813 9.81983 1.73643 9.06221C2.46472 8.10063 3.16134 7.1099 3.85796 6.11917C4.33293 5.44897 4.99789 5.12844 5.85283 5.12844C6.48612 5.12844 7.15108 5.12844 7.87937 5.12844C6.10615 4.31254 5.44119 3.29268 5.7895 1.95228C6.07448 0.786717 7.21441 -0.0291769 8.51266 -0.0291769C9.81091 -0.0291769 10.9192 0.786717 11.2358 1.95228C11.5841 3.29268 10.9508 4.31254 9.24095 5.0993C9.96924 5.21586 10.5709 5.0993 11.1408 4.54566C12.5024 3.20526 13.9273 1.92314 15.3522 0.641022C16.2388 -0.174872 17.4104 -0.262289 18.297 0.437048C19.152 1.10725 19.3103 2.27281 18.6137 3.0887C18.487 3.2344 18.3287 3.3801 18.1704 3.52579C16.2705 5.27414 14.339 7.05162 12.4391 8.79996C12.1858 9.03308 12.0591 9.29533 12.0908 9.61586C12.1224 10.2278 12.0908 10.8688 12.0908 11.539C12.3124 11.539 12.4707 11.539 12.6291 11.539C14.434 11.539 16.2705 11.539 18.0754 11.539C18.2337 11.539 18.392 11.539 18.5504 11.5682C18.8987 11.6556 19.0887 11.8887 19.057 12.2092C19.057 12.5589 18.8353 12.7629 18.4554 12.8212C18.202 12.8503 17.9804 12.8212 17.6637 12.8212C17.6637 13.0543 17.6637 13.2 17.6637 13.3748C17.6637 15.8808 17.6637 18.3867 17.6637 20.8927C17.6637 21.0675 17.6637 21.2423 17.6321 21.4172C17.5688 21.7669 17.3154 21.9417 16.9355 21.9417C16.5871 21.9417 16.3655 21.7377 16.2705 21.4172C16.2388 21.2715 16.2388 21.0967 16.2388 20.951C16.2388 19.29 16.2388 17.6291 16.2388 15.9682C16.2388 15.7933 16.2388 15.6185 16.2388 15.4437C14.8456 15.4437 13.484 15.4437 12.0591 15.4437C12.0591 15.6185 12.0274 15.7642 12.0274 15.9099C12.0274 17.2212 12.0274 18.5324 12.0274 19.8728C12.0274 20.9218 11.4575 21.6212 10.4759 21.8834C9.87424 22.0291 9.33594 21.9417 8.82931 21.6503C8.60766 21.5337 8.481 21.5046 8.25935 21.6212C6.83444 22.4079 5.15621 21.6212 5.06122 20.1059C4.99789 18.7364 5.02955 17.396 5.02955 16.0265C4.99789 15.8808 4.99789 15.7059 4.99789 15.4728ZM10.6025 11.5682C10.6025 10.7523 10.6342 9.99467 10.6025 9.20791C10.6025 8.79996 10.7292 8.50857 11.0458 8.21718C13.0724 6.38142 15.0989 4.48738 17.1254 2.62248C17.2521 2.50592 17.3788 2.38937 17.4738 2.27281C17.6637 2.01056 17.6321 1.71917 17.3788 1.48606C17.1254 1.25294 16.8405 1.2238 16.5238 1.39864C16.3972 1.48606 16.2705 1.60261 16.1438 1.71917C14.5606 3.17612 12.9774 4.63307 11.3941 6.09003C11.1092 6.35228 10.8242 6.46884 10.4442 6.4397C8.9243 6.4397 7.4044 6.4397 5.8845 6.4397C5.53619 6.4397 5.2512 6.52711 5.06122 6.81851C4.17461 8.07149 3.25633 9.29533 2.36972 10.5192C1.98975 11.0437 2.30639 11.5682 3.00301 11.5682C4.33293 11.5682 5.66284 11.5682 7.02442 11.5682C7.49939 11.5682 7.78438 11.3059 7.81604 10.9271C7.81604 10.5483 7.53106 10.2861 7.05609 10.2861C6.61278 10.2861 6.16948 10.2861 5.75784 10.2861C5.31453 10.2569 5.02955 9.99467 5.02955 9.645C5.02955 9.29533 5.31453 9.03308 5.75784 9.00394C6.26447 9.00394 6.73944 8.9748 7.24608 9.00394C8.44933 9.06221 9.30428 9.99467 9.20929 11.1019C9.20929 11.2476 9.17762 11.3933 9.14596 11.539C9.58926 11.5682 10.0642 11.5682 10.6025 11.5682ZM0.818153 14.1616C5.94783 14.1616 11.0458 14.1616 16.1438 14.1616C16.1438 13.7245 16.1438 13.3457 16.1438 12.9377C11.0142 12.9377 5.91616 12.9377 0.818153 12.9377C0.818153 13.3457 0.818153 13.7245 0.818153 14.1616ZM6.39113 15.502C6.39113 17.0172 6.39113 18.5033 6.39113 19.9602C6.39113 20.4265 6.67611 20.7178 7.08775 20.6887C7.49939 20.6887 7.75271 20.3973 7.75271 19.9311C7.75271 18.8238 7.75271 17.6874 7.75271 16.5801C7.75271 16.2304 7.75271 15.8808 7.75271 15.502C7.30941 15.502 6.89777 15.502 6.39113 15.502ZM9.20929 15.4728C9.20929 16.0556 9.20929 16.6092 9.20929 17.1629C9.20929 18.0371 9.20929 18.9404 9.20929 19.8145C9.20929 20.3682 9.4626 20.6596 9.90591 20.6596C10.3492 20.6596 10.6025 20.3682 10.6025 19.7854V19.7563C10.6025 18.4741 10.6025 17.192 10.6025 15.8808C10.6025 15.7351 10.5709 15.6185 10.5709 15.4437C10.0959 15.4728 9.68426 15.4728 9.20929 15.4728ZM8.481 1.28208C7.72105 1.28208 7.08775 1.86486 7.08775 2.59334C7.08775 3.29268 7.72105 3.87546 8.481 3.87546C9.24095 3.87546 9.87424 3.29268 9.87424 2.59334C9.87424 1.86486 9.24095 1.28208 8.481 1.28208Z" fill="white"/>
</g>
<defs>
<clipPath id="clip0_373_2171">
<rect width="19" height="22" fill="white"/>
</clipPath>
</defs>
</svg>
