<svg width="19" height="23" viewBox="0 0 19 23" fill="none" xmlns="http://www.w3.org/2000/svg">
<path d="M15.3015 19.4922C15.3015 20.1541 15.3015 20.9814 15.3015 21.908C15.5103 21.9411 15.7192 21.9411 15.928 21.9411C16.5285 21.9411 17.1289 21.908 17.7293 21.9742C17.886 22.0073 18.0165 22.3051 18.1731 22.4706C18.0426 22.6361 17.9121 22.8346 17.7293 22.9339C17.6249 23.0001 17.4683 22.967 17.3377 22.967C11.8556 22.967 6.37341 22.967 0.891247 22.967C0.865141 22.967 0.81293 22.967 0.786824 22.967C0.473558 22.9339 0.0558695 23.0663 0.0558695 22.4375C0.0558695 21.8749 0.447453 21.9411 0.760719 21.9411C1.46557 21.9411 2.14431 21.9411 2.92748 21.9411C2.92748 21.0807 2.95358 20.2864 2.90137 19.4922C2.90137 19.3598 2.64032 19.1943 2.48368 19.1282C1.54389 18.7641 0.786824 18.1023 0.290819 16.9771C-0.0485526 16.2159 -0.100764 15.4217 0.186397 14.6605C0.551875 13.767 0.525769 12.9066 0.264714 11.98C-0.0485527 10.8217 0.081975 10.3915 0.786824 9.59723C1.07399 9.26629 1.25672 8.83608 1.51778 8.50514C2.01378 7.90946 2.5359 7.34687 3.08411 6.81737C3.21464 6.685 3.55401 6.78428 3.71064 6.91665C4.15444 7.28068 4.57213 7.7109 5.06813 8.14111C4.96371 7.7109 4.88539 7.31377 4.78097 6.94975C4.49381 6.02313 4.62434 5.19579 5.19866 4.53392C5.8513 3.80586 6.37341 2.97852 6.86941 2.0519C7.33931 1.22457 8.14859 0.69507 8.82733 0.0662929C8.95786 -0.0329877 9.24502 0.000105829 9.42776 0.0993864C10.3676 0.728163 11.229 1.48931 11.6989 2.81306C11.8556 3.24327 12.1688 3.6073 12.456 3.87205C13.448 4.79867 13.8657 5.92385 13.2653 7.41305C13.187 7.61162 13.187 7.84327 13.1347 8.07493C13.6046 7.64471 13.9962 7.1814 14.4661 6.88356C14.7011 6.71809 15.1188 6.71809 15.3015 6.88356C15.8236 7.41305 16.2935 8.07493 16.7634 8.67061C16.9984 8.96845 17.2072 9.33248 17.4683 9.63032C18.0165 10.226 18.2514 10.921 17.9382 11.8476C17.6249 12.7742 17.6249 13.7008 17.9904 14.6605C18.4342 15.9181 18.0687 17.0433 17.3116 17.8706C16.7373 18.5325 16.0064 18.9296 15.3015 19.4922ZM9.50607 16.58C10.9158 16.1828 12.0122 15.4217 12.6387 13.8332C12.8998 13.1713 13.0042 12.4764 12.7171 11.7814C12.0122 10.1929 12.0644 8.57133 12.5604 6.88356C12.8737 5.85766 12.7693 5.69219 12.1427 4.89795C11.6467 4.23608 11.2551 3.44183 10.7591 2.77996C10.2892 2.18428 9.76713 1.65478 9.24502 1.12529C9.19281 1.0591 9.01007 1.0591 8.93175 1.12529C8.40964 1.68788 7.86142 2.21737 7.39152 2.84615C6.94773 3.44183 6.63446 4.16989 6.16456 4.73248C5.3814 5.6591 5.32919 5.72529 5.69466 7.01593C6.13846 8.60442 6.16456 10.1598 5.51193 11.6821C5.25087 12.3109 5.30308 12.9728 5.51193 13.6015C6.11235 15.3224 7.23489 16.1167 8.6707 16.5469C8.72291 15.1569 9.06228 13.7339 7.62647 13.2044C7.60037 13.2044 7.54816 13.1713 7.52205 13.1382C7.46984 12.9397 7.33931 12.6087 7.39152 12.5095C7.49595 12.344 7.757 12.2447 7.91364 12.2778C8.17469 12.344 8.38354 12.5426 8.72291 12.7742C8.72291 12.1785 8.6707 11.6821 8.72291 11.1857C8.85344 10.0605 8.64459 9.16701 7.67869 8.83608C7.62647 8.80298 7.54816 8.76989 7.52205 8.7368C7.46984 8.50514 7.36542 8.24039 7.41763 8.04183C7.44374 7.90946 7.757 7.84327 7.88753 7.87636C8.14859 7.94255 8.35743 8.14111 8.6968 8.37277C8.6968 7.74399 8.6968 7.24759 8.6968 6.75118C8.6968 6.38716 8.6968 5.95694 9.08838 5.92385C9.47997 5.92385 9.50607 6.32097 9.50607 6.71809C9.50607 7.04903 9.50607 7.41305 9.50607 7.74399C9.50607 8.67061 9.50607 9.56413 9.50607 10.59C9.74102 10.4577 9.87155 10.3584 10.0021 10.2922C10.2631 10.1267 10.5764 9.79579 10.8114 10.2922C11.0463 10.8217 10.6547 10.9872 10.3676 11.1857C10.1587 11.3181 9.94987 11.4505 9.76713 11.6159C9.66271 11.7152 9.53218 11.9138 9.50607 12.0461C9.50607 13.5354 9.50607 15.0246 9.50607 16.58ZM3.73675 18.1685C4.57213 17.9368 5.14645 17.4404 5.56414 16.6461C5.77298 16.2159 5.77298 15.9181 5.48582 15.4879C4.54602 14.0979 4.15444 12.5756 4.9115 10.8548C4.98982 10.6562 5.09424 10.2922 5.04203 10.1929C4.57213 9.43176 4.07612 8.7037 3.58012 7.97565C3.5018 7.87636 3.21464 7.87636 3.13632 7.94255C2.82306 8.24039 2.5359 8.60442 2.24873 8.96845C1.93547 9.39867 1.67441 9.92816 1.33504 10.3584C1.02177 10.7555 0.891247 11.0864 1.07399 11.649C1.43946 12.7742 1.43946 13.8994 0.995669 15.0577C0.865141 15.3886 0.839036 15.9181 0.969563 16.249C1.33504 17.2749 1.98768 17.9368 2.95358 18.1685C2.95358 17.8706 2.95358 17.6059 2.95358 17.3742C2.95358 15.5541 2.95358 13.767 2.95358 11.9469C2.95358 11.5167 2.77085 10.8548 3.34517 10.8548C3.94559 10.8548 3.76286 11.5497 3.76286 11.98C3.73675 13.9987 3.73675 16.0505 3.73675 18.1685ZM14.3095 18.2677C14.3617 18.2015 14.4139 18.1354 14.4661 18.0692C14.4661 15.9512 14.44 13.8332 14.4922 11.6821C14.4922 11.3843 14.7011 10.921 14.8577 10.8879C15.3015 10.8217 15.2754 11.3181 15.2754 11.7152C15.2754 13.6015 15.2754 15.4879 15.2754 17.3742C15.2754 17.639 15.2754 17.9037 15.2754 18.2346C16.2413 17.9368 16.8939 17.3411 17.2333 16.3483C17.3377 16.0174 17.3638 15.4879 17.2333 15.1569C16.7634 13.9656 16.7895 12.8073 17.1811 11.6159C17.3377 11.1526 17.2333 10.8548 16.9462 10.5238C16.6068 10.1267 16.3457 9.66341 16.0325 9.2332C15.7714 8.86917 15.4842 8.47205 15.2232 8.10802C14.9882 7.81018 14.7272 7.84327 14.5183 8.14111C14.1529 8.67061 13.8396 9.26629 13.4741 9.7627C13.1347 10.1929 13.1086 10.5569 13.3175 11.0533C14.0223 12.6418 13.683 14.0649 12.8737 15.3886C12.3777 16.2159 12.3516 16.5138 12.952 17.2087C13.3436 17.5728 13.8396 17.8706 14.3095 18.2677ZM6.45173 16.7123C5.92962 18.1354 4.96371 18.8965 3.76286 19.2605C3.76286 20.1541 3.76286 21.0145 3.76286 21.8749C5.4075 21.8749 7.02605 21.8749 8.6707 21.8749C8.6707 20.5843 8.6707 19.3267 8.6707 18.0692C8.6707 17.9037 8.51406 17.639 8.38354 17.5728C7.757 17.2749 7.13047 17.0102 6.45173 16.7123ZM11.725 16.7123C11.0463 17.0102 10.4198 17.2749 9.81934 17.5728C9.68881 17.639 9.53218 17.8375 9.53218 17.9699C9.50607 19.2605 9.50607 20.5512 9.50607 21.8749C11.1768 21.8749 12.7693 21.8749 14.44 21.8749C14.44 21.0807 14.4661 20.3195 14.4139 19.5915C14.4139 19.426 14.2573 19.1944 14.1268 19.1613C13.0564 18.7972 12.221 18.003 11.725 16.7123Z" fill="white"/>
</svg>
