<svg width="19" height="21" viewBox="0 0 19 21" fill="none" xmlns="http://www.w3.org/2000/svg">
<path d="M14.89 8.20836C15.4044 8.23426 15.8646 8.23426 16.3249 8.31194C17.7597 8.59677 18.7885 9.762 18.8156 11.1603C18.8156 11.5746 18.8426 12.0148 18.7885 12.4291C18.5719 13.905 17.2724 14.9926 15.7022 14.9667C14.9712 14.9408 14.6193 15.1479 14.3215 15.7953C13.5364 17.4266 12.1557 18.4624 10.2877 18.6177C8.41963 18.7731 6.49747 18.799 4.62944 18.6177C2.03046 18.3588 0.0812183 16.1319 0.0541455 13.6202C0 11.6264 0 9.63253 0 7.6387C0 7.01724 0.297801 6.7583 0.920474 6.7583C5.25212 6.7583 9.58376 6.7583 13.9425 6.7583C14.6193 6.7583 14.863 7.04313 14.89 7.69048C14.89 7.84585 14.89 8.0271 14.89 8.20836ZM1.59729 8.28604C1.59729 8.41551 1.57022 8.51909 1.57022 8.64856C1.57022 10.2799 1.57022 11.8853 1.57022 13.5166C1.59729 15.614 3.30288 17.2454 5.49577 17.2712C6.79527 17.2712 8.06769 17.2712 9.36718 17.2712C11.6142 17.2454 13.3198 15.614 13.3198 13.4648C13.3198 12.2996 13.3198 11.1603 13.3198 9.99505C13.3198 9.42538 13.3198 8.8816 13.3198 8.31194C9.39425 8.28604 5.52285 8.28604 1.59729 8.28604ZM14.9171 13.4648C15.8105 13.5425 16.6498 13.5166 17.0288 12.688C17.3807 11.9112 17.4349 11.0567 16.8934 10.3317C16.4061 9.65842 15.6751 9.68432 14.9171 9.78789C14.9171 11.0308 14.9171 12.2219 14.9171 13.4648Z" fill="white"/>
<path d="M7.49916 19.4981C9.58376 19.4981 11.6684 19.4981 13.753 19.4981C13.8883 19.4981 14.0508 19.4722 14.1861 19.4981C14.6193 19.5758 14.863 19.8088 14.863 20.2231C14.863 20.6374 14.6193 20.8964 14.1861 20.974C14.0508 20.9999 13.8883 20.9999 13.753 20.9999C9.52962 20.9999 5.30626 20.9999 1.08291 20.9999C1.00169 20.9999 0.920474 20.9999 0.839256 20.9999C0.351946 20.974 0 20.6633 0 20.2231C0 19.8088 0.351946 19.4981 0.839256 19.4981C0.947547 19.4981 1.05584 19.4981 1.1912 19.4981C3.30288 19.4981 5.38748 19.4981 7.49916 19.4981Z" fill="white"/>
<path d="M3.0322 0C3.65488 0.025894 4.0339 0.466091 3.89853 0.932182C3.87146 1.06165 3.81731 1.16523 3.7361 1.2688C3.38415 1.76079 3.4383 2.22688 3.84439 2.66708C4.79193 3.75462 4.30462 4.86806 3.7361 5.67078C3.51951 5.9815 3.14049 6.05919 2.78855 5.87793C2.40953 5.69667 2.27417 5.36005 2.40953 4.97164C2.4366 4.89396 2.49075 4.79038 2.54489 4.7127C2.89684 4.19482 2.86977 3.75462 2.40953 3.23674C1.65149 2.45993 1.78686 0.98397 2.59904 0.233046C2.7344 0.103576 2.95099 0.0517879 3.0322 0Z" fill="white"/>
<path d="M7.1739 6.00759C6.55123 6.00759 6.14513 5.5415 6.30757 5.04951C6.36172 4.92004 6.41586 4.79058 6.49708 4.66111C6.82195 4.19501 6.76781 3.8066 6.36172 3.36641C5.60368 2.51191 5.6849 1.11363 6.49708 0.259132C6.76781 -0.0257016 7.11975 -0.0774895 7.4717 0.129662C7.82365 0.336814 8.01315 0.699329 7.79657 1.01006C7.25512 1.78688 7.49877 2.38244 8.01315 3.08157C8.55461 3.78071 8.28388 5.20488 7.60706 5.80044C7.44463 5.90402 7.25512 5.9558 7.1739 6.00759Z" fill="white"/>
<path d="M11.073 6.00743C10.4503 6.00743 10.0713 5.51545 10.2337 5.02346C10.2878 4.8681 10.3691 4.73863 10.4503 4.60916C10.721 4.16896 10.6939 3.80645 10.3149 3.41804C9.50274 2.53764 9.55688 1.19116 10.3691 0.284867C10.6398 3.38466e-05 10.9647 -0.077648 11.3437 0.10361C11.6956 0.284867 11.9122 0.647383 11.6956 0.958111C11.1271 1.78672 11.4249 2.40817 11.9393 3.10731C12.4537 3.80645 12.1559 5.23061 11.479 5.80028C11.3437 5.90386 11.1542 5.95565 11.073 6.00743Z" fill="white"/>
</svg>
