<svg width="100vw" height="100%" viewBox="0 0 1440 1422" fill="none" xmlns="http://www.w3.org/2000/svg" preserveAspectRatio="none">
<path d="M302.328 1411.68C363.745 1422.27 426.61 1424.21 488.631 1419.04C563.321 1411.42 636.08 1390.49 709.805 1375.89C800.061 1358.45 893.333 1351.74 984.675 1364.53C1052.49 1374.34 1119.33 1391.4 1187.03 1401.86C1272.46 1414.65 1446.69 1388.68 1446.69 1388.68C1446.69 1388.68 1447.3 835.887 1446.81 710.962C1447.3 586.036 1446.69 33.239 1446.69 33.239C1446.69 33.239 1272.46 7.14281 1187.15 20.0616C1119.33 30.526 1052.61 47.5789 984.796 57.3972C893.454 70.1868 800.182 63.4689 709.805 46.0285C636.201 31.3011 563.321 10.3725 488.631 2.87956C426.731 -2.28792 363.745 -0.349939 302.328 10.2434C200.368 28.8466 99.8558 67.6029 -4.99999 55.2008C-4.99999 97.9622 -5.00004 544.05 -5.00005 689.645C-5.00005 695.846 -5.00005 710.832 -5.00005 732.148C-5.00007 877.873 -5.00011 1323.83 -5.00012 1366.59C99.8557 1354.19 200.368 1393.08 302.328 1411.68Z" fill="#D3E5FE"/>
</svg>
