<svg width="44" height="39" viewBox="0 0 44 39" fill="none" xmlns="http://www.w3.org/2000/svg">
<path d="M31.4555 27.4651C32.5914 27.1237 33.6562 26.7141 34.7921 26.3728C36.2829 25.8949 37.7737 25.417 39.2645 24.8709C39.9744 24.5978 40.6843 24.5296 41.4652 24.7344C42.8141 25.0757 43.808 26.168 43.8789 27.4651C44.0209 28.8304 43.24 30.0592 41.8912 30.6054C39.3355 31.6976 36.8508 32.7216 34.2952 33.8139C31.4555 35.0427 28.6869 36.2715 25.8472 37.4321C22.2977 38.8657 18.8901 38.6609 15.6245 36.7494C14.2757 35.9302 12.8559 35.1793 11.507 34.3601C10.6551 33.8822 9.80324 33.6774 8.80936 33.5408C8.73837 33.5408 8.5254 33.6091 8.5254 33.6774C7.95747 34.6331 7.10558 35.0427 6.04071 35.0427C4.47891 35.0427 2.9171 35.0427 1.3553 35.0427C0.645391 35.0427 0.290436 34.7697 0.290436 34.087C0.290436 29.3083 0.290436 24.5296 0.290436 19.6826C0.290436 18.9999 0.5744 18.6586 1.28431 18.6586C2.9171 18.6586 4.47891 18.6586 6.1117 18.6586C7.24756 18.6586 8.02846 19.1364 8.5254 20.0922C8.66738 20.3653 8.80936 20.3653 8.95134 20.3653C10.7261 20.3653 12.5719 20.3653 14.3467 20.3653C15.5535 20.3653 16.6894 20.6383 17.6832 21.1845C19.0321 21.9354 20.3099 22.6181 21.6587 23.369C22.0137 23.5738 22.3687 23.6421 22.7946 23.6421C24.4274 23.6421 25.9892 23.6421 27.622 23.6421C30.1067 23.5738 31.5975 25.5536 31.3135 27.3285C31.3845 27.3285 31.3845 27.3968 31.4555 27.4651ZM8.80936 31.9024C8.95134 31.9024 9.09333 31.9707 9.23531 31.9707C10.5131 32.1755 11.649 32.5851 12.7849 33.1995C13.9917 33.9504 15.2695 34.6331 16.5474 35.3841C19.316 36.9542 22.2267 37.159 25.1373 35.9302C29.3968 34.1553 33.5852 32.3803 37.7737 30.6054C38.9096 30.1275 40.0454 29.6496 41.1103 29.1717C41.8202 28.8987 42.1752 28.216 42.0332 27.5333C41.8912 26.7824 41.3233 26.3728 40.5424 26.3045C40.2584 26.3045 39.9034 26.3728 39.6195 26.441C37.9157 26.9872 36.2119 27.5333 34.5791 28.0795C32.9463 28.6256 31.3845 29.1035 29.7517 29.7179C28.8288 30.0592 27.906 30.1957 26.9121 30.1957C24.4984 30.1957 22.0137 30.1957 19.6 30.1957C19.458 30.1957 19.316 30.1957 19.245 30.1957C18.8191 30.1275 18.5351 29.8544 18.4641 29.4448C18.3932 29.0352 18.6771 28.6939 19.1031 28.5573C19.245 28.4891 19.458 28.4891 19.6 28.4891C22.3687 28.4891 25.1373 28.4891 27.906 28.4891C28.6159 28.4891 29.1128 28.216 29.4678 27.6016C29.7517 26.9872 29.6807 26.3728 29.2548 25.8949C28.8998 25.417 28.4029 25.2805 27.764 25.2805C26.0602 25.2805 24.4274 25.2805 22.7236 25.2805C22.0847 25.2805 21.4458 25.144 20.8778 24.8026C19.529 24.0517 18.1802 23.369 16.9023 22.6181C16.1214 22.2085 15.2695 22.0037 14.3467 22.0037C12.6429 22.0037 10.9391 22.0037 9.16432 22.0037C9.02234 22.0037 8.88035 22.0037 8.73837 22.0037C8.80936 25.2805 8.80936 28.5573 8.80936 31.9024ZM1.99422 20.3653C1.99422 24.7344 1.99422 29.0352 1.99422 33.4043C2.1362 33.4043 2.27819 33.4043 2.42017 33.4043C3.62702 33.4043 4.76287 33.4043 5.96972 33.4043C6.82161 33.4043 7.10558 33.1312 7.10558 32.312C7.10558 28.6939 7.10558 25.0757 7.10558 21.4575C7.10558 21.3893 7.10558 21.2527 7.10558 21.1845C7.10558 20.7066 6.75062 20.4335 6.32468 20.3653C4.90485 20.3653 3.48503 20.3653 1.99422 20.3653Z" fill="#18212D"/>
<path d="M25.4919 3.91291C25.9889 3.36677 26.3438 2.82063 26.8407 2.34276C29.9644 -0.660999 35.2177 0.431278 36.8505 4.52732C37.9153 7.05321 37.4184 9.44256 35.8566 11.6954C34.6498 13.4021 33.017 14.7674 31.4552 16.1328C29.7514 17.5664 28.0476 19 26.3438 20.3653C25.8469 20.7749 25.4919 20.7749 24.995 20.4336C22.7943 18.5904 20.5935 16.8154 18.3928 14.9722C17.4699 14.2213 16.689 13.2655 15.8371 12.4463C15.7661 12.3098 15.6242 12.2415 15.5532 12.105C15.2692 11.6954 15.3402 11.2175 15.6951 11.0127C16.0501 10.7396 16.547 10.7396 16.831 11.1492C19.3157 14.0847 22.5103 16.201 25.4209 18.6587C25.5629 18.7952 25.7049 18.7952 25.8469 18.6587C28.2606 16.6106 30.6743 14.5626 33.017 12.5146C34.0818 11.5589 34.9337 10.4666 35.4307 9.10123C35.9986 7.46281 35.8566 5.8244 34.8627 4.32251C33.1589 1.79662 29.6094 1.59182 27.6926 3.98118C27.1957 4.66385 26.8407 5.41479 26.4148 6.16573C26.2018 6.6436 25.9179 6.91667 25.4919 6.84841C25.066 6.84841 24.853 6.6436 24.64 6.09747C24.2851 5.00519 23.7171 4.11771 22.8652 3.36677C20.8775 1.66009 17.8959 1.93316 16.4051 4.04945C16.0501 4.45905 15.8371 5.00519 15.6242 5.48306C15.4112 6.0292 14.9852 6.30227 14.4883 6.09747C13.9914 5.96093 13.8494 5.48306 13.9914 4.93692C15.0562 1.59182 18.6768 -0.251396 21.9424 0.909149C23.3622 1.38702 24.427 2.34276 25.2789 3.57157C25.3499 3.70811 25.4209 3.77638 25.4919 3.91291Z" fill="#18212D"/>
<path d="M14.63 9.44249C14.1331 9.44249 13.7781 9.03289 13.7781 8.62328C13.7781 8.14541 14.2041 7.80408 14.63 7.80408C15.1269 7.80408 15.4819 8.21368 15.4819 8.62328C15.4819 9.03289 15.1269 9.44249 14.63 9.44249Z" fill="#18212D"/>
<path d="M4.54931 23.6421C4.05237 23.6421 3.69742 23.3007 3.69742 22.8229C3.69742 22.4133 4.05237 22.0037 4.54931 22.0037C4.97526 22.0037 5.4012 22.345 5.4012 22.8229C5.4012 23.2325 5.04625 23.6421 4.54931 23.6421Z" fill="#18212D"/>
</svg>
