<svg width="67" height="67" viewBox="0 0 67 67" fill="none" xmlns="http://www.w3.org/2000/svg">
<path d="M33.5 67C52.0015 67 67 52.0015 67 33.5C67 14.9985 52.0015 0 33.5 0C14.9985 0 0 14.9985 0 33.5C0 52.0015 14.9985 67 33.5 67Z" fill="#E1F0FF"/>
<path d="M42.4555 43.4651C43.5914 43.1237 44.6562 42.7141 45.7921 42.3728C47.2829 41.8949 48.7737 41.417 50.2645 40.8709C50.9744 40.5978 51.6843 40.5296 52.4652 40.7344C53.8141 41.0757 54.808 42.168 54.8789 43.4651C55.0209 44.8304 54.24 46.0592 52.8912 46.6054C50.3355 47.6976 47.8508 48.7216 45.2952 49.8139C42.4555 51.0427 39.6869 52.2715 36.8472 53.4321C33.2977 54.8657 29.8901 54.6609 26.6245 52.7494C25.2757 51.9302 23.8559 51.1793 22.507 50.3601C21.6551 49.8822 20.8032 49.6774 19.8094 49.5408C19.7384 49.5408 19.5254 49.6091 19.5254 49.6774C18.9575 50.6331 18.1056 51.0427 17.0407 51.0427C15.4789 51.0427 13.9171 51.0427 12.3553 51.0427C11.6454 51.0427 11.2904 50.7697 11.2904 50.087C11.2904 45.3083 11.2904 40.5296 11.2904 35.6826C11.2904 34.9999 11.5744 34.6586 12.2843 34.6586C13.9171 34.6586 15.4789 34.6586 17.1117 34.6586C18.2476 34.6586 19.0285 35.1364 19.5254 36.0922C19.6674 36.3653 19.8094 36.3653 19.9513 36.3653C21.7261 36.3653 23.5719 36.3653 25.3467 36.3653C26.5535 36.3653 27.6894 36.6383 28.6832 37.1845C30.0321 37.9354 31.3099 38.6181 32.6587 39.369C33.0137 39.5738 33.3687 39.6421 33.7946 39.6421C35.4274 39.6421 36.9892 39.6421 38.622 39.6421C41.1067 39.5738 42.5975 41.5536 42.3135 43.3285C42.3845 43.3285 42.3845 43.3968 42.4555 43.4651ZM19.8094 47.9024C19.9513 47.9024 20.0933 47.9707 20.2353 47.9707C21.5131 48.1755 22.649 48.5851 23.7849 49.1995C24.9917 49.9504 26.2695 50.6331 27.5474 51.3841C30.316 52.9542 33.2267 53.159 36.1373 51.9302C40.3968 50.1553 44.5852 48.3803 48.7737 46.6054C49.9096 46.1275 51.0454 45.6496 52.1103 45.1717C52.8202 44.8987 53.1752 44.216 53.0332 43.5333C52.8912 42.7824 52.3233 42.3728 51.5424 42.3045C51.2584 42.3045 50.9034 42.3728 50.6195 42.441C48.9157 42.9872 47.2119 43.5333 45.5791 44.0795C43.9463 44.6256 42.3845 45.1035 40.7517 45.7179C39.8288 46.0592 38.906 46.1957 37.9121 46.1957C35.4984 46.1957 33.0137 46.1957 30.6 46.1957C30.458 46.1957 30.316 46.1957 30.245 46.1957C29.8191 46.1275 29.5351 45.8544 29.4641 45.4448C29.3932 45.0352 29.6771 44.6939 30.1031 44.5573C30.245 44.4891 30.458 44.4891 30.6 44.4891C33.3687 44.4891 36.1373 44.4891 38.906 44.4891C39.6159 44.4891 40.1128 44.216 40.4678 43.6016C40.7517 42.9872 40.6807 42.3728 40.2548 41.8949C39.8998 41.417 39.4029 41.2805 38.764 41.2805C37.0602 41.2805 35.4274 41.2805 33.7236 41.2805C33.0847 41.2805 32.4458 41.144 31.8778 40.8026C30.529 40.0517 29.1802 39.369 27.9023 38.6181C27.1214 38.2085 26.2695 38.0037 25.3467 38.0037C23.6429 38.0037 21.9391 38.0037 20.1643 38.0037C20.0223 38.0037 19.8804 38.0037 19.7384 38.0037C19.8094 41.2805 19.8094 44.5573 19.8094 47.9024ZM12.9942 36.3653C12.9942 40.7344 12.9942 45.0352 12.9942 49.4043C13.1362 49.4043 13.2782 49.4043 13.4202 49.4043C14.627 49.4043 15.7629 49.4043 16.9697 49.4043C17.8216 49.4043 18.1056 49.1312 18.1056 48.312C18.1056 44.6939 18.1056 41.0757 18.1056 37.4575C18.1056 37.3893 18.1056 37.2527 18.1056 37.1845C18.1056 36.7066 17.7506 36.4335 17.3247 36.3653C15.9049 36.3653 14.485 36.3653 12.9942 36.3653Z" fill="#18212D"/>
<path d="M36.4919 19.9129C36.9889 19.3668 37.3438 18.8206 37.8407 18.3428C40.9644 15.339 46.2177 16.4313 47.8505 20.5273C48.9153 23.0532 48.4184 25.4426 46.8566 27.6954C45.6498 29.4021 44.017 30.7674 42.4552 32.1328C40.7514 33.5664 39.0476 35 37.3438 36.3653C36.8469 36.7749 36.4919 36.7749 35.995 36.4336C33.7943 34.5904 31.5935 32.8154 29.3928 30.9722C28.4699 30.2213 27.689 29.2655 26.8371 28.4463C26.7661 28.3098 26.6242 28.2415 26.5532 28.105C26.2692 27.6954 26.3402 27.2175 26.6951 27.0127C27.0501 26.7396 27.547 26.7396 27.831 27.1492C30.3157 30.0847 33.5103 32.201 36.4209 34.6587C36.5629 34.7952 36.7049 34.7952 36.8469 34.6587C39.2606 32.6106 41.6743 30.5626 44.017 28.5146C45.0818 27.5589 45.9337 26.4666 46.4307 25.1012C46.9986 23.4628 46.8566 21.8244 45.8627 20.3225C44.1589 17.7966 40.6094 17.5918 38.6926 19.9812C38.1957 20.6639 37.8407 21.4148 37.4148 22.1657C37.2018 22.6436 36.9179 22.9167 36.4919 22.8484C36.066 22.8484 35.853 22.6436 35.64 22.0975C35.2851 21.0052 34.7171 20.1177 33.8652 19.3668C31.8775 17.6601 28.8959 17.9332 27.4051 20.0494C27.0501 20.459 26.8371 21.0052 26.6242 21.4831C26.4112 22.0292 25.9852 22.3023 25.4883 22.0975C24.9914 21.9609 24.8494 21.4831 24.9914 20.9369C26.0562 17.5918 29.6768 15.7486 32.9424 16.9091C34.3622 17.387 35.427 18.3428 36.2789 19.5716C36.3499 19.7081 36.4209 19.7764 36.4919 19.9129Z" fill="#18212D"/>
<path d="M25.63 25.4425C25.1331 25.4425 24.7781 25.0329 24.7781 24.6233C24.7781 24.1454 25.2041 23.8041 25.63 23.8041C26.1269 23.8041 26.4819 24.2137 26.4819 24.6233C26.4819 25.0329 26.1269 25.4425 25.63 25.4425Z" fill="#18212D"/>
<path d="M15.5493 39.6421C15.0524 39.6421 14.6974 39.3007 14.6974 38.8229C14.6974 38.4133 15.0524 38.0037 15.5493 38.0037C15.9753 38.0037 16.4012 38.345 16.4012 38.8229C16.4012 39.2325 16.0462 39.6421 15.5493 39.6421Z" fill="#18212D"/>
</svg>
