<svg width="42" height="42" viewBox="0 0 42 42" fill="none" xmlns="http://www.w3.org/2000/svg">
<path d="M13.9524 13.2332C18.4442 13.3597 22.1768 15.1944 24.9605 18.7372C26.8584 21.2046 27.7441 23.9882 27.8074 27.0882C27.7441 30.4413 26.7319 33.478 24.5176 36.0719C20.5319 40.8167 13.8891 42.3351 8.19523 39.8045C7.68911 39.5514 7.30952 39.5514 6.86666 39.8678C4.96871 41.0698 2.94423 41.3229 0.793215 40.6269C0.476889 40.5637 0.0340335 40.4371 0.0340335 39.9943C0.0340335 39.5514 0.350359 39.4249 0.666684 39.2984C1.74219 38.7923 2.56464 38.0331 3.19729 37.0208C3.45035 36.6412 3.45035 36.3249 3.13402 35.9453C-3.44555 27.7209 0.85648 15.7638 11.1687 13.6127C12.1177 13.3597 13.0666 13.2964 13.9524 13.2332ZM26.4788 26.1392C26.1625 22.1535 24.3278 19.0535 21.038 16.776C20.4687 16.4597 19.8993 16.0168 19.3299 15.7638C13.9524 13.1699 7.49932 14.7515 3.82994 19.5597C0.223829 24.3045 0.413624 30.9474 4.39933 35.5025C4.84218 36.0086 4.90545 36.4514 4.58912 37.0841C4.083 38.1596 3.32382 38.982 2.31158 39.8678C3.95647 39.9943 5.3483 39.678 6.48707 38.729C7.11972 38.2229 7.56258 38.2229 8.2585 38.6025C12.434 40.5637 16.5462 40.4371 20.5319 37.9698C24.138 35.7555 26.0993 32.529 26.4788 28.2902C26.6686 27.5311 26.6686 26.8351 26.4788 26.1392Z" fill="#18212D"/>
<path d="M28.9457 27.0249C29.009 26.5188 29.262 26.329 29.7049 26.2658C31.0334 26.0127 32.2988 25.5066 33.5008 24.8107C33.9436 24.8107 34.1967 25.0637 34.4498 25.3168C35.6518 26.2658 37.0436 26.6454 38.7518 26.4556C37.8028 25.6964 37.1069 24.9372 36.6008 23.9882C36.1579 23.229 36.1579 22.7229 36.7906 22.027C41.662 16.4597 40.5232 7.85562 34.513 3.55359C34.3232 3.42706 34.1334 3.174 33.8171 3.23727C31.7294 1.78217 29.4518 1.14952 26.9212 1.33932C26.0988 1.40258 25.2131 1.27605 24.3906 1.52911C19.2661 2.85768 16.0396 6.0842 14.7743 11.2087C14.7111 11.5883 14.6478 11.9679 14.2682 12.1576C13.5723 12.0944 13.4458 11.7781 13.5723 11.1454C14.7743 4.94543 20.2784 0.263809 26.4784 0.0107485C33.1212 -0.242312 38.9416 3.99645 40.5865 10.2597C41.7885 14.7515 40.8395 18.8637 37.9926 22.5331C37.613 22.976 37.613 23.2923 37.9293 23.7984C38.562 24.7474 39.3844 25.5698 40.46 26.0127C40.7763 26.1392 41.0926 26.2658 41.0293 26.7086C41.0293 27.1515 40.6497 27.278 40.3334 27.4045C38.1824 28.1005 36.0947 27.8474 34.1967 26.5821C33.7538 26.2658 33.4375 26.2658 32.9947 26.5188C32.0457 27.0249 31.0334 27.278 29.9579 27.5311C29.4518 27.5943 29.1355 27.4678 28.9457 27.0249Z" fill="#18212D"/>
<path d="M25.3396 13.9292C25.2763 14.3088 25.0865 14.4985 24.7069 14.4985C24.3906 14.4985 24.1375 14.3088 24.1375 13.9292C24.1375 13.5496 24.3273 13.2965 24.7069 13.2965C25.1498 13.3598 25.3396 13.5496 25.3396 13.9292Z" fill="#18212D"/>
<path d="M27.1745 13.2965C27.5541 13.3598 27.8071 13.5496 27.8071 13.9292C27.8071 14.3088 27.5541 14.4985 27.1745 14.4985C26.8582 14.4985 26.6684 14.2455 26.6051 13.9292C26.6051 13.5496 26.8582 13.423 27.1745 13.2965Z" fill="#18212D"/>
<path d="M29.6419 13.3599C30.0215 13.4231 30.2113 13.6129 30.2113 13.9925C30.148 14.3721 29.8949 14.5619 29.5786 14.4986C29.2623 14.4354 29.0725 14.2456 29.0725 13.866C29.0092 13.5497 29.2623 13.3599 29.6419 13.3599Z" fill="#18212D"/>
<path d="M11.7375 27.0883C11.7375 26.3924 11.7375 25.6965 11.7375 25.0006C11.7375 24.4312 11.9906 24.1149 12.56 24.1149C12.8763 24.1149 13.1926 24.1149 13.5089 24.1149C14.964 24.1149 15.6599 25.0638 15.2804 26.4557C15.2171 26.772 15.2804 26.8985 15.4069 27.0883C15.913 27.721 15.9763 28.4169 15.5967 29.1128C15.2171 29.8087 14.6477 30.1251 13.8253 30.1251C11.4212 30.1251 11.611 30.4414 11.611 28.0373C11.7375 27.721 11.7375 27.4047 11.7375 27.0883ZM13.6355 28.9863C14.2049 28.9863 14.711 28.8598 14.6477 28.2904C14.6477 27.5312 14.0151 27.6577 13.4457 27.5944C12.6232 27.5312 13.0028 28.1006 12.9395 28.4802C12.8763 29.1128 13.3824 28.9863 13.6355 28.9863ZM13.5089 25.3802C13.1293 25.3169 13.0028 25.4434 13.0028 25.8863C13.0028 26.2026 13.0661 26.4557 13.4457 26.3924C13.8253 26.3291 14.2681 26.3924 14.2681 25.8863C14.2681 25.3802 13.8885 25.3169 13.5089 25.3802Z" fill="#18212D"/>
<path d="M5.66467 29.3026C6.23405 27.7842 6.8667 26.1394 7.56262 24.4945C7.75241 23.9883 8.5116 23.9883 8.70139 24.4945C9.39731 26.1394 9.96669 27.7842 10.5993 29.3659C10.7259 29.6822 10.5361 29.9353 10.2198 30.0618C9.84016 30.1883 9.65037 29.9985 9.46057 29.6822C9.33404 29.4291 9.39731 28.9863 8.95445 28.923C8.38507 28.8598 7.75241 28.8598 7.18303 28.923C6.8667 28.9863 6.92997 29.3659 6.74017 29.6189C6.55038 29.9353 6.29732 30.1251 5.98099 29.9985C5.72793 29.9985 5.6014 29.7455 5.66467 29.3026ZM7.56262 27.721C8.76466 27.8475 8.76466 27.8475 8.38507 26.8353C8.3218 26.7087 8.3218 26.5189 8.06874 26.3924C7.87894 26.8353 7.75241 27.2781 7.56262 27.721Z" fill="#18212D"/>
<path d="M20.0887 30.125C18.8234 30.125 17.7479 29.3658 17.3051 28.227C16.8622 27.0883 17.1153 25.7597 18.0643 24.9373C18.95 24.1148 20.2785 23.925 21.354 24.3679C21.7969 24.5577 22.2398 24.8107 21.9867 25.3801C21.7336 25.8862 21.354 25.7597 20.9112 25.5066C20.2153 25.1903 19.5826 25.2536 18.95 25.7597C18.3806 26.2658 18.1908 26.8985 18.3806 27.6577C18.5704 28.3536 19.0765 28.7964 19.7724 28.923C20.2785 28.9862 20.7214 28.8597 21.101 28.5434C21.354 28.2903 21.7336 28.1638 21.9867 28.4801C22.303 28.8597 22.1765 29.176 21.8602 29.4291C21.354 29.9352 20.7847 30.1883 20.0887 30.125Z" fill="#18212D"/>
</svg>
