<svg width="67" height="67" viewBox="0 0 67 67" fill="none" xmlns="http://www.w3.org/2000/svg">
<path d="M33.5 67C52.0015 67 67 52.0015 67 33.5C67 14.9985 52.0015 0 33.5 0C14.9985 0 0 14.9985 0 33.5C0 52.0015 14.9985 67 33.5 67Z" fill="#E1F0FF"/>
<path d="M37.8763 53.2774C37.404 54.2055 36.9992 54.2508 36.4146 53.368C35.0878 51.3307 33.7611 49.2934 32.4343 47.2561C31.1075 49.316 29.7583 51.3759 28.4315 53.4359C27.8918 54.2508 27.4871 54.2055 27.0148 53.3001C28.1617 51.4891 29.331 49.6556 30.5004 47.8673C31.1975 46.8033 31.7372 45.6715 31.7372 44.3812C31.7597 40.1481 31.7597 35.9151 31.7597 31.682C31.7597 30.7766 31.3099 30.3691 30.343 30.3012C29.6683 30.3238 29.2636 30.6634 29.1286 31.3425C28.9262 32.9044 29.1286 34.489 29.0162 36.0509C28.8363 36.73 28.5889 37.3638 28.2741 37.975C28.0043 38.473 27.667 38.722 27.0823 38.4957C26.7899 38.1335 26.8124 37.7713 27.0598 37.3638C27.577 36.5489 27.7569 35.6661 27.7344 34.6927C27.6894 33.6967 27.7344 32.7007 27.7344 31.7273C27.7344 30.686 28.1392 29.8484 29.0387 29.3052C29.331 29.1241 29.5334 28.943 29.6009 28.6034C30.298 25.887 31.0176 23.1933 31.7147 20.4769C31.8496 19.9336 31.8721 19.3677 31.22 19.0507C30.253 18.7565 29.7808 19.0734 29.331 20.2731C27.8918 24.1666 26.61 28.1733 24.9235 31.9763C23.9565 34.1494 23.0795 36.2773 23.7541 38.722C23.8891 39.1974 23.7316 39.5822 23.2369 39.7633C22.8097 39.718 22.5848 39.4917 22.4948 39.0389C22.0226 37.0696 22.0451 35.1454 22.9221 33.2892C24.946 28.9203 26.3852 24.3025 28.1167 19.8204C28.6789 18.349 29.5334 17.602 30.7028 17.5567C31.3774 17.5341 31.9171 18.1226 32.4568 18.1226C32.9965 18.1226 33.5362 17.5114 34.2108 17.5567C35.605 17.6473 36.3246 18.5301 36.7744 19.7298C38.0112 23.0801 39.2255 26.4303 40.5073 29.7579C41.002 31.0708 41.6092 32.3385 42.1714 33.6061C42.9584 35.4171 42.8685 37.2506 42.4412 39.1069C42.3513 39.5143 42.1039 39.6954 41.7216 39.7407C40.9121 39.469 41.1144 38.8126 41.2494 38.2693C41.6766 36.5263 41.4068 34.8964 40.6197 33.3345C39.6528 31.3877 38.9557 29.3504 38.1911 27.3358C37.2916 24.891 36.3921 22.4689 35.4701 20.0468C35.0428 18.9376 34.4132 18.6659 33.5137 19.1639C32.9515 19.594 33.1089 20.1373 33.2438 20.6806C33.9185 23.2612 34.5931 25.8191 35.2452 28.3997C35.3577 28.8298 35.5376 29.1014 35.9198 29.3278C36.7519 29.8484 37.1567 30.6181 37.1567 31.6141C37.1567 32.6101 37.1791 33.6061 37.1567 34.6022C37.1117 35.5982 37.2916 36.5263 37.8313 37.3638C38.0112 37.6355 38.1461 37.9297 37.9437 38.2693C37.6964 38.6315 37.359 38.5862 36.9992 38.4957C36.4595 37.7487 36.0997 36.9111 35.8749 36.0056C35.7624 34.4437 35.9423 32.8591 35.7624 31.2972C35.4026 30.3238 34.9979 30.1201 34.0084 30.3691C33.2663 30.5955 33.1314 31.2066 33.1314 31.8857C33.1314 35.8019 33.1539 39.718 33.1314 43.6342C33.1314 45.2188 33.5812 46.5996 34.4357 47.9125C35.6275 49.6782 36.7294 51.4891 37.8763 53.2774ZM32.5467 23.2159C32.4793 23.2159 32.4343 23.2159 32.3668 23.2159C31.9171 24.9363 31.4673 26.6567 31.0401 28.3771C30.9951 28.5808 30.7477 28.8751 31.085 28.9656C31.8046 29.1467 32.4568 30.2106 33.3113 29.192C33.3788 29.1014 33.5137 29.0788 33.6261 29.0562C33.9634 28.9883 34.0309 28.8524 33.941 28.5129C33.4462 26.7472 32.9965 24.9816 32.5467 23.2159Z" fill="#18212D"/>
<path d="M23.3944 41.1215C23.8666 41.1215 24.1364 41.3252 24.2489 41.8006C25.0584 44.8565 24.5637 47.4824 22.0001 49.5876C20.6284 50.6968 19.4366 52.0324 18.1548 53.2547C17.9299 53.4358 17.705 53.6169 17.4802 53.798C17.1878 54.0244 16.873 54.0017 16.6256 53.7301C16.3558 53.4585 16.3558 53.1415 16.6032 52.8699C16.8955 52.553 17.2103 52.2587 17.5251 51.9418C18.7844 50.7421 20.0212 49.497 21.3255 48.3426C22.9896 46.8712 23.6642 45.1734 23.102 42.955C22.9896 42.4118 22.5398 41.6195 23.3944 41.1215Z" fill="#18212D"/>
<path d="M46.7588 53.2773C45.3196 51.8965 43.8804 50.493 42.4187 49.1122C40.2599 47.0522 39.6527 44.4264 40.6872 41.6647C40.8446 41.2799 41.1144 41.144 41.4967 41.144C41.924 41.3704 42.0364 41.6873 41.9465 42.1627C41.834 42.6381 41.8115 43.1361 41.6991 43.6341C41.2943 45.445 41.9465 46.8711 43.2507 48.0935C44.7574 49.5196 46.2416 50.9231 47.7257 52.3492C47.8831 52.5077 48.063 52.6661 48.2205 52.8246C48.4903 53.1189 48.5353 53.4584 48.2654 53.7527C47.9731 54.0696 47.6583 54.047 47.3434 53.7753C47.1635 53.6169 46.9612 53.4358 46.7588 53.2773Z" fill="#18212D"/>
<path d="M41.7663 21.6993C41.339 21.6993 41.0692 21.6088 40.9792 21.224C40.8893 20.8165 41.0692 20.5222 41.4515 20.4317C42.8682 20.0921 44.2624 19.7752 45.6791 19.4583C46.0839 19.3677 46.3762 19.5262 46.4887 19.9337C46.6011 20.3411 46.3987 20.6354 46.0164 20.7259C44.5772 21.0655 43.138 21.3824 41.7663 21.6993Z" fill="#18212D"/>
<path d="M22.9447 21.6992C21.573 21.3823 20.0888 21.0428 18.6271 20.6806C18.2898 20.59 18.1099 20.2958 18.2224 19.9336C18.3123 19.5714 18.6047 19.3677 18.942 19.4356C20.4037 19.7525 21.8878 20.092 23.3495 20.4542C23.6868 20.5448 23.8442 20.839 23.7543 21.2239C23.6643 21.5861 23.372 21.6992 22.9447 21.6992Z" fill="#18212D"/>
<path d="M22.9443 11.241C23.2141 11.241 23.3715 11.3995 23.5289 11.5806C24.4059 12.5766 25.283 13.5953 26.16 14.5913C26.4523 14.9308 26.6322 15.293 26.2499 15.6552C25.8676 16.0174 25.5078 15.8363 25.2155 15.4967C24.316 14.4781 23.4165 13.4368 22.517 12.4182C22.2921 12.1465 22.2022 11.8522 22.3821 11.5353C22.4945 11.309 22.6969 11.2184 22.9443 11.241Z" fill="#18212D"/>
<path d="M33.0191 11.8975C33.0191 12.5313 32.9966 13.1878 33.0191 13.8216C33.0415 14.297 32.8841 14.6818 32.3894 14.7044C31.8947 14.7271 31.7148 14.3649 31.7148 13.8895C31.7148 12.554 31.7148 11.1958 31.7148 9.83756C31.7148 9.36219 31.8722 9 32.3894 9C32.9066 9.02264 33.0415 9.40746 33.0191 9.86019C32.9966 10.5393 33.0191 11.2184 33.0191 11.8975Z" fill="#18212D"/>
<path d="M42.4412 11.8976C42.4412 12.1466 42.2838 12.3277 42.1264 12.5088C41.2718 13.5048 40.4173 14.4782 39.5403 15.4516C39.248 15.7911 38.9107 16.0401 38.5059 15.7006C38.0337 15.3384 38.236 14.9536 38.5509 14.5688C39.4279 13.5727 40.3049 12.5541 41.1819 11.5581C41.4068 11.2864 41.6766 11.1506 42.0139 11.2864C42.3063 11.377 42.4412 11.6034 42.4412 11.8976Z" fill="#18212D"/>
</svg>
