<svg width="44" height="42" viewBox="0 0 44 42" fill="none" xmlns="http://www.w3.org/2000/svg">
<g clip-path="url(#clip0_1062_2241)">
<path d="M37.1113 17.2855C37.7039 17.0648 38.0743 17.2855 38.4447 17.6533C39.9261 19.1244 41.4076 20.5955 42.8891 22.0666C44.1484 23.317 44.2965 24.9352 43.4076 26.2592C42.5187 27.5832 40.9632 27.951 39.2595 27.2154C39.1854 27.2154 39.1113 27.1419 38.9632 27.1419C38.9632 27.5097 38.9632 27.8039 38.9632 28.0981C38.9632 31.8494 38.9632 35.5272 38.9632 39.2785C38.9632 41.0438 38.0002 42 36.2224 42C26.741 42 17.2595 42 7.70391 42C6.00021 42 4.96317 41.0438 4.96317 39.2785C4.96317 35.233 4.96317 31.1874 4.96317 27.1419C4.22243 27.4361 3.62984 27.7303 2.8891 27.5832C1.55577 27.4361 0.666877 26.7741 0.222432 25.5237C-0.222012 24.2732 0.074284 23.0964 1.03725 22.1401C3.33354 19.7864 5.70391 17.5062 8.00021 15.226C9.85206 13.3871 11.7039 11.5482 13.5558 9.70932C13.9261 9.41509 14.0743 9.19443 13.7039 8.67954C12.0002 6.39933 12.2224 3.38357 14.2965 1.47114C16.2965 -0.441298 19.3335 -0.588409 21.5558 1.25047C22.0002 1.61825 22.1484 1.54469 22.5187 1.25047C24.7409 -0.514854 27.778 -0.367743 29.778 1.54469C31.778 3.45713 32.0002 6.47289 30.3706 8.67954C30.0002 9.19443 30.0743 9.41509 30.5187 9.78287C31.2595 10.4449 31.9261 11.1804 32.6669 11.8424C33.1113 12.2837 33.1854 12.7251 32.8891 13.24C32.2965 13.6813 31.8521 13.5342 31.4076 13.0193C31.1113 12.6515 30.7409 12.3573 30.3706 11.9895C29.8521 11.4746 29.3335 10.5184 28.7409 10.592C28.1484 10.592 27.7039 11.5482 27.1113 11.9895C26.5928 12.3573 26.815 12.578 27.1854 12.9457C29.3335 15.0788 31.4817 17.2119 33.6298 19.345C35.6298 21.331 37.7039 23.3906 39.7039 25.3766C40.2224 25.8915 40.741 26.1857 41.4817 25.8915C42.5187 25.4501 42.7409 24.2732 41.8521 23.4641C40.3706 21.993 38.8891 20.4484 37.3335 18.9773C36.741 18.3888 36.5928 17.8739 37.1113 17.2855ZM37.2595 32.585C37.2595 30.3783 37.2595 28.2452 37.2595 26.0386C37.2595 25.6708 37.1854 25.3766 36.9632 25.1559C33.1854 21.4046 29.4817 17.6533 25.7039 13.9755C25.4076 13.6813 25.2595 13.6813 24.9632 13.9755C24.2965 14.7111 23.5558 15.3731 22.815 16.0351C22.2965 16.5499 21.778 16.6235 21.1854 16.0351C20.5187 15.3731 19.778 14.7846 19.1854 14.0491C18.815 13.6813 18.5928 13.6077 18.2224 14.0491C14.5928 17.7268 10.8891 21.4046 7.1854 25.0088C6.8891 25.303 6.74095 25.5972 6.81502 25.965C6.81502 27.8039 6.81502 29.5692 6.81502 31.4081C6.81502 33.9825 6.81502 36.557 6.81502 39.1314C6.81502 39.9405 7.11132 40.3083 7.92614 40.2347C8.5928 40.2347 9.33354 40.1612 10.0002 40.2347C10.5928 40.3083 10.741 40.0876 10.741 39.4992C10.741 36.8512 10.741 34.2032 10.741 31.5552C10.741 30.0105 11.3335 28.6866 12.5928 27.8039C12.9632 27.5097 13.0372 27.289 12.8891 26.8477C12.2965 25.1559 12.815 23.3906 14.1484 22.2872C15.5558 21.1104 17.6298 20.9633 19.1854 21.993C20.7409 23.0228 21.4817 25.0088 20.8891 26.7741C20.741 27.2154 20.6669 27.5097 21.1854 27.8039C21.5558 28.0246 21.8521 28.613 22.2224 28.613C22.5928 28.613 22.8891 28.0246 23.2595 27.8039C23.6298 27.5832 23.7039 27.289 23.4817 26.9212C23.1113 25.965 23.1113 25.0088 23.4817 24.1261C24.2965 21.993 26.5928 20.8897 28.815 21.6253C30.9632 22.3608 32.1484 24.641 31.4817 26.8477C31.4076 27.1419 31.0372 27.4361 31.5558 27.8039C33.0372 28.7601 33.6298 30.2312 33.5558 31.9965C33.5558 33.8354 33.5558 35.7478 33.5558 37.5867C33.5558 38.4694 33.2595 39.6463 33.7039 40.1612C34.2224 40.7496 35.4076 40.3083 36.2965 40.3083C37.2595 40.3083 37.4076 40.1612 37.4076 39.1314C37.2595 36.9247 37.2595 34.7916 37.2595 32.585ZM18.0002 1.6918C16.5187 1.6918 15.1854 2.57446 14.5928 3.97201C14.0002 5.44312 14.2224 6.84066 15.3335 8.01755C17.4076 10.0771 19.4817 12.0631 21.6298 14.0491C21.9261 14.3433 22.0743 14.3433 22.3706 14.0491C24.4447 11.9895 26.5928 10.0035 28.6669 8.01755C29.4076 7.35555 29.7039 6.47289 29.7039 5.51667C29.7039 4.04557 28.8891 2.64802 27.4817 2.05958C26.0002 1.39758 24.4447 1.6918 23.1854 2.94224C22.0743 3.97201 21.9261 4.04557 20.815 2.94224C20.0743 2.13313 19.1113 1.6918 18.0002 1.6918ZM31.6298 35.6007C31.6298 34.2767 31.6298 32.9528 31.6298 31.6288C31.6298 30.6725 31.2595 29.937 30.5187 29.3485C30.0743 28.9808 29.778 28.9072 29.2595 29.275C28.7409 29.6428 28.1484 29.7899 27.4817 29.7899C26.5928 29.8634 25.778 29.6428 25.0372 29.2014C24.2965 28.6866 23.9261 29.4221 23.5558 29.7899C23.1113 30.3048 23.8521 30.3048 24.0002 30.4519C25.1113 31.4081 25.5558 32.585 25.1854 34.0561C25.1113 34.3503 25.0372 34.571 25.3335 34.7916C26.4447 35.6007 26.7409 36.7041 26.7409 38.0281C26.7409 38.6165 26.7409 39.2049 26.7409 39.7934C26.7409 40.3083 26.815 40.5289 27.4076 40.4554C28.5928 40.3818 29.778 40.3818 31.0372 40.4554C31.5558 40.4554 31.6298 40.3083 31.6298 39.8669C31.6298 38.3223 31.6298 36.9983 31.6298 35.6007ZM12.3706 35.6007C12.3706 36.9983 12.3706 38.3223 12.3706 39.7198C12.3706 40.2347 12.5187 40.3818 13.0372 40.3818C13.7039 40.3083 14.4447 40.3818 15.1113 40.3818C17.2595 40.3818 17.2595 40.3818 17.2595 38.3223C17.2595 36.9247 17.4817 35.6007 18.7409 34.7181C18.9632 34.571 18.9632 34.4239 18.8891 34.1296C18.4447 32.5114 18.9632 31.1874 20.3706 30.2312C20.5187 30.1577 20.6669 30.0841 20.5928 29.8634C20.3706 29.3485 19.4817 28.9808 18.8891 29.275C17.5558 29.937 16.2224 30.0841 14.9632 29.3485C14.0743 28.8337 13.6298 29.2014 13.1113 29.7899C12.5928 30.3783 12.4447 31.0403 12.4447 31.7759C12.3706 32.9528 12.3706 34.2767 12.3706 35.6007ZM2.96317 25.8915C3.77799 25.8915 4.22243 25.5237 4.5928 25.1559C8.37058 21.4046 12.1484 17.6533 15.9261 13.902C16.4447 13.3871 17.2595 12.9457 17.2595 12.4309C17.2595 11.8424 16.2965 11.4746 15.8521 10.8862C15.4817 10.3713 15.1854 10.4449 14.741 10.8862C10.6669 15.0053 6.5928 19.0508 2.44465 23.1699C2.22243 23.3906 2.00021 23.6112 1.92614 23.8319C1.40762 24.7146 2.14836 25.8915 2.96317 25.8915ZM21.9261 40.3083C22.815 40.3083 23.6298 40.3083 24.5187 40.3083C24.7409 40.3083 25.0372 40.3818 25.0372 40.0876C25.0372 38.9843 25.2595 37.8074 24.8891 36.7041C24.5928 35.9685 24.1484 35.7478 23.4076 36.1156C22.4447 36.557 21.4817 36.557 20.5928 36.0421C20.0743 35.7478 19.778 35.9685 19.4076 36.3363C19.1113 36.7041 18.9632 37.1454 18.9632 37.5867C18.9632 38.3223 18.9632 39.0578 18.9632 39.7934C18.9632 40.2347 19.1113 40.3818 19.5558 40.3818C20.3706 40.3083 21.1113 40.3083 21.9261 40.3083ZM29.7039 25.5237C29.7039 24.1997 28.5928 23.0964 27.2595 23.0964C25.8521 23.0964 24.741 24.1997 24.741 25.5972C24.741 26.9948 25.9261 28.0981 27.3335 28.0246C28.6669 28.0246 29.778 26.8477 29.7039 25.5237ZM16.741 23.0964C15.4076 23.0964 14.2965 24.1997 14.2965 25.5237C14.2965 26.9212 15.4076 28.0246 16.815 28.0246C18.1484 28.0246 19.2595 26.9212 19.3335 25.5972C19.2595 24.1997 18.1484 23.0964 16.741 23.0964ZM23.6298 32.9528C23.6298 32.0701 22.8891 31.3345 21.9261 31.4081C21.0372 31.4081 20.2965 32.1436 20.2965 33.0263C20.2965 33.909 21.1113 34.6445 22.0002 34.6445C22.9632 34.571 23.6298 33.8354 23.6298 32.9528Z" fill="#18212D"/>
<path d="M35.5557 15.888C35.1853 16.1822 34.7409 16.3293 34.2964 15.9615C33.852 15.5937 34.0001 15.1524 34.1483 14.7111C34.5186 14.4904 34.9631 14.3433 35.4075 14.7111C35.852 15.0788 35.7779 15.4466 35.5557 15.888Z" fill="#18212D"/>
</g>
<defs>
<clipPath id="clip0_1062_2241">
<rect width="44" height="42" fill="white"/>
</clipPath>
</defs>
</svg>
