<svg width="67" height="67" viewBox="0 0 67 67" fill="none" xmlns="http://www.w3.org/2000/svg">
<path d="M33.5 67C52.0015 67 67 52.0015 67 33.5C67 14.9985 52.0015 0 33.5 0C14.9985 0 0 14.9985 0 33.5C0 52.0015 14.9985 67 33.5 67Z" fill="#E1F0FF"/>
<path d="M26.9524 26.2332C31.4442 26.3597 35.1768 28.1944 37.9605 31.7372C39.8584 34.2046 40.7441 36.9882 40.8074 40.0882C40.7441 43.4413 39.7319 46.478 37.5176 49.0719C33.5319 53.8167 26.8891 55.3351 21.1952 52.8045C20.6891 52.5514 20.3095 52.5514 19.8667 52.8678C17.9687 54.0698 15.9442 54.3229 13.7932 53.6269C13.4769 53.5637 13.034 53.4371 13.034 52.9943C13.034 52.5514 13.3504 52.4249 13.6667 52.2984C14.7422 51.7923 15.5646 51.0331 16.1973 50.0208C16.4503 49.6412 16.4503 49.3249 16.134 48.9453C9.55445 40.7209 13.8565 28.7638 24.1687 26.6127C25.1177 26.3597 26.0666 26.2964 26.9524 26.2332ZM39.4788 39.1392C39.1625 35.1535 37.3278 32.0535 34.038 29.776C33.4687 29.4597 32.8993 29.0168 32.3299 28.7638C26.9524 26.1699 20.4993 27.7515 16.8299 32.5597C13.2238 37.3045 13.4136 43.9474 17.3993 48.5025C17.8422 49.0086 17.9054 49.4514 17.5891 50.0841C17.083 51.1596 16.3238 51.982 15.3116 52.8678C16.9565 52.9943 18.3483 52.678 19.4871 51.729C20.1197 51.2229 20.5626 51.2229 21.2585 51.6025C25.434 53.5637 29.5462 53.4371 33.5319 50.9698C37.138 48.7555 39.0993 45.529 39.4788 41.2902C39.6686 40.5311 39.6686 39.8351 39.4788 39.1392Z" fill="#18212D"/>
<path d="M41.9457 40.0249C42.009 39.5188 42.262 39.329 42.7049 39.2658C44.0334 39.0127 45.2988 38.5066 46.5008 37.8107C46.9436 37.8107 47.1967 38.0637 47.4498 38.3168C48.6518 39.2658 50.0436 39.6454 51.7518 39.4556C50.8028 38.6964 50.1069 37.9372 49.6008 36.9882C49.1579 36.229 49.1579 35.7229 49.7906 35.027C54.662 29.4597 53.5232 20.8556 47.513 16.5536C47.3232 16.4271 47.1334 16.174 46.8171 16.2373C44.7294 14.7822 42.4518 14.1495 39.9212 14.3393C39.0988 14.4026 38.2131 14.2761 37.3906 14.5291C32.2661 15.8577 29.0396 19.0842 27.7743 24.2087C27.7111 24.5883 27.6478 24.9679 27.2682 25.1576C26.5723 25.0944 26.4458 24.7781 26.5723 24.1454C27.7743 17.9454 33.2784 13.2638 39.4784 13.0107C46.1212 12.7577 51.9416 16.9964 53.5865 23.2597C54.7885 27.7515 53.8395 31.8637 50.9926 35.5331C50.613 35.976 50.613 36.2923 50.9293 36.7984C51.562 37.7474 52.3844 38.5698 53.46 39.0127C53.7763 39.1392 54.0926 39.2658 54.0293 39.7086C54.0293 40.1515 53.6497 40.278 53.3334 40.4045C51.1824 41.1005 49.0947 40.8474 47.1967 39.5821C46.7538 39.2658 46.4375 39.2658 45.9947 39.5188C45.0457 40.0249 44.0334 40.278 42.9579 40.5311C42.4518 40.5943 42.1355 40.4678 41.9457 40.0249Z" fill="#18212D"/>
<path d="M38.3396 26.9292C38.2763 27.3088 38.0865 27.4985 37.7069 27.4985C37.3906 27.4985 37.1375 27.3088 37.1375 26.9292C37.1375 26.5496 37.3273 26.2965 37.7069 26.2965C38.1498 26.3598 38.3396 26.5496 38.3396 26.9292Z" fill="#18212D"/>
<path d="M40.1745 26.2965C40.5541 26.3598 40.8071 26.5496 40.8071 26.9292C40.8071 27.3088 40.5541 27.4985 40.1745 27.4985C39.8582 27.4985 39.6684 27.2455 39.6051 26.9292C39.6051 26.5496 39.8582 26.423 40.1745 26.2965Z" fill="#18212D"/>
<path d="M42.6419 26.3599C43.0215 26.4231 43.2113 26.6129 43.2113 26.9925C43.148 27.3721 42.8949 27.5619 42.5786 27.4986C42.2623 27.4354 42.0725 27.2456 42.0725 26.866C42.0092 26.5497 42.2623 26.3599 42.6419 26.3599Z" fill="#18212D"/>
<path d="M24.7375 40.0883C24.7375 39.3924 24.7375 38.6965 24.7375 38.0006C24.7375 37.4312 24.9906 37.1149 25.56 37.1149C25.8763 37.1149 26.1926 37.1149 26.5089 37.1149C27.964 37.1149 28.6599 38.0638 28.2804 39.4557C28.2171 39.772 28.2804 39.8985 28.4069 40.0883C28.913 40.721 28.9763 41.4169 28.5967 42.1128C28.2171 42.8087 27.6477 43.1251 26.8253 43.1251C24.4212 43.1251 24.611 43.4414 24.611 41.0373C24.7375 40.721 24.7375 40.4047 24.7375 40.0883ZM26.6355 41.9863C27.2049 41.9863 27.711 41.8598 27.6477 41.2904C27.6477 40.5312 27.0151 40.6577 26.4457 40.5944C25.6232 40.5312 26.0028 41.1006 25.9395 41.4802C25.8763 42.1128 26.3824 41.9863 26.6355 41.9863ZM26.5089 38.3802C26.1293 38.3169 26.0028 38.4434 26.0028 38.8863C26.0028 39.2026 26.0661 39.4557 26.4457 39.3924C26.8253 39.3291 27.2681 39.3924 27.2681 38.8863C27.2681 38.3802 26.8885 38.3169 26.5089 38.3802Z" fill="#18212D"/>
<path d="M18.6647 42.3026C19.2341 40.7842 19.8667 39.1394 20.5626 37.4945C20.7524 36.9883 21.5116 36.9883 21.7014 37.4945C22.3973 39.1394 22.9667 40.7842 23.5993 42.3659C23.7259 42.6822 23.5361 42.9353 23.2198 43.0618C22.8402 43.1883 22.6504 42.9985 22.4606 42.6822C22.334 42.4291 22.3973 41.9863 21.9545 41.923C21.3851 41.8598 20.7524 41.8598 20.183 41.923C19.8667 41.9863 19.93 42.3659 19.7402 42.6189C19.5504 42.9353 19.2973 43.1251 18.981 42.9985C18.7279 42.9985 18.6014 42.7455 18.6647 42.3026ZM20.5626 40.721C21.7647 40.8475 21.7647 40.8475 21.3851 39.8353C21.3218 39.7087 21.3218 39.5189 21.0687 39.3924C20.8789 39.8353 20.7524 40.2781 20.5626 40.721Z" fill="#18212D"/>
<path d="M33.0887 43.125C31.8234 43.125 30.7479 42.3658 30.3051 41.227C29.8622 40.0883 30.1153 38.7597 31.0643 37.9373C31.95 37.1148 33.2785 36.925 34.354 37.3679C34.7969 37.5577 35.2398 37.8107 34.9867 38.3801C34.7336 38.8862 34.354 38.7597 33.9112 38.5066C33.2153 38.1903 32.5826 38.2536 31.95 38.7597C31.3806 39.2658 31.1908 39.8985 31.3806 40.6577C31.5704 41.3536 32.0765 41.7964 32.7724 41.923C33.2785 41.9862 33.7214 41.8597 34.101 41.5434C34.354 41.2903 34.7336 41.1638 34.9867 41.4801C35.303 41.8597 35.1765 42.176 34.8602 42.4291C34.354 42.9352 33.7847 43.1883 33.0887 43.125Z" fill="#18212D"/>
</svg>
