<svg width="33" height="46" viewBox="0 0 33 46" fill="none" xmlns="http://www.w3.org/2000/svg">
<path d="M21.8763 44.2774C21.404 45.2055 20.9992 45.2508 20.4146 44.368C19.0878 42.3307 17.7611 40.2934 16.4343 38.2561C15.1075 40.316 13.7583 42.3759 12.4315 44.4359C11.8918 45.2508 11.4871 45.2055 11.0148 44.3001C12.1617 42.4891 13.331 40.6556 14.5004 38.8673C15.1975 37.8033 15.7372 36.6715 15.7372 35.3812C15.7597 31.1481 15.7597 26.9151 15.7597 22.682C15.7597 21.7766 15.3099 21.3691 14.343 21.3012C13.6683 21.3238 13.2636 21.6634 13.1286 22.3425C12.9262 23.9044 13.1286 25.489 13.0162 27.0509C12.8363 27.73 12.5889 28.3638 12.2741 28.975C12.0043 29.473 11.667 29.722 11.0823 29.4957C10.7899 29.1335 10.8124 28.7713 11.0598 28.3638C11.577 27.5489 11.7569 26.6661 11.7344 25.6927C11.6894 24.6967 11.7344 23.7007 11.7344 22.7273C11.7344 21.686 12.1392 20.8484 13.0387 20.3052C13.331 20.1241 13.5334 19.943 13.6009 19.6034C14.298 16.887 15.0176 14.1933 15.7147 11.4769C15.8496 10.9336 15.8721 10.3677 15.22 10.0507C14.253 9.75646 13.7808 10.0734 13.331 11.2731C11.8918 15.1666 10.61 19.1733 8.92348 22.9763C7.95652 25.1494 7.07951 27.2773 7.75414 29.722C7.88906 30.1974 7.73165 30.5822 7.23693 30.7633C6.80966 30.718 6.58479 30.4917 6.49484 30.0389C6.0226 28.0696 6.04509 26.1454 6.9221 24.2892C8.94597 19.9203 10.3852 15.3025 12.1167 10.8204C12.6789 9.349 13.5334 8.60199 14.7028 8.55672C15.3774 8.53408 15.9171 9.12264 16.4568 9.12264C16.9965 9.12264 17.5362 8.51144 18.2108 8.55672C19.605 8.64726 20.3246 9.5301 20.7744 10.7298C22.0112 14.0801 23.2255 17.4303 24.5073 20.7579C25.002 22.0708 25.6092 23.3385 26.1714 24.6061C26.9584 26.4171 26.8685 28.2506 26.4412 30.1069C26.3513 30.5143 26.1039 30.6954 25.7216 30.7407C24.9121 30.469 25.1144 29.8126 25.2494 29.2693C25.6766 27.5263 25.4068 25.8964 24.6197 24.3345C23.6528 22.3877 22.9557 20.3504 22.1911 18.3358C21.2916 15.891 20.3921 13.4689 19.4701 11.0468C19.0428 9.93756 18.4132 9.66592 17.5137 10.1639C16.9515 10.594 17.1089 11.1373 17.2438 11.6806C17.9185 14.2612 18.5931 16.8191 19.2452 19.3997C19.3577 19.8298 19.5376 20.1014 19.9198 20.3278C20.7519 20.8484 21.1567 21.6181 21.1567 22.6141C21.1567 23.6101 21.1791 24.6061 21.1567 25.6022C21.1117 26.5982 21.2916 27.5263 21.8313 28.3638C22.0112 28.6355 22.1461 28.9297 21.9437 29.2693C21.6964 29.6315 21.359 29.5862 20.9992 29.4957C20.4595 28.7487 20.0997 27.9111 19.8749 27.0056C19.7624 25.4437 19.9423 23.8591 19.7624 22.2972C19.4026 21.3238 18.9979 21.1201 18.0084 21.3691C17.2663 21.5955 17.1314 22.2066 17.1314 22.8857C17.1314 26.8019 17.1539 30.718 17.1314 34.6342C17.1314 36.2188 17.5812 37.5996 18.4357 38.9125C19.6275 40.6782 20.7294 42.4891 21.8763 44.2774ZM16.5467 14.2159C16.4793 14.2159 16.4343 14.2159 16.3668 14.2159C15.9171 15.9363 15.4673 17.6567 15.0401 19.3771C14.9951 19.5808 14.7477 19.8751 15.085 19.9656C15.8046 20.1467 16.4568 21.2106 17.3113 20.192C17.3788 20.1014 17.5137 20.0788 17.6261 20.0562C17.9634 19.9883 18.0309 19.8524 17.941 19.5129C17.4462 17.7472 16.9965 15.9816 16.5467 14.2159Z" fill="#18212D"/>
<path d="M7.39436 32.1215C7.8666 32.1215 8.13645 32.3252 8.24888 32.8006C9.05843 35.8565 8.56371 38.4824 6.00014 40.5876C4.6284 41.6968 3.43657 43.0324 2.15479 44.2547C1.92991 44.4358 1.70504 44.6169 1.48016 44.798C1.18782 45.0244 0.873001 45.0017 0.625639 44.7301C0.355789 44.4585 0.355789 44.1415 0.603151 43.8699C0.895488 43.553 1.21031 43.2587 1.52514 42.9418C2.78443 41.7421 4.02124 40.497 5.32552 39.3426C6.98959 37.8712 7.66421 36.1734 7.10202 33.955C6.98959 33.4118 6.53984 32.6195 7.39436 32.1215Z" fill="#18212D"/>
<path d="M30.7588 44.2773C29.3196 42.8965 27.8804 41.493 26.4187 40.1122C24.2599 38.0522 23.6527 35.4264 24.6872 32.6647C24.8446 32.2799 25.1144 32.144 25.4967 32.144C25.924 32.3704 26.0364 32.6873 25.9465 33.1627C25.834 33.6381 25.8115 34.1361 25.6991 34.6341C25.2943 36.445 25.9465 37.8711 27.2507 39.0935C28.7574 40.5196 30.2416 41.9231 31.7257 43.3492C31.8831 43.5077 32.063 43.6661 32.2205 43.8246C32.4903 44.1189 32.5353 44.4584 32.2654 44.7527C31.9731 45.0696 31.6583 45.047 31.3434 44.7753C31.1635 44.6169 30.9612 44.4358 30.7588 44.2773Z" fill="#18212D"/>
<path d="M25.7663 12.6993C25.339 12.6993 25.0692 12.6088 24.9792 12.224C24.8893 11.8165 25.0692 11.5222 25.4515 11.4317C26.8682 11.0921 28.2624 10.7752 29.6791 10.4583C30.0839 10.3677 30.3762 10.5262 30.4887 10.9337C30.6011 11.3411 30.3987 11.6354 30.0164 11.7259C28.5772 12.0655 27.138 12.3824 25.7663 12.6993Z" fill="#18212D"/>
<path d="M6.94473 12.6992C5.573 12.3823 4.08883 12.0428 2.62714 11.6806C2.28983 11.59 2.10993 11.2958 2.22237 10.9336C2.31232 10.5714 2.60465 10.3677 2.94197 10.4356C4.40365 10.7525 5.88782 11.092 7.34951 11.4542C7.68682 11.5448 7.84423 11.839 7.75428 12.2239C7.66433 12.5861 7.37199 12.6992 6.94473 12.6992Z" fill="#18212D"/>
<path d="M6.94426 2.24104C7.21411 2.24104 7.37153 2.3995 7.52894 2.58059C8.40595 3.57661 9.28296 4.59526 10.16 5.59128C10.4523 5.93083 10.6322 6.29301 10.2499 6.6552C9.86763 7.01739 9.50783 6.83629 9.2155 6.49674C8.316 5.47809 7.4165 4.4368 6.517 3.41815C6.29213 3.14651 6.20218 2.85224 6.38208 2.53532C6.49452 2.30895 6.6969 2.21841 6.94426 2.24104Z" fill="#18212D"/>
<path d="M17.0191 2.8975C17.0191 3.53133 16.9966 4.18779 17.0191 4.82162C17.0415 5.29699 16.8841 5.68181 16.3894 5.70445C15.8947 5.72709 15.7148 5.3649 15.7148 4.88953C15.7148 3.55396 15.7148 2.19576 15.7148 0.837558C15.7148 0.362187 15.8722 0 16.3894 0C16.9066 0.0226367 17.0415 0.407461 17.0191 0.860195C16.9966 1.5393 17.0191 2.2184 17.0191 2.8975Z" fill="#18212D"/>
<path d="M26.4412 2.89763C26.4412 3.14663 26.2838 3.32773 26.1264 3.50882C25.2718 4.50483 24.4173 5.47821 23.5403 6.45159C23.248 6.79114 22.9107 7.04014 22.5059 6.70059C22.0337 6.33841 22.236 5.95358 22.5509 5.56876C23.4279 4.57274 24.3049 3.55409 25.1819 2.55808C25.4068 2.28644 25.6766 2.15062 26.0139 2.28644C26.3063 2.37698 26.4412 2.60335 26.4412 2.89763Z" fill="#18212D"/>
</svg>
