<svg width="67" height="67" viewBox="0 0 67 67" fill="none" xmlns="http://www.w3.org/2000/svg">
<path d="M33.5 67C52.0015 67 67 52.0015 67 33.5C67 14.9985 52.0015 0 33.5 0C14.9985 0 0 14.9985 0 33.5C0 52.0015 14.9985 67 33.5 67Z" fill="#E1F0FF"/>
<g clip-path="url(#clip0_3001_2175)">
<path d="M49.1113 28.2855C49.7039 28.0648 50.0743 28.2855 50.4447 28.6533C51.9261 30.1244 53.4076 31.5955 54.8891 33.0666C56.1484 34.317 56.2965 35.9352 55.4076 37.2592C54.5187 38.5832 52.9632 38.951 51.2595 38.2154C51.1854 38.2154 51.1113 38.1419 50.9632 38.1419C50.9632 38.5097 50.9632 38.8039 50.9632 39.0981C50.9632 42.8494 50.9632 46.5272 50.9632 50.2785C50.9632 52.0438 50.0002 53 48.2224 53C38.741 53 29.2595 53 19.7039 53C18.0002 53 16.9632 52.0438 16.9632 50.2785C16.9632 46.233 16.9632 42.1874 16.9632 38.1419C16.2224 38.4361 15.6298 38.7303 14.8891 38.5832C13.5558 38.4361 12.6669 37.7741 12.2224 36.5237C11.778 35.2732 12.0743 34.0964 13.0372 33.1401C15.3335 30.7864 17.7039 28.5062 20.0002 26.226C21.8521 24.3871 23.7039 22.5482 25.5558 20.7093C25.9261 20.4151 26.0743 20.1944 25.7039 19.6795C24.0002 17.3993 24.2224 14.3836 26.2965 12.4711C28.2965 10.5587 31.3335 10.4116 33.5558 12.2505C34.0002 12.6182 34.1484 12.5447 34.5187 12.2505C36.7409 10.4851 39.778 10.6323 41.778 12.5447C43.778 14.4571 44.0002 17.4729 42.3706 19.6795C42.0002 20.1944 42.0743 20.4151 42.5187 20.7829C43.2595 21.4449 43.9261 22.1804 44.6669 22.8424C45.1113 23.2837 45.1854 23.7251 44.8891 24.24C44.2965 24.6813 43.8521 24.5342 43.4076 24.0193C43.1113 23.6515 42.7409 23.3573 42.3706 22.9895C41.8521 22.4746 41.3335 21.5184 40.7409 21.592C40.1484 21.592 39.7039 22.5482 39.1113 22.9895C38.5928 23.3573 38.815 23.578 39.1854 23.9457C41.3335 26.0788 43.4817 28.2119 45.6298 30.345C47.6298 32.331 49.7039 34.3906 51.7039 36.3766C52.2224 36.8915 52.741 37.1857 53.4817 36.8915C54.5187 36.4501 54.7409 35.2732 53.8521 34.4641C52.3706 32.993 50.8891 31.4484 49.3335 29.9773C48.741 29.3888 48.5928 28.8739 49.1113 28.2855ZM49.2595 43.585C49.2595 41.3783 49.2595 39.2452 49.2595 37.0386C49.2595 36.6708 49.1854 36.3766 48.9632 36.1559C45.1854 32.4046 41.4817 28.6533 37.7039 24.9755C37.4076 24.6813 37.2595 24.6813 36.9632 24.9755C36.2965 25.7111 35.5558 26.3731 34.815 27.0351C34.2965 27.5499 33.778 27.6235 33.1854 27.0351C32.5187 26.3731 31.778 25.7846 31.1854 25.0491C30.815 24.6813 30.5928 24.6077 30.2224 25.0491C26.5928 28.7268 22.8891 32.4046 19.1854 36.0088C18.8891 36.303 18.741 36.5972 18.815 36.965C18.815 38.8039 18.815 40.5692 18.815 42.4081C18.815 44.9825 18.815 47.557 18.815 50.1314C18.815 50.9405 19.1113 51.3083 19.9261 51.2347C20.5928 51.2347 21.3335 51.1612 22.0002 51.2347C22.5928 51.3083 22.741 51.0876 22.741 50.4992C22.741 47.8512 22.741 45.2032 22.741 42.5552C22.741 41.0105 23.3335 39.6866 24.5928 38.8039C24.9632 38.5097 25.0372 38.289 24.8891 37.8477C24.2965 36.1559 24.815 34.3906 26.1484 33.2872C27.5558 32.1104 29.6298 31.9633 31.1854 32.993C32.7409 34.0228 33.4817 36.0088 32.8891 37.7741C32.741 38.2154 32.6669 38.5097 33.1854 38.8039C33.5558 39.0246 33.8521 39.613 34.2224 39.613C34.5928 39.613 34.8891 39.0246 35.2595 38.8039C35.6298 38.5832 35.7039 38.289 35.4817 37.9212C35.1113 36.965 35.1113 36.0088 35.4817 35.1261C36.2965 32.993 38.5928 31.8897 40.815 32.6253C42.9632 33.3608 44.1484 35.641 43.4817 37.8477C43.4076 38.1419 43.0372 38.4361 43.5558 38.8039C45.0372 39.7601 45.6298 41.2312 45.5558 42.9965C45.5558 44.8354 45.5558 46.7478 45.5558 48.5867C45.5558 49.4694 45.2595 50.6463 45.7039 51.1612C46.2224 51.7496 47.4076 51.3083 48.2965 51.3083C49.2595 51.3083 49.4076 51.1612 49.4076 50.1314C49.2595 47.9247 49.2595 45.7916 49.2595 43.585ZM30.0002 12.6918C28.5187 12.6918 27.1854 13.5745 26.5928 14.972C26.0002 16.4431 26.2224 17.8407 27.3335 19.0175C29.4076 21.0771 31.4817 23.0631 33.6298 25.0491C33.9261 25.3433 34.0743 25.3433 34.3706 25.0491C36.4447 22.9895 38.5928 21.0035 40.6669 19.0175C41.4076 18.3555 41.7039 17.4729 41.7039 16.5167C41.7039 15.0456 40.8891 13.648 39.4817 13.0596C38.0002 12.3976 36.4447 12.6918 35.1854 13.9422C34.0743 14.972 33.9261 15.0456 32.815 13.9422C32.0743 13.1331 31.1113 12.6918 30.0002 12.6918ZM43.6298 46.6007C43.6298 45.2767 43.6298 43.9528 43.6298 42.6288C43.6298 41.6725 43.2595 40.937 42.5187 40.3485C42.0743 39.9808 41.778 39.9072 41.2595 40.275C40.7409 40.6428 40.1484 40.7899 39.4817 40.7899C38.5928 40.8634 37.778 40.6428 37.0372 40.2014C36.2965 39.6866 35.9261 40.4221 35.5558 40.7899C35.1113 41.3048 35.8521 41.3048 36.0002 41.4519C37.1113 42.4081 37.5558 43.585 37.1854 45.0561C37.1113 45.3503 37.0372 45.571 37.3335 45.7916C38.4447 46.6007 38.7409 47.7041 38.7409 49.0281C38.7409 49.6165 38.7409 50.2049 38.7409 50.7934C38.7409 51.3083 38.815 51.5289 39.4076 51.4554C40.5928 51.3818 41.778 51.3818 43.0372 51.4554C43.5558 51.4554 43.6298 51.3083 43.6298 50.8669C43.6298 49.3223 43.6298 47.9983 43.6298 46.6007ZM24.3706 46.6007C24.3706 47.9983 24.3706 49.3223 24.3706 50.7198C24.3706 51.2347 24.5187 51.3818 25.0372 51.3818C25.7039 51.3083 26.4447 51.3818 27.1113 51.3818C29.2595 51.3818 29.2595 51.3818 29.2595 49.3223C29.2595 47.9247 29.4817 46.6007 30.7409 45.7181C30.9632 45.571 30.9632 45.4239 30.8891 45.1296C30.4447 43.5114 30.9632 42.1874 32.3706 41.2312C32.5187 41.1577 32.6669 41.0841 32.5928 40.8634C32.3706 40.3485 31.4817 39.9808 30.8891 40.275C29.5558 40.937 28.2224 41.0841 26.9632 40.3485C26.0743 39.8337 25.6298 40.2014 25.1113 40.7899C24.5928 41.3783 24.4447 42.0403 24.4447 42.7759C24.3706 43.9528 24.3706 45.2767 24.3706 46.6007ZM14.9632 36.8915C15.778 36.8915 16.2224 36.5237 16.5928 36.1559C20.3706 32.4046 24.1484 28.6533 27.9261 24.902C28.4447 24.3871 29.2595 23.9457 29.2595 23.4309C29.2595 22.8424 28.2965 22.4746 27.8521 21.8862C27.4817 21.3713 27.1854 21.4449 26.741 21.8862C22.6669 26.0053 18.5928 30.0508 14.4447 34.1699C14.2224 34.3906 14.0002 34.6112 13.9261 34.8319C13.4076 35.7146 14.1484 36.8915 14.9632 36.8915ZM33.9261 51.3083C34.815 51.3083 35.6298 51.3083 36.5187 51.3083C36.7409 51.3083 37.0372 51.3818 37.0372 51.0876C37.0372 49.9843 37.2595 48.8074 36.8891 47.7041C36.5928 46.9685 36.1484 46.7478 35.4076 47.1156C34.4447 47.557 33.4817 47.557 32.5928 47.0421C32.0743 46.7478 31.778 46.9685 31.4076 47.3363C31.1113 47.7041 30.9632 48.1454 30.9632 48.5867C30.9632 49.3223 30.9632 50.0578 30.9632 50.7934C30.9632 51.2347 31.1113 51.3818 31.5558 51.3818C32.3706 51.3083 33.1113 51.3083 33.9261 51.3083ZM41.7039 36.5237C41.7039 35.1997 40.5928 34.0964 39.2595 34.0964C37.8521 34.0964 36.741 35.1997 36.741 36.5972C36.741 37.9948 37.9261 39.0981 39.3335 39.0246C40.6669 39.0246 41.778 37.8477 41.7039 36.5237ZM28.741 34.0964C27.4076 34.0964 26.2965 35.1997 26.2965 36.5237C26.2965 37.9212 27.4076 39.0246 28.815 39.0246C30.1484 39.0246 31.2595 37.9212 31.3335 36.5972C31.2595 35.1997 30.1484 34.0964 28.741 34.0964ZM35.6298 43.9528C35.6298 43.0701 34.8891 42.3345 33.9261 42.4081C33.0372 42.4081 32.2965 43.1436 32.2965 44.0263C32.2965 44.909 33.1113 45.6445 34.0002 45.6445C34.9632 45.571 35.6298 44.8354 35.6298 43.9528Z" fill="#18212D"/>
<path d="M47.5557 26.888C47.1853 27.1822 46.7409 27.3293 46.2964 26.9615C45.852 26.5937 46.0001 26.1524 46.1483 25.7111C46.5186 25.4904 46.9631 25.3433 47.4075 25.7111C47.852 26.0788 47.7779 26.4466 47.5557 26.888Z" fill="#18212D"/>
</g>
<defs>
<clipPath id="clip0_3001_2175">
<rect width="44" height="42" fill="white" transform="translate(12.0002 11)"/>
</clipPath>
</defs>
</svg>
