<svg width="366" height="329" viewBox="0 0 366 329" fill="none" xmlns="http://www.w3.org/2000/svg">
<g clip-path="url(#clip0_373_2543)">
<path d="M8.9 0.099996C12.7 0.199997 15.6 3.19999 15.6 6.99999C15.5 10.8 12.4 13.9 8.69998 13.7C4.99998 13.6 1.89997 10.7 1.99997 6.7C2.09997 2.1 5.9 -0.100004 8.9 0.099996Z" fill="#D7D7D7"/>
<path d="M14.4 18.8C14.3 15.3 17.1999 12.4 20.6999 12.4C23.9999 12.4 26.8999 15.2 26.9999 18.6C27.0999 22.1 24.1999 25 20.6999 25C17.1999 25 14.5 22.3 14.4 18.8Z" fill="#D7D7D7"/>
<path d="M32.4999 0.600047C36.0999 0.600047 38.7999 3.30007 38.7999 6.90007C38.7999 10.3001 36.0999 13.1 32.6999 13.1C29.2999 13.2 26.2999 10.2001 26.2999 6.80006C26.2999 3.40006 29.0999 0.700047 32.4999 0.600047Z" fill="#D7D7D7"/>
<path d="M8.90002 24.4C12.4 24.4 15.1 27.3 15 30.9C14.9 34.3 12.1 37 8.70001 37C5.30001 36.9 2.5 34.1 2.5 30.8C2.5 27.2 5.40002 24.3 8.90002 24.4Z" fill="#D7D7D7"/>
<path d="M-6.80007 13.2C-4.50007 11.7 -2.30006 11.6 -0.100059 12.7C1.99994 13.7 3.29993 15.4 3.69993 17.7C4.09993 20.3 3.19992 22.5 1.09992 24.2C-1.00008 25.8 -3.40007 26 -5.80007 25C-6.40007 24.7 -6.80007 24.3 -6.80007 23.6C-6.80007 20.1 -6.80007 16.7 -6.80007 13.2Z" fill="#D7D7D7"/>
<path d="M-6.70006 37.5C-4.90006 36.3 -3.20008 36 -1.50008 36.5C0.899919 37.2 2.39994 38.7 2.89994 41.2C3.39994 43.7 2.69993 45.7 0.69993 47.3C-1.30007 48.9 -3.40006 49.1 -5.70006 48.1C-6.40006 47.8 -6.90008 47.3 -6.90008 46.5C-6.90008 44.1 -6.90008 41.8 -6.90008 39.4C-6.80008 38.8 -6.80006 38.2 -6.70006 37.5Z" fill="#D7D7D7"/>
<path d="M44.2 24.4001C41.1 24.3001 38.6 21.6 38.8 18.5C38.9 15.4 41.6 12.9 44.7 13.1C47.8 13.3 50.3 15.9 50.1 19C49.9 22.1 47.3 24.5001 44.2 24.4001Z" fill="#D7D7D7"/>
<path d="M20.4999 48.1C17.3999 48 14.8999 45.4 14.9999 42.3C15.0999 39.2 17.7 36.7 20.8 36.8C23.9 36.9 26.4 39.5 26.3 42.6C26.3 45.8 23.5999 48.2 20.4999 48.1Z" fill="#D7D7D7"/>
<path d="M3.20001 54.3C3.20001 51.1 5.70003 48.6 8.90003 48.7C12 48.7 14.5 51.3 14.5 54.4C14.5 57.5 12 60.1 8.80002 60C5.60002 60 3.20001 57.5 3.20001 54.3Z" fill="#D7D7D7"/>
<path d="M50.7 6.90005C50.7 3.70006 53.2 1.20004 56.3 1.20004C59.4 1.20004 62 3.70005 62 6.80005C62 9.90005 59.5 12.5 56.4 12.5C53.2 12.6 50.7 10.1001 50.7 6.90005Z" fill="#D7D7D7"/>
<path d="M26.9 30.6C26.9 27.4 29.3999 24.9 32.5999 25C35.6999 25 38.2 27.6 38.2 30.7C38.2 33.8 35.6999 36.4 32.4999 36.3C29.3999 36.3 26.9 33.7 26.9 30.6Z" fill="#D7D7D7"/>
<path d="M-6.80006 66.2C-6.80006 65.1 -6.80006 63.9 -6.80006 62.8C-6.80006 62.1 -6.40007 61.7 -5.90007 61.3C-3.70007 59.9 -0.500061 60.5 1.19994 62.5C2.99994 64.6 2.89993 67.9 1.09993 69.9C-0.800068 71.9 -3.90005 72.3 -6.10005 70.8C-6.60005 70.5 -6.80006 70 -6.80006 69.5C-6.80006 68.5 -6.80006 67.4 -6.80006 66.2Z" fill="#D7D7D7"/>
<path d="M56.4 35.7C53.5 35.8 51.2 33.5 51.2 30.6C51.2 27.8 53.3 25.5001 56.1 25.4001C59 25.3001 61.4 27.5001 61.5 30.4001C61.5 33.3001 59.3 35.7 56.4 35.7Z" fill="#D7D7D7"/>
<path d="M8.70001 83.2C5.80001 83.2 3.60001 80.8 3.60001 77.9C3.70001 75.1 5.90001 72.9 8.70001 72.9C11.6 72.9 13.9 75.2 13.9 78C13.9 80.9 11.6 83.3 8.70001 83.2Z" fill="#D7D7D7"/>
<path d="M85.2 7.00002C85.1 9.90002 82.7 12.1 79.9 12C77.1 11.9 74.9999 9.60004 74.9999 6.80004C74.9999 3.90004 77.3 1.60003 80.2 1.70003C83 1.80003 85.2 4.10002 85.2 7.00002Z" fill="#D7D7D7"/>
<path d="M37.7 54.3001C37.7 57.2001 35.3999 59.5001 32.4999 59.4001C29.6999 59.4001 27.4999 57.2001 27.4999 54.4001C27.3999 51.5001 29.6999 49.2 32.5999 49.1C35.3999 49.2 37.7 51.5001 37.7 54.3001Z" fill="#D7D7D7"/>
<path d="M44.3 47.6C41.4 47.6 39.2 45.2 39.2 42.3C39.3 39.5 41.7 37.2 44.6 37.3C47.3 37.4 49.6 39.7 49.6 42.5C49.6 45.3 47.2 47.7 44.3 47.6Z" fill="#D7D7D7"/>
<path d="M20.7 71.4C17.8 71.4 15.5 69 15.6 66.2C15.6 63.4 18.1 61.1 20.9 61.1C23.6 61.2 25.9 63.5 25.9 66.2C25.9 69 23.5 71.4 20.7 71.4Z" fill="#D7D7D7"/>
<path d="M67.9999 23.9C65.0999 23.8 62.8999 21.4 62.9999 18.6C63.0999 15.8 65.6 13.5 68.4 13.6C71.1 13.7 73.4 16.1 73.3 18.8C73.3 21.6 70.8999 23.9 67.9999 23.9Z" fill="#D7D7D7"/>
<path d="M-6.80001 89.9C-6.80001 89.1 -6.80001 88.3 -6.80001 87.5C-6.80001 86.5 -6.30002 85.9 -5.40002 85.5C-3.20002 84.4 -0.500022 84.9 0.999978 86.8C2.59998 88.8 2.49999 91.7 0.69999 93.5C-1.00001 95.3 -3.70001 95.6 -5.80001 94.2C-6.40001 93.8 -6.80001 93.2 -6.80001 92.5C-6.80001 91.6 -6.80001 90.7 -6.80001 89.9Z" fill="#D7D7D7"/>
<path d="M49.1 66.2C49.1 68.8 46.9 70.9 44.3 70.8C41.7 70.7 39.7 68.6 39.7 66C39.8 63.5 41.8 61.5 44.3 61.5C46.9 61.5 49.1 63.7 49.1 66.2Z" fill="#D7D7D7"/>
<path d="M56.4 59C53.8 59.1 51.7 56.9 51.7 54.4C51.7 51.9 53.6 49.8 56.1 49.7C58.7 49.6 60.9 51.6 60.9 54.2C61 56.8 59 58.9 56.4 59Z" fill="#D7D7D7"/>
<path d="M103.9 11.5C101.3 11.6 99.2 9.40004 99.2 6.90004C99.2 4.40004 101.1 2.30003 103.6 2.20003C106.2 2.10003 108.4 4.10003 108.4 6.70003C108.5 9.30003 106.4 11.5 103.9 11.5Z" fill="#D7D7D7"/>
<path d="M72.7999 42.6C72.6999 45.2 70.5999 47.2 67.9999 47.2C65.3999 47.1 63.3999 44.9 63.4999 42.4C63.5999 39.9 65.6999 37.9 68.1999 38C70.6999 37.8 72.8999 40 72.7999 42.6Z" fill="#D7D7D7"/>
<path d="M79.9 35.3C77.3 35.2 75.3 33 75.4 30.5C75.5 27.9 77.7 25.9 80.3 26.1C82.8 26.2 84.7 28.3 84.7 30.8C84.6 33.3 82.5 35.3 79.9 35.3Z" fill="#D7D7D7"/>
<path d="M25.4 89.9C25.4 92.5 23.3 94.6 20.7 94.6C18.2 94.6 16.2 92.6 16.1 90.1C16 87.5 18.1 85.3 20.6 85.3C23.1 85.2 25.3 87.4 25.4 89.9Z" fill="#D7D7D7"/>
<path d="M32.6999 82.7C30.0999 82.8 27.9999 80.7 27.9999 78.1C27.9999 75.6 29.8999 73.5 32.3999 73.4C34.9999 73.3 37.1999 75.3 37.2999 77.9C37.1999 80.5 35.1999 82.7 32.6999 82.7Z" fill="#D7D7D7"/>
<path d="M87.2 18.7C87.2 16.1 89.3 14 91.9 14C94.4 14 96.4 16.1 96.5 18.5C96.6 21 94.5 23.2 91.9 23.3C89.4 23.4 87.3 21.3 87.2 18.7Z" fill="#D7D7D7"/>
<path d="M4.20001 101.8C4.20001 99.2 6.30003 97.1 8.90003 97.1C11.5 97.1 13.5 99.2 13.5 101.8C13.5 104.3 11.4 106.3 9 106.4C6.4 106.5 4.20001 104.4 4.20001 101.8Z" fill="#D7D7D7"/>
<path d="M-6.89998 113.6C-6.89998 113.3 -6.89998 113.1 -6.89998 112.8C-6.89998 110.4 -5.59997 109.1 -3.19997 109C-1.39997 108.9 0.500023 110.1 1.20002 111.8C2.00002 113.6 1.50001 115.8 1.0593e-05 117.1C-1.39999 118.4 -3.49997 118.6 -5.19997 117.8C-6.29997 117.3 -6.99998 116.5 -6.89998 115.1C-6.79998 114.6 -6.79998 114.1 -6.89998 113.6Z" fill="#D7D7D7"/>
<path d="M64 66.3C64 64 65.7 62.1 68 62C70.3 61.9 72.4 63.9 72.4 66.3C72.4 68.6 70.5 70.4 68.2 70.4C65.8 70.4 64 68.6 64 66.3Z" fill="#D7D7D7"/>
<path d="M20.6 117.9C18.3 117.9 16.5 116.1 16.5 113.7C16.5 111.4 18.3 109.5 20.6 109.5C22.9 109.5 25 111.6 24.9 113.9C24.8 116.1 22.9 117.9 20.6 117.9Z" fill="#D7D7D7"/>
<path d="M44.5 94.1C42.1 94.1 40.3 92.4 40.2 90.1C40.1 87.7 42.1 85.7 44.4 85.7C46.6 85.7 48.6 87.7 48.6 89.9C48.7 92.2 46.8 94.1 44.5 94.1Z" fill="#D7D7D7"/>
<path d="M115.9 14.5C118.1 14.7 120 16.7 119.9 18.9C119.8 21.3 117.7 23 115.3 22.9C113 22.7 111.4 20.8 111.5 18.4C111.6 16.1 113.7 14.3 115.9 14.5Z" fill="#D7D7D7"/>
<path d="M91.7999 46.6C89.4999 46.5 87.6999 44.7 87.7999 42.3C87.7999 40 89.6999 38.1 91.9999 38.1C94.2999 38.1 96.3999 40.2 96.1999 42.5C95.9999 45 94.0999 46.7 91.7999 46.6Z" fill="#D7D7D7"/>
<path d="M36.7 101.7C36.7 104 35 105.9 32.7 106C30.4 106.1 28.3 104.1 28.3 101.7C28.3 99.4 30.1999 97.6 32.4999 97.5C34.8999 97.6 36.7 99.4 36.7 101.7Z" fill="#D7D7D7"/>
<path d="M127.6 11.1C125.4 11.2 123.4 9.30004 123.3 7.00004C123.2 4.70004 125 2.80005 127.3 2.70005C129.8 2.60005 131.7 4.40006 131.7 6.80006C131.7 9.20006 129.9 11 127.6 11.1Z" fill="#D7D7D7"/>
<path d="M56.4 82.3C54.2 82.4 52.2 80.5 52.1 78.2C52 75.9 53.8 74 56.1 73.9C58.6 73.8 60.5 75.6 60.5 78C60.5 80.4 58.7 82.2 56.4 82.3Z" fill="#D7D7D7"/>
<path d="M4.60002 125.6C4.60002 123.3 6.40002 121.4 8.70002 121.4C11.1 121.3 12.9 123.1 13 125.4C13.1 127.8 11.2 129.8 8.80003 129.8C6.60003 129.8 4.60002 127.9 4.60002 125.6Z" fill="#D7D7D7"/>
<path d="M103.8 34.8C101.6 34.8 99.6 32.9 99.6 30.6C99.5 28.2 101.5 26.3 104 26.3C106.3 26.4 108.1 28.2 108.1 30.5C107.9 33 106 34.8 103.8 34.8Z" fill="#D7D7D7"/>
<path d="M80 58.6C77.8 58.6 75.8 56.6001 75.8 54.4001C75.8 52.0001 77.8 50.1 80.2 50.2C82.5 50.3 84.3 52.1 84.2 54.5C84.1 56.7 82.3 58.6 80 58.6Z" fill="#D7D7D7"/>
<path d="M-7.00005 137.5C-7.00005 135.2 -6.30004 133.9 -3.80004 133.3C-1.90004 132.8 0.0999664 134 0.799966 135.9C1.59997 137.9 0.799972 140 -1.10003 141.1C-2.80003 142 -5.20004 141.6 -6.30004 140C-6.70004 139.3 -6.80005 138.4 -7.00005 137.5Z" fill="#D7D7D7"/>
<path d="M95.7 66.3001C95.6 68.4001 93.9 70.1001 91.7 69.9001C89.6 69.8001 88.2 68.2 88.2 66.1C88.2 64.1 89.9 62.4001 91.9 62.4001C94 62.4001 95.7 64.2001 95.7 66.3001Z" fill="#D7D7D7"/>
<path d="M44.2999 117.4C42.1999 117.4 40.6999 115.8 40.5999 113.7C40.5999 111.5 42.3 109.8 44.3999 109.9C46.3999 109.9 48.0999 111.6 48.0999 113.6C48.1999 115.8 46.4999 117.5 44.2999 117.4Z" fill="#D7D7D7"/>
<path d="M24.5 137.4C24.5 139.5 22.8 141.2 20.6 141.2C18.5 141.2 17 139.6 17 137.5C17 135.4 18.5 133.8 20.6 133.7C22.6 133.5 24.4 135.3 24.5 137.4Z" fill="#D7D7D7"/>
<path d="M68 93.7C65.9 93.6 64.4 92 64.4 89.9C64.4 87.7 66.1 86.1 68.3 86.1C70.3 86.2 71.9 87.9 71.9 89.9C71.9 92.1 70.2 93.7 68 93.7Z" fill="#D7D7D7"/>
<path d="M139.6 15C141.7 15.2 143.3 17.1001 143.1 19.2001C142.9 21.2001 141.1 22.7 139.1 22.5C136.9 22.4 135.4 20.6001 135.6 18.4001C135.8 16.3001 137.6 14.8 139.6 15Z" fill="#D7D7D7"/>
<path d="M111.9 42.5C111.9 40.3 113.6 38.6 115.7 38.7C117.7 38.8 119.4 40.4 119.4 42.4C119.4 44.5 117.7 46.2 115.5 46.2C113.5 46.2 111.9 44.6 111.9 42.5Z" fill="#D7D7D7"/>
<path d="M60 101.8C60 103.9 58.3 105.7 56.1 105.6C54.1 105.5 52.4 103.8 52.4 101.9C52.4 99.8 54.2 98.1 56.3 98.1C58.4 98.1 60 99.7 60 101.8Z" fill="#D7D7D7"/>
<path d="M79.9 81.9C77.8 81.8 76.1 80 76.2 77.9C76.3 75.9 78 74.3 80.1 74.4C82.2 74.4 83.9 76.2 83.8 78.4C83.6 80.3 81.9 81.9 79.9 81.9Z" fill="#D7D7D7"/>
<path d="M107.5 54.4001C107.5 56.5001 105.7 58.2001 103.5 58.1001C101.5 58.0001 99.9 56.2001 99.9 54.3001C99.9 52.2001 101.7 50.5001 103.9 50.6001C106 50.7001 107.5 52.4001 107.5 54.4001Z" fill="#D7D7D7"/>
<path d="M32.6 129.3C30.5 129.3 28.7 127.5 28.8 125.4C28.9 123.4 30.5 121.8 32.6 121.7C34.7 121.7 36.3 123.2 36.4 125.3C36.4 127.5 34.7 129.3 32.6 129.3Z" fill="#D7D7D7"/>
<path d="M4.99995 149.2C5.09995 147.1 6.89995 145.4 8.99995 145.6C10.9999 145.7 12.5999 147.4 12.4999 149.4C12.3999 151.5 10.5999 153.2 8.49995 153.1C6.59995 152.9 4.99995 151.2 4.99995 149.2Z" fill="#D7D7D7"/>
<path d="M131.2 30.6C131.2 32.7 129.5 34.5 127.3 34.4C125.3 34.3 123.6 32.6 123.6 30.7C123.6 28.6 125.4 26.9 127.5 26.9C129.6 26.9 131.2 28.5 131.2 30.6Z" fill="#D7D7D7"/>
<path d="M151.1 10.6C149 10.5 147.3 8.70005 147.4 6.60005C147.5 4.60005 149.2 3.00005 151.3 3.10005C153.4 3.10005 155.1 4.90005 155 7.10005C154.9 9.10005 153.1 10.7 151.1 10.6Z" fill="#D7D7D7"/>
<path d="M-6.70004 161.1C-6.70004 159.1 -5.00006 157.4 -3.00006 157.4C-1.00006 157.4 0.699952 159.1 0.699951 161.1C0.699951 163.2 -1.00004 164.9 -3.20004 164.8C-5.30004 164.8 -6.80004 163.2 -6.70004 161.1Z" fill="#D7D7D7"/>
<path d="M29.1999 149.3C29.1999 147.5 30.6999 146 32.4999 146C34.2999 146 35.7999 147.6 35.7999 149.3C35.7999 151.1 34.2999 152.6 32.3999 152.6C30.6999 152.6 29.1999 151.1 29.1999 149.3Z" fill="#D7D7D7"/>
<path d="M56.4 128.9C54.6 128.9 52.9999 127.5 52.9999 125.7C52.9999 123.9 54.4 122.3 56.2 122.3C58 122.2 59.6 123.7 59.7 125.5C59.7 127.2 58.2 128.8 56.4 128.9Z" fill="#D7D7D7"/>
<path d="M136.1 42.5C136.1 40.7 137.5 39.2 139.3 39.1C141.1 39.1 142.6 40.5 142.7 42.3C142.7 44.1 141.3 45.7 139.5 45.7C137.6 45.8 136.1 44.4 136.1 42.5Z" fill="#D7D7D7"/>
<path d="M8.89996 176.3C7.09996 176.4 5.49994 174.9 5.49994 173.1C5.49994 171.3 6.89995 169.7 8.69995 169.7C10.5 169.6 12.1 171.1 12.2 172.9C12.2 174.7 10.7 176.3 8.89996 176.3Z" fill="#D7D7D7"/>
<path d="M147.9 30.5C147.9 28.7 149.5 27.2 151.3 27.2C153.1 27.2 154.6 28.8 154.6 30.6C154.6 32.4 153 33.9 151.2 33.8C149.3 33.9 147.9 32.4 147.9 30.5Z" fill="#D7D7D7"/>
<path d="M159.8 18.6C159.9 16.8 161.4 15.3001 163.2 15.4001C165 15.5001 166.4 17.0001 166.4 18.8001C166.4 20.6001 164.8 22.1 163 22C161.2 22 159.7 20.5 159.8 18.6Z" fill="#D7D7D7"/>
<path d="M17.4 161.2C17.4 159.4 18.9 157.9 20.7 157.9C22.6 157.9 24 159.3 24 161.2C24 163 22.5 164.5 20.7 164.6C18.9 164.5 17.4 163 17.4 161.2Z" fill="#D7D7D7"/>
<path d="M64.8 113.7C64.8 111.9 66.3 110.4 68.1 110.4C70 110.4 71.4 111.8 71.4 113.7C71.4 115.5 70 117 68.1 117.1C66.4 117 64.9 115.5 64.8 113.7Z" fill="#D7D7D7"/>
<path d="M80 105.1C78.2 105.1 76.7 103.6 76.7 101.8C76.7 100 78.3 98.5 80 98.5C81.8 98.5 83.3 100.1 83.3 101.9C83.4 103.6 81.8 105.1 80 105.1Z" fill="#D7D7D7"/>
<path d="M103.9 81.4C102.1 81.4 100.5 80 100.5 78.2C100.5 76.4 101.9 74.8 103.7 74.8C105.5 74.7 107.1 76.2 107.2 78C107.2 79.8 105.7 81.3 103.9 81.4Z" fill="#D7D7D7"/>
<path d="M127.5 57.6C125.7 57.6 124.2 56.1 124.2 54.3C124.2 52.5 125.8 51 127.6 51C129.4 51 130.9 52.6 130.9 54.4C130.8 56.2 129.3 57.7 127.5 57.6Z" fill="#D7D7D7"/>
<path d="M118.9 66.2C118.9 68 117.4 69.5 115.6 69.5C113.8 69.5 112.3 68 112.3 66.2C112.3 64.4 113.8 62.9 115.6 62.9C117.5 62.9 118.9 64.3 118.9 66.2Z" fill="#D7D7D7"/>
<path d="M175.1 10.2C173.3 10.2 171.7 8.8 171.7 7C171.7 5.2 173.1 3.60001 174.9 3.60001C176.7 3.50001 178.3 5.00002 178.4 6.80002C178.4 8.50002 176.9 10.1 175.1 10.2Z" fill="#D7D7D7"/>
<path d="M88.6 90C88.5 88.2 90 86.6 91.8 86.6C93.7 86.5 95.1 88 95.2 89.8C95.3 91.6 93.8 93.2 92 93.2C90.2 93.3 88.6 91.9 88.6 90Z" fill="#D7D7D7"/>
<path d="M41.0999 137.5C41.0999 135.7 42.5 134.2 44.3 134.1C46.1 134.1 47.6 135.5 47.7 137.3C47.7 139.1 46.2999 140.7 44.4999 140.7C42.6999 140.8 41.0999 139.3 41.0999 137.5Z" fill="#D7D7D7"/>
<path d="M-6.40002 184.8C-6.40002 183 -4.90003 181.5 -3.00003 181.6C-1.20003 181.6 0.299984 183.1 0.199984 185C0.199984 186.8 -1.40001 188.3 -3.20001 188.3C-5.00001 188.2 -6.40002 186.7 -6.40002 184.8Z" fill="#D7D7D7"/>
<path d="M127.6 81C126 81.1 124.7 79.9 124.6 78.3C124.5 76.6 125.7 75.2 127.4 75.1C129 75 130.5 76.4 130.5 78.1C130.4 79.6 129.2 80.9 127.6 81Z" fill="#D7D7D7"/>
<path d="M142.3 66.2C142.3 67.9 140.9 69.3 139.3 69.2C137.8 69.1 136.5 67.8 136.4 66.3C136.4 64.7 137.8 63.3 139.4 63.4C141.1 63.3 142.2 64.5 142.3 66.2Z" fill="#D7D7D7"/>
<path d="M32.6 175.9C31 175.9 29.8 174.8 29.7 173.1C29.6 171.4 30.9 170 32.6 170C34.2 170 35.6 171.4 35.6 173.1C35.4 174.7 34.1 175.9 32.6 175.9Z" fill="#D7D7D7"/>
<path d="M174.9 33.5C173.3 33.5 172.1 32.3 172.1 30.7C172.1 29 173.4 27.6 175.1 27.7C176.6 27.7 177.9 29.1 178 30.6C178 32.2 176.6 33.5 174.9 33.5Z" fill="#D7D7D7"/>
<path d="M166 42.4C166 44.1 164.7 45.5 163.1 45.4C161.6 45.4 160.3 44 160.2 42.5C160.1 40.9 161.5 39.5 163.2 39.5C164.8 39.6 166 40.8 166 42.4Z" fill="#D7D7D7"/>
<path d="M44.3 158.3C45.9 158.3 47.2 159.4 47.3 161C47.4 162.7 46.1 164.1 44.5 164.2C42.9 164.2 41.4 162.8 41.5 161.2C41.5 159.6 42.8 158.3 44.3 158.3Z" fill="#D7D7D7"/>
<path d="M77.0999 125.5C77.0999 123.9 78.3999 122.6 79.8999 122.6C81.4999 122.5 82.9999 124 82.8999 125.6C82.8999 127.2 81.4999 128.5 79.7999 128.5C78.2999 128.4 77.0999 127.1 77.0999 125.5Z" fill="#D7D7D7"/>
<path d="M186.9 15.8C188.5 15.8 189.7 17 189.8 18.6C189.8 20.3 188.5 21.7 186.9 21.6C185.3 21.6 183.9 20.1 184 18.5C184 17 185.3 15.8 186.9 15.8Z" fill="#D7D7D7"/>
<path d="M68.2 134.5C69.8 134.5 71 135.7 71 137.3C71 139 69.7 140.4 68 140.3C66.5 140.3 65.2 138.9 65.1 137.4C65.1 135.9 66.5 134.5 68.2 134.5Z" fill="#D7D7D7"/>
<path d="M118.5 89.9C118.5 91.6 117.2 93 115.6 92.9C114.1 92.9 112.8 91.5001 112.7 90.0001C112.6 88.4001 114 87.0001 115.7 87.0001C117.3 87.1001 118.5 88.3 118.5 89.9Z" fill="#D7D7D7"/>
<path d="M91.9999 110.8C93.5999 110.8 94.7999 112 94.7999 113.6C94.7999 115.3 93.4999 116.7 91.7999 116.6C90.2999 116.6 88.9999 115.2 88.8999 113.7C88.8999 112.1 90.2999 110.8 91.9999 110.8Z" fill="#D7D7D7"/>
<path d="M103.8 104.7C102.2 104.7 100.9 103.6 100.9 102C100.8 100.3 102.1 98.9 103.7 98.9C105.3 98.9 106.7 100.3 106.7 101.9C106.7 103.4 105.4 104.7 103.8 104.7Z" fill="#D7D7D7"/>
<path d="M198.6 9.80005C197 9.80005 195.8 8.60005 195.8 6.90005C195.8 5.20005 197.2 3.90005 198.8 3.90005C200.3 4.00005 201.6 5.30005 201.6 6.80005C201.7 8.50005 200.3 9.80005 198.6 9.80005Z" fill="#D7D7D7"/>
<path d="M151.1 57.2C149.5 57.2 148.3 56 148.3 54.3C148.3 52.6 149.7 51.3 151.3 51.3C152.8 51.4 154.1 52.7 154.1 54.2C154.2 55.9 152.8 57.3 151.1 57.2Z" fill="#D7D7D7"/>
<path d="M56.3999 152.2C54.7999 152.2 53.4999 151.1 53.4999 149.5C53.3999 147.8 54.6999 146.4 56.2999 146.4C57.8999 146.4 59.2999 147.8 59.2999 149.4C59.1999 150.9 57.8999 152.2 56.3999 152.2Z" fill="#D7D7D7"/>
<path d="M8.69991 199.6C7.09991 199.5 5.89992 198.4 5.89992 196.7C5.89992 195 7.29992 193.7 8.89992 193.8C10.3999 193.9 11.6999 195.2 11.6999 196.7C11.7999 198.4 10.3999 199.7 8.69991 199.6Z" fill="#D7D7D7"/>
<path d="M20.9999 182C22.5999 182.2 23.6999 183.5 23.5999 185.1C23.4999 186.8 21.9999 188 20.3999 187.8C18.8999 187.6 17.6999 186.2 17.7999 184.7C17.8999 183.1 19.2999 181.8 20.9999 182Z" fill="#D7D7D7"/>
<path d="M106.3 125.7C106.3 127.2 105 128.3 103.6 128.2C102.3 128.1 101.2 126.9 101.1 125.6C101.1 124.2 102.3 123 103.8 123C105.3 123 106.4 124.1 106.3 125.7Z" fill="#D7D7D7"/>
<path d="M177.5 54.3C177.5 55.8 176.3 57 174.9 57C173.5 57 172.2 55.7 172.3 54.3C172.3 53 173.5 51.9 174.8 51.8C176.4 51.7 177.5 52.8 177.5 54.3Z" fill="#D7D7D7"/>
<path d="M184.3 42.6C184.3 41.1 185.4 39.9 186.9 39.9C188.3 39.9 189.6 41.2 189.6 42.6C189.6 43.9 188.5 45.1 187.1 45.2C185.5 45.1 184.3 44.1 184.3 42.6Z" fill="#D7D7D7"/>
<path d="M82.6 149.2C82.6 150.7 81.5 151.9 80 151.9C78.6 151.9 77.3 150.6 77.4 149.2C77.4 147.9 78.5 146.7 79.9 146.7C81.4 146.6 82.6 147.7 82.6 149.2Z" fill="#D7D7D7"/>
<path d="M165.7 66.2C165.7 67.6 164.4 68.8 163 68.8C161.5 68.8 160.4 67.6 160.5 66.1C160.6 64.8 161.7 63.6 163.1 63.6C164.5 63.6 165.8 64.9 165.7 66.2Z" fill="#D7D7D7"/>
<path d="M32.6 194.2C34.1 194.2 35.2 195.4 35.1 196.9C35 198.3 33.9 199.4 32.6 199.4C31.2 199.4 29.9 198.2 29.9 196.8C29.9 195.3 31.1 194.1 32.6 194.2Z" fill="#D7D7D7"/>
<path d="M130.1 101.8C130.1 103.3 128.9 104.5 127.5 104.4C126.1 104.4 124.9 103 124.9 101.6C125 100.3 126.1 99.2 127.5 99.2C129 99.2 130.1 100.3 130.1 101.8Z" fill="#D7D7D7"/>
<path d="M18.0999 208.6C18.0999 207.1 19.3999 205.9 20.7999 206C22.0999 206.1 23.2999 207.3 23.2999 208.6C23.2999 210 22.0999 211.2 20.6999 211.2C19.1999 211.2 18.0999 210.1 18.0999 208.6Z" fill="#D7D7D7"/>
<path d="M201.3 30.5C201.4 32 200.2 33.2 198.8 33.3C197.4 33.3 196.1 32 196.1 30.7C196.1 29.4 197.2 28.2 198.5 28.1C200 27.9 201.2 29 201.3 30.5Z" fill="#D7D7D7"/>
<path d="M136.8 89.9C136.8 88.4 138.1 87.2 139.5 87.3C140.8 87.4 142 88.6 142 89.9C142 91.3 140.8 92.5 139.4 92.6C137.9 92.5 136.8 91.4 136.8 89.9Z" fill="#D7D7D7"/>
<path d="M225 6.90006C225 8.40006 223.7 9.60003 222.3 9.50003C220.9 9.40003 219.7 8.00004 219.8 6.70004C219.9 5.40004 221.1 4.30005 222.4 4.30005C224 4.30005 225 5.40006 225 6.90006Z" fill="#D7D7D7"/>
<path d="M115.5 116.3C114 116.2 113 115 113.1 113.5C113.2 112.2 114.4 111.1 115.7 111.1C117.1 111.1 118.4 112.4 118.3 113.8C118.2 115.2 117 116.3 115.5 116.3Z" fill="#D7D7D7"/>
<path d="M41.8 184.8C41.8 183.3 43.1 182.1 44.5 182.2C45.8 182.3 47 183.5 47 184.8C47 186.2 45.8 187.4 44.4 187.5C42.9 187.5 41.8 186.3 41.8 184.8Z" fill="#D7D7D7"/>
<path d="M153.8 78C153.8 79.5 152.6 80.7 151.2 80.7C149.8 80.7 148.5 79.4 148.6 78C148.6 76.7 149.8 75.6 151.1 75.5C152.6 75.4 153.8 76.5 153.8 78Z" fill="#D7D7D7"/>
<path d="M11.4 220.6C11.3 222.1 10.1 223.2 8.60001 223.1C7.30001 223 6.20001 221.8 6.20001 220.5C6.20001 219.1 7.40002 217.9 8.90002 217.9C10.4 217.9 11.4 219.1 11.4 220.6Z" fill="#D7D7D7"/>
<path d="M89.3 137.3C89.3 135.8 90.6 134.7 92.1 134.8C93.4 134.9 94.6 136.1 94.6 137.4C94.6 138.8 93.4 140 91.9 140C90.4 140 89.3 138.8 89.3 137.3Z" fill="#D7D7D7"/>
<path d="M58.9 173C58.9 174.5 57.7 175.7 56.3 175.7C54.9 175.7 53.6 174.3 53.7 173C53.8 171.7 54.9 170.6 56.2 170.5C57.7 170.4 58.9 171.5 58.9 173Z" fill="#D7D7D7"/>
<path d="M68 163.7C66.5 163.6 65.5 162.4 65.6 160.9C65.7 159.6 66.9 158.5 68.2 158.5C69.6 158.5 70.9 159.9 70.8 161.2C70.7 162.7 69.4 163.8 68 163.7Z" fill="#D7D7D7"/>
<path d="M208 18.7C208 17.2 209.2 16 210.6 16.1C212 16.1 213.3 17.5 213.2 18.9C213.1 20.2 212 21.3 210.6 21.4C209.1 21.3 208 20.3 208 18.7Z" fill="#D7D7D7"/>
<path d="M186.9 68.5C185.7 68.5 184.7 67.6 184.6 66.4C184.5 65.1 185.5 64 186.8 64C188 64 189 64.9 189.1 66.1C189.2 67.3 188.2 68.4 186.9 68.5Z" fill="#D7D7D7"/>
<path d="M246.2 9.10004C244.9 9.10004 243.8 8.10005 243.9 6.80005C243.9 5.60005 244.9 4.60004 246.1 4.60004C247.4 4.60004 248.5 5.70005 248.4 6.90005C248.4 8.10005 247.4 9.10004 246.2 9.10004Z" fill="#D7D7D7"/>
<path d="M117.9 137.3C118 138.6 116.9 139.7 115.7 139.7C114.5 139.7 113.5 138.7 113.5 137.6C113.4 136.3 114.5 135.2 115.8 135.2C116.8 135.2 117.8 136.1 117.9 137.3Z" fill="#D7D7D7"/>
<path d="M175 80.3C173.7 80.3 172.6 79.3 172.7 78C172.7 76.8 173.7 75.9 174.9 75.8C176.2 75.8 177.3 76.9 177.2 78.1C177.2 79.3 176.2 80.3 175 80.3Z" fill="#D7D7D7"/>
<path d="M68.1 187.1C66.9 187.1 66 186.1 66 184.9C66 183.6 67 182.6 68.3 182.6C69.6 182.6 70.5 183.7 70.4 185.1C70.3 186.3 69.2 187.2 68.1 187.1Z" fill="#D7D7D7"/>
<path d="M165.3 90C165.3 91.3 164.2 92.3 162.9 92.2C161.7 92.1 160.8 91.1 160.8 89.9C160.8 88.6 161.9 87.6 163.2 87.7C164.5 87.8 165.4 88.8 165.3 90Z" fill="#D7D7D7"/>
<path d="M127.4 127.8C126.2 127.8 125.3 126.8 125.2 125.6C125.2 124.3 126.3 123.3 127.5 123.3C128.6 123.3 129.7 124.4 129.7 125.5C129.8 126.8 128.7 127.8 127.4 127.8Z" fill="#D7D7D7"/>
<path d="M20.6 234.6C19.4 234.6 18.5 233.6 18.5 232.4C18.5 231.1 19.5 230.1 20.8 230.1C22.1 230.2 23 231.2 22.9 232.6C22.8 233.8 21.8 234.7 20.6 234.6Z" fill="#D7D7D7"/>
<path d="M222.4 32.8C221.2 32.8 220.2 31.8 220.2 30.6C220.2 29.3 221.2 28.2 222.5 28.3C223.6 28.3 224.7 29.3 224.7 30.5C224.8 31.8 223.7 32.9 222.4 32.8Z" fill="#D7D7D7"/>
<path d="M30.2999 220.5C30.2999 219.2 31.3999 218.2 32.5999 218.2C33.6999 218.2 34.7999 219.3 34.7999 220.4C34.7999 221.7 33.6999 222.7 32.3999 222.7C31.2999 222.7 30.2999 221.7 30.2999 220.5Z" fill="#D7D7D7"/>
<path d="M139.4 115.9C138.2 115.9 137.2 115 137.1 113.8C137 112.5 138 111.4 139.3 111.4C140.5 111.4 141.5 112.3 141.6 113.5C141.7 114.8 140.7 115.9 139.4 115.9Z" fill="#D7D7D7"/>
<path d="M44.4 210.9C43.2 210.9 42.2 209.9 42.2 208.8C42.1 207.5 43.1999 206.4 44.4999 206.5C45.6999 206.5 46.6 207.4 46.7 208.6C46.7 209.8 45.7 210.9 44.4 210.9Z" fill="#D7D7D7"/>
<path d="M153.5 101.9C153.5 103.2 152.3 104.2 151 104.1C149.8 104 148.9 103 148.9 101.8C148.9 100.5 150.1 99.5 151.3 99.6C152.6 99.7 153.5 100.7 153.5 101.9Z" fill="#D7D7D7"/>
<path d="M79.9999 175.3C78.7999 175.3 77.8 174.3 77.8 173.2C77.8 171.9 78.7999 170.8 80.0999 170.8C81.1999 170.8 82.3 171.8 82.3 173C82.4 174.2 81.2999 175.3 79.9999 175.3Z" fill="#D7D7D7"/>
<path d="M89.7 161.1C89.7 159.8 90.8 158.8 92.1 158.9C93.3 159 94.2 160 94.1 161.2C94.1 162.5 93 163.5 91.7 163.4C90.5 163.3 89.6 162.3 89.7 161.1Z" fill="#D7D7D7"/>
<path d="M210.7 44.7C209.5 44.7 208.5 43.9 208.4 42.7C208.3 41.4 209.2 40.3 210.5 40.2C211.7 40.2 212.7 41.1 212.8 42.2C212.9 43.6 211.9 44.7 210.7 44.7Z" fill="#D7D7D7"/>
<path d="M53.9999 196.9C53.8999 195.6 54.9999 194.5 56.2999 194.5C57.3999 194.5 58.4999 195.5 58.4999 196.7C58.5999 197.8 57.5999 198.9 56.4999 199C55.1999 199.1 54.0999 198.1 53.9999 196.9Z" fill="#D7D7D7"/>
<path d="M236.5 18.6C236.5 19.9 235.5 21 234.2 21C233 21 232 20 232 18.8C232 17.5 233 16.4 234.3 16.5C235.5 16.5 236.5 17.4 236.5 18.6Z" fill="#D7D7D7"/>
<path d="M201 54.3001C201 55.4001 200.1 56.5 198.9 56.6C197.6 56.7 196.5 55.7001 196.5 54.4001C196.5 53.2001 197.4 52.2 198.6 52.1C199.8 52 200.9 53.0001 201 54.3001Z" fill="#D7D7D7"/>
<path d="M103.7 151.5C102.5 151.5 101.6 150.5 101.5 149.3C101.5 148 102.6 146.9 103.8 147C104.9 147 106 148.1 106 149.2C106.1 150.5 105 151.6 103.7 151.5Z" fill="#D7D7D7"/>
<path d="M8.90002 246.5C7.60002 246.5 6.5 245.5 6.6 244.2C6.6 243 7.60001 242 8.80001 242C10.1 242 11.2 243.1 11.1 244.3C11 245.5 10.1 246.5 8.90002 246.5Z" fill="#D7D7D7"/>
<path d="M186.8 91.9C185.7 91.9 184.8 91 184.8 89.9C184.8 88.8 185.7 87.9 186.8 87.9C187.8 87.9 188.8 88.9 188.8 89.9C188.9 91 187.9 91.9 186.8 91.9Z" fill="#D7D7D7"/>
<path d="M20.7 258.1C19.6 258.1 18.7 257.2 18.7 256.1C18.7 255 19.6 254.1 20.7 254.1C21.7 254.1 22.7 255.1 22.7 256.1C22.7 257.2 21.8 258.1 20.7 258.1Z" fill="#D7D7D7"/>
<path d="M68.2 210.6C67.1 210.6 66.2 209.7 66.2 208.6C66.2 207.5 67.1 206.6 68.2 206.6C69.2 206.6 70.2 207.6 70.2 208.6C70.2 209.7 69.3 210.6 68.2 210.6Z" fill="#D7D7D7"/>
<path d="M236.3 42.5C236.3 43.6 235.4 44.5 234.3 44.5C233.2 44.5 232.3 43.6 232.3 42.5C232.3 41.4 233.2 40.5 234.3 40.5C235.4 40.5 236.3 41.4 236.3 42.5Z" fill="#D7D7D7"/>
<path d="M258.1 20.7C257 20.7 256.1 19.8 256.1 18.7C256.1 17.6 257 16.7 258.1 16.7C259.1 16.7 260.1 17.6 260.2 18.7C260.1 19.8 259.2 20.7 258.1 20.7Z" fill="#D7D7D7"/>
<path d="M42.3999 232.3C42.4999 231.2 43.3999 230.3 44.4999 230.4C45.4999 230.5 46.4999 231.5 46.3999 232.5C46.2999 233.6 45.2999 234.4 44.2999 234.4C43.1999 234.3 42.3999 233.3 42.3999 232.3Z" fill="#D7D7D7"/>
<path d="M210.5 68.2C209.4 68.2 208.5 67.3 208.5 66.2C208.5 65.1 209.5 64.2 210.5 64.2C211.5 64.2 212.5 65.2 212.5 66.2C212.6 67.3 211.6 68.2 210.5 68.2Z" fill="#D7D7D7"/>
<path d="M165.1 113.8C165 114.9 164 115.7 162.9 115.7C161.8 115.6 161 114.7 161 113.6C161.1 112.5 162 111.6 163.1 111.7C164.3 111.7 165.2 112.8 165.1 113.8Z" fill="#D7D7D7"/>
<path d="M89.9 185C89.9 183.9 90.7 182.9 91.8 182.9C92.8 182.9 93.9 183.8 93.9 184.8C94 185.9 93.1 186.8 92 186.9C90.9 186.9 89.9 186.1 89.9 185Z" fill="#D7D7D7"/>
<path d="M115.6 163.1C114.5 163.1 113.6 162.2 113.6 161.1C113.6 160 114.5 159.1 115.6 159.1C116.6 159.1 117.6 160.1 117.6 161.1C117.7 162.2 116.7 163.1 115.6 163.1Z" fill="#D7D7D7"/>
<path d="M137.4 137.5C137.4 136.4 138.3 135.5 139.4 135.4C140.4 135.4 141.4 136.3 141.5 137.4C141.5 138.5 140.6 139.4 139.5 139.4C138.3 139.4 137.4 138.6 137.4 137.5Z" fill="#D7D7D7"/>
<path d="M54.2999 220.4C54.2999 219.3 55.2999 218.4 56.3999 218.5C57.4999 218.5 58.2999 219.4 58.2999 220.6C58.2999 221.7 57.2999 222.6 56.2999 222.5C55.0999 222.5 54.2999 221.5 54.2999 220.4Z" fill="#D7D7D7"/>
<path d="M224.4 54.3C224.4 55.4 223.5 56.3 222.4 56.3C221.3 56.3 220.4 55.4 220.4 54.3C220.4 53.2 221.3 52.3 222.4 52.3C223.6 52.3 224.4 53.2 224.4 54.3Z" fill="#D7D7D7"/>
<path d="M198.7 80.1C197.6 80.1 196.7 79.2 196.7 78.1C196.7 77 197.6 76.1 198.7 76.1C199.8 76.1 200.7 77 200.7 78.1C200.7 79.2 199.8 80.1 198.7 80.1Z" fill="#D7D7D7"/>
<path d="M32.7 246.3C31.7 246.4 30.7 245.5 30.6 244.4C30.5 243.3 31.4 242.4 32.5 242.3C33.6 242.2 34.5 243.1 34.6 244.2C34.6 245.2 33.7 246.2 32.7 246.3Z" fill="#D7D7D7"/>
<path d="M127.6 151.3C126.6 151.4 125.6 150.5 125.5 149.4C125.4 148.3 126.3 147.4 127.4 147.3C128.5 147.2 129.4 148.1 129.5 149.2C129.5 150.3 128.7 151.2 127.6 151.3Z" fill="#D7D7D7"/>
<path d="M248.2 30.6C248.2 31.7 247.3 32.6 246.2 32.6C245.1 32.6 244.2 31.7 244.2 30.6C244.2 29.5 245.1 28.6 246.2 28.6C247.3 28.6 248.1 29.5 248.2 30.6Z" fill="#D7D7D7"/>
<path d="M80 198.8C78.9 198.8 78 197.9 78 196.8C78 195.7 78.9 194.8 80 194.8C81.1 194.8 82 195.7 82 196.8C82 197.9 81.1 198.8 80 198.8Z" fill="#D7D7D7"/>
<path d="M149.2 125.6C149.2 124.5 150 123.6 151.1 123.6C152.2 123.6 153.1 124.4 153.1 125.5C153.1 126.6 152.3 127.5 151.2 127.6C150.2 127.6 149.3 126.7 149.2 125.6Z" fill="#D7D7D7"/>
<path d="M8.89995 270C7.89995 270 6.89994 269.1 6.79994 268C6.79994 266.9 7.59993 266 8.69994 266C9.79994 266 10.6999 266.8 10.6999 267.9C10.7999 269 9.99995 270 8.89995 270Z" fill="#D7D7D7"/>
<path d="M103.7 175C102.6 175 101.7 174.1 101.7 173C101.7 171.9 102.6 171 103.7 171C104.8 171 105.7 171.9 105.7 173C105.7 174.1 104.8 175 103.7 175Z" fill="#D7D7D7"/>
<path d="M269.9 8.90002C268.8 8.90002 267.9 8.00002 267.9 6.90002C267.9 5.80002 268.8 4.90002 269.9 4.90002C271 4.90002 271.9 5.70002 271.9 6.90002C271.9 8.00002 271 8.90002 269.9 8.90002Z" fill="#D7D7D7"/>
<path d="M175.1 103.8C174.1 103.9 173.1 103 173 101.9C172.9 100.8 173.8 99.9 174.9 99.8C176 99.7 176.9 100.6 177 101.7C177 102.8 176.2 103.8 175.1 103.8Z" fill="#D7D7D7"/>
<path d="M127.5 174.7C126.6 174.7 125.8 174 125.8 173.1C125.8 172.1 126.6 171.2 127.6 171.3C128.5 171.4 129.2 172.2 129.2 173.1C129.2 174 128.4 174.7 127.5 174.7Z" fill="#D7D7D7"/>
<path d="M293.5 8.60004C292.6 8.50004 291.9 7.80005 291.9 6.80005C291.9 5.90005 292.7 5.10004 293.6 5.10004C294.6 5.10004 295.5 6.10003 295.3 7.00003C295.3 7.90003 294.4 8.60004 293.5 8.60004Z" fill="#D7D7D7"/>
<path d="M198.5 103.5C197.6 103.4 196.9 102.5 197 101.6C197.1 100.6 198.1 99.9001 199.1 100.1C200 100.3 200.6 101.2 200.5 102.1C200.2 103 199.4 103.6 198.5 103.5Z" fill="#D7D7D7"/>
<path d="M268.2 30.6C268.2 29.7 269 28.9001 269.9 28.9001C270.8 28.9001 271.6 29.7 271.7 30.5C271.7 31.5 270.8 32.4001 269.8 32.3001C268.9 32.3001 268.2 31.5 268.2 30.6Z" fill="#D7D7D7"/>
<path d="M102 196.7C102 195.8 102.8 195 103.7 195C104.6 195 105.4 195.8 105.5 196.6C105.6 197.6 104.7 198.5 103.7 198.4C102.7 198.4 102 197.6 102 196.7Z" fill="#D7D7D7"/>
<path d="M175 127.3C174.1 127.3 173.3 126.6 173.3 125.7C173.3 124.7 174.1 123.8 175.1 123.9C176 124 176.7 124.8 176.7 125.7C176.7 126.5 175.9 127.3 175 127.3Z" fill="#D7D7D7"/>
<path d="M8.70001 293.4C7.80001 293.3 7.10001 292.5 7.10001 291.6C7.10001 290.7 7.90002 289.9 8.80002 289.9C9.80002 289.9 10.7 290.9 10.5 291.8C10.4 292.8 9.60001 293.5 8.70001 293.4Z" fill="#D7D7D7"/>
<path d="M222.2 79.8C221.3 79.7 220.6 78.8 220.7 77.9C220.8 76.9 221.8 76.2 222.8 76.4C223.7 76.6 224.3 77.5 224.2 78.4C224 79.3 223.1 79.9 222.2 79.8Z" fill="#D7D7D7"/>
<path d="M247.9 54.2C248 55.1 247.2 55.9 246.4 56C245.4 56.1 244.5 55.3 244.5 54.3C244.5 53.4 245.3 52.6 246.2 52.6C247 52.6 247.8 53.3 247.9 54.2Z" fill="#D7D7D7"/>
<path d="M54.6 244.2C54.6 243.3 55.4 242.5 56.3 242.5C57.2 242.5 58 243.3 58.1 244.1C58.1 245.1 57.2 246 56.2 245.9C55.3 245.9 54.5 245.1 54.6 244.2Z" fill="#D7D7D7"/>
<path d="M79.9 222.2C79 222.1 78.3 221.4 78.3 220.5C78.3 219.6 79.0999 218.8 79.9999 218.8C80.9999 218.8 81.9 219.8 81.7 220.7C81.6 221.6 80.8 222.3 79.9 222.2Z" fill="#D7D7D7"/>
<path d="M34.2999 268C34.2999 268.9 33.4999 269.7 32.5999 269.7C31.5999 269.7 30.7999 268.8 30.8999 267.8C30.9999 266.9 31.7999 266.2 32.6999 266.2C33.4999 266.3 34.2999 267.1 34.2999 268Z" fill="#D7D7D7"/>
<path d="M151.2 151C150.3 151 149.5 150.3 149.5 149.4C149.5 148.4 150.3 147.5 151.3 147.6C152.2 147.7 152.9 148.5 152.9 149.4C152.9 150.2 152.1 151 151.2 151Z" fill="#D7D7D7"/>
<path d="M280.1 18.6C280.1 17.7 280.9 17 281.8 17C282.8 17 283.6 17.9 283.5 18.9C283.4 19.8 282.6 20.5 281.7 20.4C280.7 20.4 280 19.6 280.1 18.6Z" fill="#D7D7D7"/>
<path d="M258 44.2C257.1 44.2 256.4 43.4 256.4 42.4C256.4 41.5 257.2 40.7 258.1 40.7C259.1 40.7 259.9 41.5 259.8 42.6C259.7 43.5 258.8 44.2 258 44.2Z" fill="#D7D7D7"/>
<path d="M212.3 89.8C212.4 90.7 211.7 91.5 210.8 91.6C209.9 91.7 209.1 91.1 209 90.1C208.9 89.1 209.6 88.2 210.6 88.1C211.5 88.2 212.2 88.9 212.3 89.8Z" fill="#D7D7D7"/>
<path d="M186.7 115.4C185.8 115.4 185.1 114.6 185.1 113.6C185.1 112.7 185.9 111.9 186.8 111.9C187.8 111.9 188.6 112.7 188.5 113.8C188.4 114.7 187.6 115.4 186.7 115.4Z" fill="#D7D7D7"/>
<path d="M163 139.1C162.1 139.1 161.4 138.3 161.4 137.3C161.4 136.4 162.2 135.6 163.1 135.6C164.1 135.6 164.9 136.4 164.8 137.5C164.7 138.5 163.9 139.2 163 139.1Z" fill="#D7D7D7"/>
<path d="M236 66.3C235.9 67.2 235.1 67.9 234.2 67.9C233.3 67.9 232.6 67.1 232.6 66.2C232.6 65.2 233.5 64.4 234.5 64.5C235.4 64.6 236.1 65.4 236 66.3Z" fill="#D7D7D7"/>
<path d="M139.3 162.9C138.4 162.9 137.7 162.1 137.7 161.2C137.7 160.3 138.5 159.5 139.4 159.5C140.4 159.5 141.2 160.3 141.1 161.4C141 162.2 140.2 162.9 139.3 162.9Z" fill="#D7D7D7"/>
<path d="M115.7 186.6C114.8 186.6 114 185.9 114 185C114 184.1 114.6 183.3 115.5 183.2C116.5 183.1 117.4 183.9 117.4 184.9C117.3 185.8 116.6 186.6 115.7 186.6Z" fill="#D7D7D7"/>
<path d="M93.6 208.7C93.6 209.6 92.8 210.4 91.9 210.4C91 210.4 90.2 209.7 90.2 208.8C90.2 207.8 91 206.9 92 207C92.9 207 93.6 207.7 93.6 208.7Z" fill="#D7D7D7"/>
<path d="M69.9 232.4C69.9 233.3 69.2 234.1 68.3 234.1C67.4 234.1 66.6 233.4 66.5 232.5C66.4 231.5 67.3 230.6 68.3 230.7C69.2 230.7 69.9 231.4 69.9 232.4Z" fill="#D7D7D7"/>
<path d="M46.1 256.1C46.1 257 45.3 257.8 44.4 257.8C43.5 257.8 42.7 257.1 42.7 256.2C42.7 255.2 43.5 254.3 44.5 254.4C45.5 254.5 46.1 255.2 46.1 256.1Z" fill="#D7D7D7"/>
<path d="M20.6 281.6C19.7 281.6 19 280.8 19 279.8C19 278.9 19.8 278.1 20.7 278.1C21.7 278.1 22.5 278.9 22.4 280C22.3 280.9 21.5 281.6 20.6 281.6Z" fill="#D7D7D7"/>
<path d="M164.6 161.2C164.5 162 163.8 162.6 163 162.6C162.2 162.6 161.5 161.9 161.6 161C161.7 160.2 162.4 159.5 163.2 159.6C164 159.7 164.7 160.5 164.6 161.2Z" fill="#D7D7D7"/>
<path d="M92 233.8C91.1 233.8 90.5 233.2 90.4 232.4C90.4 231.6 91 230.9 91.8 230.8C92.6 230.8 93.3 231.5 93.4 232.3C93.5 233.1 92.8 233.8 92 233.8Z" fill="#D7D7D7"/>
<path d="M127.5 198.3C126.7 198.3 126 197.5 126 196.7C126 195.9 126.7 195.2 127.5 195.3C128.4 195.3 128.9 195.9 128.9 196.8C128.9 197.6 128.3 198.3 127.5 198.3Z" fill="#D7D7D7"/>
<path d="M269.9 55.9C269.1 55.9 268.4 55.1 268.4 54.3C268.4 53.5 269.1 52.8 269.9 52.9C270.8 52.9 271.3 53.5 271.3 54.4C271.4 55.2 270.7 55.9 269.9 55.9Z" fill="#D7D7D7"/>
<path d="M80 245.7C79.2 245.7 78.5 244.9 78.5 244.1C78.5 243.3 79.2 242.6 80 242.7C80.9 242.7 81.4 243.3 81.4 244.2C81.5 245.1 80.8 245.8 80 245.7Z" fill="#D7D7D7"/>
<path d="M234.3 91.4C233.4 91.4 232.8 90.7 232.8 89.9C232.8 89.1 233.5 88.4 234.3 88.4C235.1 88.4 235.8 89.2 235.8 89.9C235.8 90.7 235.1 91.4 234.3 91.4Z" fill="#D7D7D7"/>
<path d="M200.2 125.4C200.2 126.2 199.6 127 198.8 127C198.1 127.1 197.3 126.4 197.2 125.6C197.1 124.8 197.8 124.1 198.6 124C199.5 124 200.1 124.6 200.2 125.4Z" fill="#D7D7D7"/>
<path d="M305.6 20.2C304.8 20.3 304.1 19.6 304 18.8C304 18 304.6 17.2 305.4 17.2C306.1 17.2 306.9 17.9 307 18.6C307.1 19.4 306.4 20.2 305.6 20.2Z" fill="#D7D7D7"/>
<path d="M103.8 222C103 222 102.3 221.3 102.3 220.5C102.3 219.7 103 219 103.8 219C104.7 219 105.3 219.6 105.3 220.5C105.2 221.3 104.6 222 103.8 222Z" fill="#D7D7D7"/>
<path d="M280.3 42.6C280.3 41.8 280.9 41 281.7 41C282.5 41 283.2 41.7 283.3 42.4C283.4 43.2 282.7 43.9 281.9 44C281 44 280.3 43.4 280.3 42.6Z" fill="#D7D7D7"/>
<path d="M22.2 303.5C22.2 304.3 21.5 305 20.7 305C19.8 305 19.2 304.4 19.2 303.6C19.2 302.8 19.9 302.1 20.7 302C21.4 302 22.2 302.8 22.2 303.5Z" fill="#D7D7D7"/>
<path d="M176.4 149.2C176.5 150 175.8 150.8 175 150.8C174.3 150.9 173.5 150.2 173.4 149.4C173.3 148.6 174 147.9 174.8 147.8C175.7 147.8 176.4 148.3 176.4 149.2Z" fill="#D7D7D7"/>
<path d="M152.7 172.9C152.7 173.7 152.1 174.5 151.3 174.5C150.6 174.6 149.8 173.9 149.7 173.1C149.6 172.3 150.3 171.6 151.1 171.5C152 171.5 152.6 172.1 152.7 172.9Z" fill="#D7D7D7"/>
<path d="M34 291.6C34 292.4 33.4 293.2 32.6 293.2C31.9 293.3 31.1 292.6 31 291.8C30.9 291 31.6 290.3 32.4 290.2C33.3 290.2 34 290.7 34 291.6Z" fill="#D7D7D7"/>
<path d="M293.5 32.1C292.7 32 292 31.3 292.1 30.5C292.2 29.7 292.9 29.1 293.7 29.1C294.5 29.2 295.1 29.8 295.1 30.7C295.1 31.5 294.3 32.2 293.5 32.1Z" fill="#D7D7D7"/>
<path d="M114.1 208.6C114.1 207.8 114.9 207.1 115.6 207.1C116.4 207.1 117.1 207.9 117.1 208.7C117.1 209.5 116.3 210.1 115.5 210.1C114.7 210.1 114.1 209.4 114.1 208.6Z" fill="#D7D7D7"/>
<path d="M8.79993 317C7.99993 317 7.29993 316.3 7.29993 315.5C7.29993 314.7 7.89993 314 8.79993 314C9.69993 314 10.2999 314.6 10.2999 315.5C10.2999 316.2 9.59993 316.9 8.79993 317Z" fill="#D7D7D7"/>
<path d="M317.3 8.40002C316.5 8.40002 315.8 7.60002 315.9 6.80002C315.9 6.00002 316.7 5.40002 317.5 5.40002C318.3 5.40002 318.9 6.1 318.9 7C318.8 7.8 318.1 8.40002 317.3 8.40002Z" fill="#D7D7D7"/>
<path d="M140.9 184.9C140.9 185.7 140.2 186.4 139.4 186.4C138.5 186.4 137.9 185.8 137.9 184.9C137.9 184.1 138.6 183.4 139.4 183.4C140.1 183.4 140.9 184.1 140.9 184.9Z" fill="#D7D7D7"/>
<path d="M66.7 256.2C66.7 255.4 67.2999 254.7 68.0999 254.6C68.8999 254.6 69.6 255.3 69.7 256.1C69.7 256.9 69.1 257.6 68.2 257.6C67.4 257.6 66.7 257 66.7 256.2Z" fill="#D7D7D7"/>
<path d="M212.1 113.6C212.1 114.4 211.4 115.1 210.6 115.1C209.7 115.1 209.1 114.5 209.1 113.7C209.1 112.9 209.8 112.2 210.6 112.1C211.3 112.1 212.1 112.9 212.1 113.6Z" fill="#D7D7D7"/>
<path d="M220.9 101.9C220.9 101.1 221.5 100.4 222.3 100.4C223.2 100.4 223.8 101 223.8 101.8C223.8 102.6 223.2 103.3 222.4 103.4C221.7 103.4 221 102.7 220.9 101.9Z" fill="#D7D7D7"/>
<path d="M188.4 137.4C188.4 138.2 187.7 138.9 186.9 138.9C186 138.9 185.4 138.3 185.4 137.5C185.4 136.7 186.1 136 186.9 135.9C187.6 135.9 188.3 136.6 188.4 137.4Z" fill="#D7D7D7"/>
<path d="M44.3 281.3C43.5 281.3 42.8 280.6 42.9 279.7C42.9 278.9 43.7 278.2 44.5 278.3C45.3 278.4 46 279.1 46 279.9C45.9 280.7 45.1 281.4 44.3 281.3Z" fill="#D7D7D7"/>
<path d="M56.2999 269.5C55.4999 269.5 54.7999 268.8 54.7999 268C54.7999 267.2 55.3999 266.5 56.2999 266.5C57.1999 266.5 57.7999 267.1 57.7999 268C57.7999 268.8 57.0999 269.5 56.2999 269.5Z" fill="#D7D7D7"/>
<path d="M258.2 64.7C259 64.8 259.7 65.6 259.6 66.3C259.5 67.1 258.8 67.7 258 67.7C257.2 67.7 256.6 67 256.6 66.1C256.6 65.3 257.4 64.6 258.2 64.7Z" fill="#D7D7D7"/>
<path d="M246.2 79.6C245.4 79.6 244.7 78.9 244.7 78.1C244.7 77.3 245.3 76.6 246.2 76.6C247.1 76.6 247.7 77.2 247.7 78C247.7 78.9 247 79.6 246.2 79.6Z" fill="#D7D7D7"/>
<path d="M329.3 20C328.6 20 328 19.3 328.1 18.6C328.1 18 328.7 17.5 329.3 17.5C330 17.5 330.6 18.1 330.5 18.9C330.4 19.5 329.8 20 329.3 20Z" fill="#D7D7D7"/>
<path d="M235.5 113.5C235.6 114.3 235 114.9 234.3 114.9C233.7 114.9 233.2 114.4 233.1 113.8C233 113.1 233.6 112.4 234.3 112.4C234.9 112.4 235.4 112.9 235.5 113.5Z" fill="#D7D7D7"/>
<path d="M281.8 67.5C281.1 67.5 280.5 66.8 280.6 66.1C280.6 65.5 281.2 65 281.8 65C282.5 65 283.1 65.6 283 66.4C282.9 66.9 282.4 67.5 281.8 67.5Z" fill="#D7D7D7"/>
<path d="M305.6 41.3C306.2 41.3 306.7 41.9 306.7 42.5C306.7 43.2 306 43.8 305.4 43.8C304.8 43.7 304.3 43.1 304.3 42.6C304.2 41.8 304.9 41.2 305.6 41.3Z" fill="#D7D7D7"/>
<path d="M114.4 232.2C114.4 231.6 115 231.1 115.6 231.1C116.4 231.1 116.9 231.7 116.8 232.5C116.7 233.1 116.2 233.6 115.6 233.6C114.9 233.6 114.3 232.9 114.4 232.2Z" fill="#D7D7D7"/>
<path d="M68.0999 281.1C67.3999 281.1 66.7999 280.4 66.8999 279.7C66.9999 279.1 67.4999 278.6 68.0999 278.6C68.8999 278.6 69.3999 279.2 69.2999 280C69.2999 280.6 68.6999 281.1 68.0999 281.1Z" fill="#D7D7D7"/>
<path d="M210.6 138.7C209.9 138.7 209.3 138 209.4 137.3C209.5 136.7 210 136.2 210.6 136.2C211.4 136.2 211.9 136.8 211.8 137.6C211.7 138.2 211.1 138.7 210.6 138.7Z" fill="#D7D7D7"/>
<path d="M187 162.4C186.3 162.5 185.6 161.8 185.6 161.1C185.6 160.5 186.1 160 186.7 159.9C187.4 159.8 187.9 160.2 188 160.9C188.1 161.6 187.6 162.3 187 162.4Z" fill="#D7D7D7"/>
<path d="M21.8999 327.2C21.9999 327.9 21.3999 328.6 20.6999 328.6C20.0999 328.6 19.5999 328.1 19.4999 327.5C19.3999 326.8 19.9999 326.1 20.6999 326.1C21.2999 326.1 21.7999 326.5 21.8999 327.2Z" fill="#D7D7D7"/>
<path d="M44.5 302.4C45.1 302.4 45.6 303 45.6 303.6C45.6 304.3 44.9 304.9 44.3 304.9C43.7 304.8 43.2 304.2 43.2 303.7C43.1 302.9 43.8 302.3 44.5 302.4Z" fill="#D7D7D7"/>
<path d="M259.3 89.9001C259.3 90.5001 258.8 91.1001 258.2 91.2001C257.5 91.3001 256.8 90.7001 256.8 90.0001C256.8 89.3001 257.4 88.7001 258.2 88.8001C258.8 88.8001 259.3 89.3001 259.3 89.9001Z" fill="#D7D7D7"/>
<path d="M93.1 256.1C93.1 256.7 92.6 257.3 92 257.4C91.3 257.5 90.6 256.9 90.6 256.2C90.6 255.5 91.2 254.9 92 255C92.7 254.9 93.1 255.4 93.1 256.1Z" fill="#D7D7D7"/>
<path d="M138.1 208.5C138.2 207.9 138.7 207.4 139.3 207.4C140.1 207.4 140.6 208 140.5 208.8C140.4 209.4 139.9 209.9 139.3 209.9C138.7 209.9 138.1 209.2 138.1 208.5Z" fill="#D7D7D7"/>
<path d="M164.3 184.8C164.4 185.5 163.8 186.2 163.1 186.2C162.5 186.2 162 185.7 161.9 185.1C161.8 184.4 162.4 183.7 163.1 183.7C163.7 183.7 164.2 184.1 164.3 184.8Z" fill="#D7D7D7"/>
<path d="M269.8 79.3C269.2 79.3 268.7 78.7 268.7 78.1C268.7 77.4 269.4 76.8 270.1 76.8C270.7 76.9 271.2 77.5 271.3 78C271.2 78.7 270.5 79.3 269.8 79.3Z" fill="#D7D7D7"/>
<path d="M222.3 126.8C221.7 126.8 221.2 126.2 221.2 125.6C221.2 124.9 221.9 124.3 222.5 124.3C223.1 124.4 223.6 125 223.7 125.5C223.7 126.2 223.1 126.8 222.3 126.8Z" fill="#D7D7D7"/>
<path d="M31.2999 315.4C31.2999 314.8 31.7999 314.2 32.3999 314.2C33.0999 314.1 33.7999 314.8 33.7999 315.4C33.7999 316.1 33.0999 316.7 32.3999 316.6C31.7999 316.6 31.2999 316.1 31.2999 315.4Z" fill="#D7D7D7"/>
<path d="M318.7 30.7001C318.6 31.4001 317.9 31.9001 317.2 31.8001C316.6 31.7001 316.2 31.1 316.3 30.5C316.4 29.9 317 29.4001 317.5 29.4001C318.1 29.3001 318.7 30.1001 318.7 30.7001Z" fill="#D7D7D7"/>
<path d="M152.5 196.8C152.5 197.4 152 197.9 151.3 198C150.6 198.1 149.9 197.5 149.9 196.8C149.9 196.2 150.4 195.6 151 195.6C151.8 195.5 152.5 196.1 152.5 196.8Z" fill="#D7D7D7"/>
<path d="M127.5 221.7C126.9 221.7 126.3 221.2 126.3 220.6C126.2 219.9 126.9 219.2 127.5 219.2C128.2 219.2 128.8 219.9 128.7 220.6C128.7 221.2 128.1 221.7 127.5 221.7Z" fill="#D7D7D7"/>
<path d="M176.2 173C176.2 173.6 175.7 174.1 175 174.2C174.3 174.3 173.6 173.7 173.6 173C173.6 172.4 174.1 171.8 174.7 171.8C175.5 171.7 176.2 172.4 176.2 173Z" fill="#D7D7D7"/>
<path d="M78.8 268.1C78.7 267.4 79.3 266.7 80 266.7C80.6 266.7 81.2 267.3 81.3 267.8C81.4 268.5 80.8 269.1 80 269.2C79.4 269.2 78.9 268.7 78.8 268.1Z" fill="#D7D7D7"/>
<path d="M57.4999 291.8C57.3999 292.5 56.6999 293 55.9999 292.9C55.3999 292.8 54.9999 292.2 55.0999 291.6C55.1999 291 55.7999 290.5 56.2999 290.5C56.9999 290.5 57.5999 291.2 57.4999 291.8Z" fill="#D7D7D7"/>
<path d="M198.6 150.5C198 150.5 197.5 149.9 197.5 149.3C197.5 148.6 198.2 148 198.8 148C199.4 148.1 199.9 148.7 200 149.2C200 149.9 199.3 150.5 198.6 150.5Z" fill="#D7D7D7"/>
<path d="M105 244.2C105 244.8 104.5 245.3 103.8 245.4C103.1 245.5 102.4 244.9 102.4 244.2C102.4 243.6 102.9 243 103.5 243C104.3 242.9 105 243.6 105 244.2Z" fill="#D7D7D7"/>
<path d="M246.1 103C245.5 103 245 102.4 245 101.8C245 101.1 245.7 100.5 246.3 100.5C246.9 100.6 247.4 101.2 247.5 101.7C247.5 102.5 246.8 103.1 246.1 103Z" fill="#D7D7D7"/>
<path d="M293.5 55.5C292.9 55.5 292.4 54.9 292.4 54.3C292.4 53.6 293.1 53 293.8 53C294.4 53.1 294.9 53.7 295 54.2C295 55 294.3 55.6 293.5 55.5Z" fill="#D7D7D7"/>
<path d="M234.4 138.4C233.7 138.3 233.2 137.7 233.4 137.3C233.6 137 233.9 136.7 234.3 136.6C234.8 136.5 235.4 137.1 235.2 137.6C235.1 137.9 234.6 138.1 234.4 138.4Z" fill="#D7D7D7"/>
<path d="M115.8 257C115 257 114.5 256.5 114.7 256C114.8 255.7 115.2 255.3 115.5 255.2C115.9 255 116.6 255.6 116.5 256.1C116.4 256.5 116 256.8 115.8 257Z" fill="#D7D7D7"/>
<path d="M43.4999 327.3C43.4999 326.8 43.9999 326.3 44.4999 326.4C44.9999 326.4 45.5 327 45.4 327.4C45.3 327.8 44.9999 328.1 44.4999 328.2C43.9999 328.3 43.4999 327.9 43.4999 327.3Z" fill="#D7D7D7"/>
<path d="M305.7 67.1C304.9 67 304.5 66.5 304.7 66C304.8 65.7 305.2 65.4 305.6 65.3C306.1 65.2 306.7 65.8 306.5 66.2C306.3 66.6 305.9 66.9 305.7 67.1Z" fill="#D7D7D7"/>
<path d="M329.5 43.4C328.7 43.4 328.3 43 328.3 42.4C328.3 41.9 328.7 41.6 329.1 41.5C329.6 41.4 330.2 41.9 330.1 42.3C330.1 42.8 329.7 43.1 329.5 43.4Z" fill="#D7D7D7"/>
<path d="M211.5 160.8C211.6 161.5 211.1 162 210.6 162C210.1 162 209.8 161.7 209.7 161.3C209.6 160.9 210 160.1 210.4 160.2C210.8 160.3 211.2 160.7 211.5 160.8Z" fill="#D7D7D7"/>
<path d="M258.3 114.6C257.5 114.6 257.1 114.1 257.2 113.6C257.2 113.1 257.6 112.8 258 112.8C258.5 112.7 259.1 113.2 259 113.7C258.8 114 258.4 114.4 258.3 114.6Z" fill="#D7D7D7"/>
<path d="M92.0999 280.7C91.2999 280.7 90.8999 280.3 90.8999 279.7C90.8999 279.2 91.2999 278.9 91.6999 278.8C92.1999 278.7 92.7999 279.2 92.6999 279.6C92.6999 280.1 92.2999 280.5 92.0999 280.7Z" fill="#D7D7D7"/>
<path d="M353.1 19.7C352.4 19.6 351.9 19 352.1 18.6C352.3 18.3 352.6 18 353 17.9C353.5 17.8 354.1 18.4 353.9 18.9C353.7 19.2 353.3 19.5 353.1 19.7Z" fill="#D7D7D7"/>
<path d="M68.4 304.5C67.6 304.5 67.1999 304 67.2999 303.5C67.2999 303 67.6999 302.7 68.0999 302.7C68.5999 302.6 69.1999 303.1 69.0999 303.6C68.8999 303.9 68.5 304.2 68.4 304.5Z" fill="#D7D7D7"/>
<path d="M68.4 328.2C67.6 328.2 67.2 327.8 67.2 327.3C67.2 326.8 67.5 326.5 67.9 326.4C68.3 326.3 69 326.8 69 327.2C69 327.6 68.6 328 68.4 328.2Z" fill="#D7D7D7"/>
<path d="M185.9 184.9C185.9 184.4 186.3 183.9 186.8 183.9C187.3 183.9 187.9 184.5 187.7 184.9C187.6 185.2 187.2 185.6 186.9 185.7C186.4 185.9 185.9 185.5 185.9 184.9Z" fill="#D7D7D7"/>
<path d="M138.5 232.4C138.5 231.9 139 231.4 139.5 231.5C140 231.5 140.5 232.1 140.4 232.5C140.3 232.9 140 233.2 139.5 233.3C138.9 233.3 138.5 232.9 138.5 232.4Z" fill="#D7D7D7"/>
<path d="M283.1 90.0001C282.5 90.4001 282.1 90.8001 281.7 90.8001C281.3 90.9001 280.9 90.5001 280.9 90.0001C280.8 89.5001 281.3 88.9001 281.8 89.0001C282.2 89.2001 282.5 89.6001 283.1 90.0001Z" fill="#D7D7D7"/>
<path d="M163.4 209.5C162.6 209.6 162.2 209.2 162.2 208.6C162.2 208.1 162.5 207.8 162.9 207.7C163.3 207.5 164.1 208 164 208.5C163.9 208.9 163.6 209.2 163.4 209.5Z" fill="#D7D7D7"/>
<path d="M175.2 197.7C174.4 197.7 174 197.1 174.1 196.6C174.2 196.2 174.5 195.8 175 195.9C175.6 195.9 176 196.5 175.8 197C175.7 197.3 175.3 197.5 175.2 197.7Z" fill="#D7D7D7"/>
<path d="M79.1 291.4C79.3 291.3 79.6 290.9 79.9 290.8C80.4 290.7 80.9 291.2 80.8 291.8C80.8 292.3 80.4 292.6 80 292.6C79.6 292.7 79.1 292.2 79.1 291.4Z" fill="#D7D7D7"/>
<path d="M246.3 126.5C245.5 126.4 245.1 125.8 245.3 125.3C245.4 124.8 245.8 124.6 246.3 124.6C246.8 124.6 247.3 125.2 247.1 125.7C246.9 126.1 246.5 126.3 246.3 126.5Z" fill="#D7D7D7"/>
<path d="M293.6 79.0001C293.1 79.0001 292.6 78.5001 292.7 77.9001C292.8 77.4001 293.1 77.1001 293.6 77.1001C294.1 77.1001 294.4 77.4001 294.5 77.9001C294.6 78.5001 294.2 79.0001 293.6 79.0001Z" fill="#D7D7D7"/>
<path d="M317.5 55.3001C317 55.4001 316.5 54.9001 316.5 54.4001C316.5 53.9001 316.8 53.6 317.3 53.5C317.8 53.4 318.1 53.7001 318.3 54.2001C318.4 54.6001 318 55.2001 317.5 55.3001Z" fill="#D7D7D7"/>
<path d="M126.3 244.3C126.7 243.9 126.9 243.5 127.2 243.3C127.7 243.1 128.3 243.5 128.3 244C128.3 244.6 127.9 245.1 127.4 245C127.1 245 126.8 244.7 126.3 244.3Z" fill="#D7D7D7"/>
<path d="M340.2 30.3C340.4 30.2 340.7 29.8 341 29.7C341.5 29.6 342 30.1 341.9 30.7C341.9 31.2 341.5 31.5 341.1 31.5C340.7 31.6 340.2 31.1 340.2 30.3Z" fill="#D7D7D7"/>
<path d="M103.9 268.9C103.1 268.8 102.8 268.2 102.9 267.7C103 267.2 103.4 267 103.9 267C104.4 267 104.9 267.6 104.6 268.1C104.4 268.5 104.1 268.8 103.9 268.9Z" fill="#D7D7D7"/>
<path d="M198.8 174C198 173.9 197.7 173.3 197.8 172.8C197.9 172.3 198.3 172.1 198.8 172.1C199.3 172.1 199.8 172.7 199.5 173.2C199.4 173.6 199 173.8 198.8 174Z" fill="#D7D7D7"/>
<path d="M271.1 101.9C270.6 102.2 270.3 102.6 270 102.7C269.5 102.8 269 102.2 269.1 101.7C269.1 101.2 269.8 100.7 270.2 101C270.5 101.1 270.7 101.5 271.1 101.9Z" fill="#D7D7D7"/>
<path d="M223.6 149.3C223.2 149.7 222.9 150.1 222.6 150.2C222.1 150.4 221.6 149.8 221.6 149.3C221.6 148.7 222.1 148.3 222.6 148.4C222.9 148.5 223.2 148.9 223.6 149.3Z" fill="#D7D7D7"/>
<path d="M152.1 220.2C152.1 221 151.7 221.5 151.2 221.4C150.7 221.4 150.4 221 150.4 220.6C150.3 220.1 150.8 219.5 151.3 219.6C151.6 219.7 151.9 220 152.1 220.2Z" fill="#D7D7D7"/>
<path d="M56.4 316.4C55.6 316.3 55.2 315.7 55.4 315.2C55.5 314.7 55.9 314.5 56.4 314.5C56.9 314.5 57.4 315.1 57.2 315.6C57 316 56.6 316.2 56.4 316.4Z" fill="#D7D7D7"/>
<path d="M329.2 89C329.5 89.4 329.9 89.6 329.9 89.8C329.9 90.1 329.7 90.4 329.5 90.6C329.2 90.8 328.6 90.3 328.6 89.9C328.6 89.7 328.9 89.4 329.2 89Z" fill="#D7D7D7"/>
<path d="M269.6 150.2C269.5 149.7 269.3 149.4 269.3 149.1C269.3 148.7 269.7 148.5 270.1 148.6C270.6 148.7 270.9 149.3 270.6 149.6C270.4 149.8 270 149.9 269.6 150.2Z" fill="#D7D7D7"/>
<path d="M270 126.5C269.7 126.1 269.3 125.9 269.3 125.7C269.3 125.4 269.5 125.1 269.8 124.9C270.1 124.7 270.8 125.2 270.7 125.6C270.6 125.8 270.3 126.1 270 126.5Z" fill="#D7D7D7"/>
<path d="M281.7 138.4C281.4 138 281.2 137.7 281.1 137.4C281 137 281.6 136.6 282 136.8C282.4 136.9 282.5 137.2 282.4 137.6C282.3 137.8 282 138 281.7 138.4Z" fill="#D7D7D7"/>
<path d="M281.7 112.7C282 113.1 282.4 113.3 282.4 113.5C282.4 113.8 282.2 114.1 282 114.3C281.7 114.5 281.1 114 281.1 113.6C281.1 113.4 281.4 113.2 281.7 112.7Z" fill="#D7D7D7"/>
<path d="M294.6 125.5C294.2 125.8 294 126.1 293.7 126.2C293.4 126.3 293 126.1 292.9 125.7C292.8 125.2 293.2 124.7 293.6 124.9C294 124.9 294.2 125.2 294.6 125.5Z" fill="#D7D7D7"/>
<path d="M293.7 102.7C293.4 102.3 293 102.1 293 101.9C293 101.6 293.3 101.3 293.5 101.2C293.9 101 294.4 101.5 294.3 101.9C294.3 102.1 294 102.3 293.7 102.7Z" fill="#D7D7D7"/>
<path d="M305.7 114.7C305.3 114.2 305 113.9 304.9 113.6C304.9 113.5 305.3 113.1 305.6 113.1C305.8 113.1 306.2 113.5 306.2 113.7C306.2 113.9 305.9 114.2 305.7 114.7Z" fill="#D7D7D7"/>
<path d="M306.4 90.1C306 90.4 305.7 90.6 305.5 90.7C305.1 90.8 304.7 90.1 304.9 89.8C305.1 89.6 305.4 89.4 305.7 89.4C305.9 89.3 306.1 89.7 306.4 90.1Z" fill="#D7D7D7"/>
<path d="M317.5 102.7C317.1 102.3 316.8 102.2 316.7 101.9C316.7 101.6 316.9 101.3 317.1 101.1C317.4 100.9 318.1 101.3 318 101.7C318.1 102 317.8 102.3 317.5 102.7Z" fill="#D7D7D7"/>
<path d="M317.3 79.0001C317.1 78.6001 316.8 78.3001 316.8 78.1001C316.8 77.8001 317.2 77.5001 317.4 77.4001C317.8 77.3001 318.3 77.9001 318.1 78.2001C318 78.5001 317.6 78.6001 317.3 79.0001Z" fill="#D7D7D7"/>
<path d="M126.6 267.9C127 267.6 127.2 267.3 127.5 267.2C127.9 267.1 128.4 267.7 128.2 268.1C128.1 268.3 127.7 268.6 127.4 268.6C127.2 268.6 126.9 268.2 126.6 267.9Z" fill="#D7D7D7"/>
<path d="M126.6 291.7C127 291.4 127.2 291.1 127.5 291C127.9 290.9 128.4 291.5 128.2 291.9C128.1 292.1 127.7 292.4 127.4 292.4C127.2 292.3 126.9 292 126.6 291.7Z" fill="#D7D7D7"/>
<path d="M174 244.2C174.4 243.9 174.6 243.6 174.9 243.5C175.3 243.4 175.8 244 175.6 244.4C175.5 244.6 175.1 244.9 174.8 244.9C174.6 244.9 174.4 244.5 174 244.2Z" fill="#D7D7D7"/>
<path d="M174 220.7C174.4 220.3 174.5 220 174.8 219.9C175.2 219.7 175.8 220.2 175.6 220.6C175.5 220.9 175.2 221.2 174.9 221.2C174.8 221.2 174.5 220.9 174 220.7Z" fill="#D7D7D7"/>
<path d="M186.8 231.4C187.1 231.8 187.5 232 187.5 232.2C187.5 232.5 187.3 232.8 187.1 233C186.8 233.2 186.2 232.7 186.2 232.3C186.2 232.1 186.5 231.9 186.8 231.4Z" fill="#D7D7D7"/>
<path d="M329.4 67.3C329 66.8 328.7 66.5 328.6 66.2C328.6 66.1 329 65.7 329.3 65.7C329.5 65.7 329.9 66.1 329.9 66.3C329.9 66.4 329.7 66.7 329.4 67.3Z" fill="#D7D7D7"/>
<path d="M114.7 279.8C115.1 279.5 115.4 279.2 115.6 279.2C115.8 279.2 116.2 279.5 116.3 279.8C116.4 280.3 116 280.7 115.6 280.5C115.3 280.4 115.1 280.1 114.7 279.8Z" fill="#D7D7D7"/>
<path d="M115.7 304.5C115.4 304.1 115.1 303.9 115 303.6C114.9 303.2 115.3 302.7 115.8 302.9C116 303 116.3 303.3 116.3 303.6C116.3 303.9 116 304.1 115.7 304.5Z" fill="#D7D7D7"/>
<path d="M186.8 209.6C186.5 209.2 186.2 208.9 186.1 208.7C186 208.3 186.5 207.9 187 208C187.4 208.1 187.6 208.4 187.5 208.8C187.4 209 187.1 209.2 186.8 209.6Z" fill="#D7D7D7"/>
<path d="M341.2 79.0001C340.9 78.6001 340.5 78.4001 340.5 78.2001C340.5 77.9001 340.8 77.6001 341 77.5001C341.4 77.3001 341.9 77.8001 341.8 78.2001C341.8 78.4001 341.5 78.6001 341.2 79.0001Z" fill="#D7D7D7"/>
<path d="M340.2 54.5C340.6 54.1 340.7 53.8 341 53.7C341.4 53.5 342 54 341.8 54.4C341.7 54.7 341.4 55 341.1 55C340.9 55 340.6 54.7 340.2 54.5Z" fill="#D7D7D7"/>
<path d="M199.7 220.6C199.2 220.9 199 221.1 198.7 221.1C198.5 221.1 198.1 220.7 198.1 220.5C198 220.1 198.5 219.6 198.9 219.8C199.1 220 199.3 220.2 199.7 220.6Z" fill="#D7D7D7"/>
<path d="M197.8 196.7C198.2 196.4 198.4 196.1 198.7 196C199.1 195.9 199.6 196.5 199.4 196.9C199.3 197.1 198.9 197.4 198.6 197.4C198.4 197.4 198.2 197 197.8 196.7Z" fill="#D7D7D7"/>
<path d="M104.7 291.9C104.2 292.1 103.9 292.4 103.7 292.4C103.5 292.4 103.1 292 103.1 291.8C103 291.4 103.6 291 103.9 291.2C104.2 291.2 104.4 291.5 104.7 291.9Z" fill="#D7D7D7"/>
<path d="M103.8 316.4C103.5 316 103.1 315.8 103.1 315.6C103.1 315.3 103.4 315 103.6 314.9C104 314.7 104.5 315.2 104.4 315.6C104.4 315.7 104.1 316 103.8 316.4Z" fill="#D7D7D7"/>
<path d="M209.6 208.6C210 208.3 210.3 208 210.5 208C210.7 208 211.1 208.3 211.2 208.6C211.3 209.1 210.9 209.5 210.5 209.3C210.2 209.2 210 208.9 209.6 208.6Z" fill="#D7D7D7"/>
<path d="M209.6 185C209.9 184.7 210.1 184.4 210.4 184.2C210.8 184 211.1 184.2 211.2 184.6C211.3 185 211 185.6 210.6 185.5C210.3 185.5 210.1 185.3 209.6 185Z" fill="#D7D7D7"/>
<path d="M353.1 67.2C352.7 66.8 352.4 66.6 352.3 66.4C352.1 66 352.6 65.5 353 65.6C353.2 65.7 353.6 66 353.6 66.3C353.7 66.5 353.4 66.7 353.1 67.2Z" fill="#D7D7D7"/>
<path d="M353.9 42.4001C353.5 42.7001 353.3 43 353.1 43.1C352.7 43.2 352.2 42.7 352.4 42.3001C352.5 42.1 352.9 41.8001 353.1 41.8001C353.3 41.8001 353.5 42.2001 353.9 42.4001Z" fill="#D7D7D7"/>
<path d="M223.4 196.7C223 197 222.8 197.3 222.5 197.4C222.2 197.5 221.8 197.3 221.7 196.9C221.6 196.4 222 195.9 222.4 196.1C222.8 196.1 223 196.4 223.4 196.7Z" fill="#D7D7D7"/>
<path d="M151.3 268.9C151 268.5 150.6 268.3 150.6 268.1C150.6 267.8 150.8 267.5 151.1 267.3C151.4 267.1 152.1 267.6 152 268C151.9 268.2 151.6 268.5 151.3 268.9Z" fill="#D7D7D7"/>
<path d="M91.8 302.6C92.1 303 92.5 303.2 92.5 303.4C92.5 303.7 92.3 304 92.1 304.2C91.8 304.4 91.2 303.9 91.2 303.5C91.3 303.3 91.5 303.1 91.8 302.6Z" fill="#D7D7D7"/>
<path d="M365.1 31.4001C364.4 31.5001 364 31.2 364 30.6C364 30 364.3 29.6001 365.1 29.8001L365.1 31.4001Z" fill="#D7D7D7"/>
<path d="M91.9 328.3C91.6 327.9 91.3 327.7 91.2 327.4C91.1 327 91.5 326.5 92 326.7C92.2 326.8 92.5 327.1 92.5 327.4C92.5 327.6 92.2 327.9 91.9 328.3Z" fill="#D7D7D7"/>
<path d="M221.5 173.2C221.9 172.8 222 172.5 222.3 172.4C222.7 172.2 223.3 172.7 223.1 173.1C223 173.4 222.7 173.7 222.4 173.7C222.3 173.7 222 173.4 221.5 173.2Z" fill="#D7D7D7"/>
<path d="M233.4 184.8C233.8 184.5 234.1 184.2 234.3 184.2C234.5 184.2 234.9 184.5 235 184.8C235.1 185.3 234.7 185.7 234.3 185.5C233.9 185.5 233.7 185.2 233.4 184.8Z" fill="#D7D7D7"/>
<path d="M234.3 160.2C234.6 160.6 235 160.8 235 161C235 161.3 234.8 161.6 234.6 161.8C234.3 162 233.7 161.5 233.7 161.1C233.7 160.9 233.9 160.7 234.3 160.2Z" fill="#D7D7D7"/>
<path d="M81 315.4C80.6 315.7 80.4 316 80.1 316.1C79.8 316.2 79.4 316 79.3 315.6C79.2 315.1 79.6 314.6 80 314.8C80.4 314.8 80.6 315.1 81 315.4Z" fill="#D7D7D7"/>
<path d="M247.2 173.2C246.7 173.5 246.5 173.7 246.2 173.7C246 173.7 245.6 173.3 245.6 173.1C245.5 172.7 246 172.2 246.4 172.4C246.6 172.5 246.8 172.8 247.2 173.2Z" fill="#D7D7D7"/>
<path d="M245.2 149.5C245.6 149.1 245.7 148.8 246 148.7C246.4 148.5 247 149 246.8 149.4C246.7 149.7 246.4 150 246.1 150C246 150 245.7 149.7 245.2 149.5Z" fill="#D7D7D7"/>
<path d="M139.3 257.1C139 256.7 138.7 256.4 138.6 256.2C138.5 255.8 139 255.4 139.5 255.5C139.9 255.6 140.1 255.9 140 256.3C139.9 256.5 139.6 256.7 139.3 257.1Z" fill="#D7D7D7"/>
<path d="M139.3 280.8C139 280.4 138.8 280.1 138.7 279.8C138.6 279.4 139.2 279 139.6 279.2C140 279.3 140.1 279.6 140 280C139.9 280.2 139.6 280.4 139.3 280.8Z" fill="#D7D7D7"/>
<path d="M163.1 257.1C162.8 256.7 162.5 256.4 162.4 256.2C162.3 255.8 162.8 255.4 163.3 255.5C163.7 255.6 163.9 255.9 163.8 256.3C163.6 256.5 163.4 256.7 163.1 257.1Z" fill="#D7D7D7"/>
<path d="M258.2 162.2C257.8 161.7 257.5 161.4 257.4 161.1C257.4 161 257.8 160.6 258.1 160.6C258.3 160.6 258.7 161 258.7 161.2C258.7 161.4 258.4 161.7 258.2 162.2Z" fill="#D7D7D7"/>
<path d="M163.2 233.3C162.8 232.9 162.5 232.7 162.4 232.5C162.2 232.1 162.7 231.6 163.1 231.7C163.3 231.8 163.7 232.1 163.7 232.4C163.8 232.6 163.5 232.9 163.2 233.3Z" fill="#D7D7D7"/>
<path d="M258.1 138.4C257.8 138 257.5 137.8 257.4 137.5C257.3 137.1 257.7 136.6 258.2 136.8C258.4 136.9 258.7 137.2 258.7 137.5C258.7 137.7 258.4 138 258.1 138.4Z" fill="#D7D7D7"/>
<path d="M151.1 245.2C150.9 244.8 150.6 244.5 150.6 244.3C150.6 244 151 243.7 151.2 243.6C151.6 243.5 152.1 244.1 151.9 244.4C151.8 244.6 151.5 244.8 151.1 245.2Z" fill="#D7D7D7"/>
<path d="M363.9 54.3C364.3 54 364.5 53.8 364.8 53.6C364.9 53.9 365.1 54.1 365.2 54.4C365.2 54.5 364.9 54.9 364.8 54.9C364.5 54.8 364.3 54.6 363.9 54.3Z" fill="#D7D7D7"/>
<path d="M258.3 209C258 208.9 257.9 208.9 257.8 208.8C257.9 208.6 258 208.4 258 208.2C258.1 208.3 258.4 208.3 258.4 208.4C258.4 208.6 258.3 208.8 258.3 209Z" fill="#D7D7D7"/>
<path d="M281.6 185.3C281.5 185.1 281.4 184.9 281.4 184.7C281.4 184.6 281.7 184.5 281.8 184.5C282 184.7 282.1 184.9 282.2 185.1C282.1 185.1 281.9 185.2 281.6 185.3Z" fill="#D7D7D7"/>
<path d="M353.2 90.3C352.9 90.2 352.8 90.2 352.7 90.1C352.8 89.9 352.9 89.7 352.9 89.5C353 89.6 353.3 89.6 353.3 89.7C353.4 89.9 353.2 90.1 353.2 90.3Z" fill="#D7D7D7"/>
<path d="M281.7 160.7C281.9 160.8 282.1 160.9 282.2 161C282.1 161.2 282 161.4 281.8 161.5C281.8 161.5 281.4 161.4 281.4 161.3C281.5 161.1 281.6 160.9 281.7 160.7Z" fill="#D7D7D7"/>
<path d="M115.5 326.8C115.7 326.9 115.9 327 116 327.1C115.9 327.3 115.8 327.5 115.6 327.6C115.6 327.6 115.2 327.5 115.2 327.4C115.3 327.3 115.4 327.1 115.5 326.8Z" fill="#D7D7D7"/>
<path d="M210.7 232.8C210.5 232.7 210.3 232.6 210.2 232.5C210.3 232.3 210.4 232.1 210.6 232L211 232.2C210.9 232.4 210.8 232.6 210.7 232.8Z" fill="#D7D7D7"/>
<path d="M305.3 161.6C305.3 161.4 305.2 161.2 305.2 161C305.2 160.9 305.6 160.8 305.6 160.8C305.7 161 305.8 161.2 305.9 161.4C305.7 161.4 305.6 161.5 305.3 161.6Z" fill="#D7D7D7"/>
<path d="M211.1 256.2C210.9 256.3 210.6 256.5 210.6 256.4C210.4 256.3 210.3 256.1 210.3 255.9C210.3 255.9 210.6 255.6 210.7 255.7C210.8 255.8 210.9 256 211.1 256.2Z" fill="#D7D7D7"/>
<path d="M186.7 255.6C186.9 255.7 187.1 255.8 187.2 255.9C187.1 256.1 187 256.3 186.8 256.4C186.8 256.4 186.4 256.3 186.4 256.2C186.5 256 186.6 255.8 186.7 255.6Z" fill="#D7D7D7"/>
<path d="M187.4 280C187.2 280.1 186.9 280.3 186.9 280.2C186.7 280.1 186.6 279.9 186.6 279.7C186.6 279.7 186.9 279.4 187 279.5C187 279.6 187.2 279.8 187.4 280Z" fill="#D7D7D7"/>
<path d="M305.7 137.8C305.4 137.7 305.3 137.7 305.2 137.6C305.3 137.4 305.4 137.2 305.4 137C305.5 137.1 305.8 137.1 305.8 137.2C305.9 137.4 305.8 137.6 305.7 137.8Z" fill="#D7D7D7"/>
<path d="M352.9 113.2C353.1 113.3 353.3 113.4 353.4 113.5C353.3 113.7 353.2 113.9 353 114C353 114 352.6 113.9 352.6 113.8C352.7 113.6 352.8 113.4 352.9 113.2Z" fill="#D7D7D7"/>
<path d="M234.1 209C234.1 208.8 234 208.6 234 208.4C234 208.3 234.4 208.2 234.4 208.2C234.5 208.4 234.6 208.6 234.7 208.8C234.5 208.9 234.4 208.9 234.1 209Z" fill="#D7D7D7"/>
<path d="M257.8 185.3C257.8 185.1 257.7 184.9 257.7 184.7C257.7 184.6 258.1 184.5 258.1 184.5C258.2 184.7 258.3 184.9 258.4 185.1C258.3 185.2 258.1 185.2 257.8 185.3Z" fill="#D7D7D7"/>
<path d="M329.4 137.8C329.2 137.7 329 137.6 328.9 137.5C329 137.3 329.1 137.1 329.3 137L329.7 137.2C329.6 137.5 329.5 137.6 329.4 137.8Z" fill="#D7D7D7"/>
<path d="M234.8 232.5C234.6 232.6 234.3 232.8 234.3 232.7C234.1 232.6 234 232.4 234 232.2C234 232.2 234.3 231.9 234.4 232C234.5 232.1 234.7 232.3 234.8 232.5Z" fill="#D7D7D7"/>
<path d="M139.2 304C139.1 303.8 139 303.6 139 303.4C139 303.3 139.3 303.2 139.4 303.2C139.6 303.4 139.7 303.6 139.8 303.8C139.6 303.8 139.5 303.9 139.2 304Z" fill="#D7D7D7"/>
<path d="M139.9 327.4C139.7 327.5 139.4 327.7 139.4 327.6C139.2 327.5 139.1 327.3 139.1 327.1C139.1 327.1 139.4 326.8 139.5 326.9C139.6 327 139.7 327.2 139.9 327.4Z" fill="#D7D7D7"/>
<path d="M163.3 304C163 303.9 162.9 303.9 162.8 303.8C162.9 303.6 163 303.4 163 303.2C163.1 303.3 163.4 303.3 163.4 303.4C163.5 303.6 163.4 303.8 163.3 304Z" fill="#D7D7D7"/>
<path d="M163.6 280C163.4 280.1 163.1 280.3 163.1 280.2C162.9 280.1 162.8 279.9 162.8 279.7C162.8 279.7 163.1 279.4 163.2 279.5C163.3 279.6 163.4 279.8 163.6 280Z" fill="#D7D7D7"/>
<path d="M329.5 114.1C329.2 114 329.1 114 329 113.9C329.1 113.7 329.2 113.5 329.2 113.3C329.3 113.4 329.6 113.4 329.6 113.5C329.6 113.7 329.5 113.9 329.5 114.1Z" fill="#D7D7D7"/>
<path d="M317 125.4C317.2 125.3 317.4 125.3 317.6 125.3C317.6 125.3 317.8 125.7 317.7 125.7C317.6 125.8 317.4 125.9 317.2 125.9C317.1 125.8 317.1 125.6 317 125.4Z" fill="#D7D7D7"/>
<path d="M246.6 196.6C246.5 196.8 246.4 197 246.4 197.1C246.2 197 246 196.9 245.9 196.8C245.9 196.8 246 196.4 246.1 196.4C246.2 196.5 246.4 196.5 246.6 196.6Z" fill="#D7D7D7"/>
<path d="M245.7 220.3C245.9 220.2 246.1 220.2 246.3 220.2C246.3 220.2 246.5 220.6 246.4 220.6C246.3 220.7 246.1 220.8 245.9 220.8C245.9 220.8 245.8 220.5 245.7 220.3Z" fill="#D7D7D7"/>
<path d="M151.6 315.3C151.5 315.5 151.4 315.7 151.4 315.8C151.2 315.7 151 315.6 150.9 315.5C150.9 315.5 151 315.1 151.1 315.1C151.2 315.1 151.4 315.2 151.6 315.3Z" fill="#D7D7D7"/>
<path d="M127.7 315.9C127.5 315.8 127.2 315.7 127.2 315.6C127.2 315.4 127.3 315.2 127.4 315.1L127.8 315.2C127.8 315.5 127.7 315.7 127.7 315.9Z" fill="#D7D7D7"/>
<path d="M175.4 291.5C175.3 291.7 175.2 291.9 175.2 292C175 291.9 174.8 291.8 174.7 291.7C174.7 291.7 174.8 291.3 174.9 291.3C175 291.4 175.2 291.5 175.4 291.5Z" fill="#D7D7D7"/>
<path d="M341.2 126.1C341 125.8 340.9 125.6 340.8 125.4C340.8 125.4 341 125.2 341.1 125.2C341.2 125.2 341.5 125.3 341.5 125.4C341.4 125.6 341.3 125.8 341.2 126.1Z" fill="#D7D7D7"/>
<path d="M341.3 102.3C341.1 102.2 340.8 102.1 340.8 102C340.8 101.8 340.9 101.6 341 101.5L341.4 101.6C341.4 101.8 341.3 102 341.3 102.3Z" fill="#D7D7D7"/>
<path d="M269.8 173.5C269.7 173.3 269.6 173.1 269.5 172.9C269.6 172.8 269.9 172.7 269.9 172.7C270 172.8 270.1 173 270.2 173.2C270.3 173.2 270 173.3 269.8 173.5Z" fill="#D7D7D7"/>
<path d="M198.3 244.1C198.5 244 198.7 244 198.9 244C198.9 244 199.1 244.4 199 244.4C198.9 244.5 198.7 244.6 198.5 244.6C198.5 244.5 198.4 244.3 198.3 244.1Z" fill="#D7D7D7"/>
<path d="M199.1 267.9C199 268.1 198.9 268.3 198.8 268.4C198.6 268.3 198.4 268.1 198.3 268L198.5 267.7C198.7 267.7 198.9 267.8 199.1 267.9Z" fill="#D7D7D7"/>
<path d="M151.4 292.1C151.2 292 150.9 291.9 150.9 291.8C150.9 291.6 151 291.4 151.1 291.3L151.5 291.4C151.5 291.7 151.4 291.9 151.4 292.1Z" fill="#D7D7D7"/>
<path d="M270.1 197.2C269.9 197.1 269.6 197 269.6 196.9C269.6 196.7 269.7 196.5 269.8 196.4L270.2 196.5C270.2 196.8 270.1 197 270.1 197.2Z" fill="#D7D7D7"/>
<path d="M175.1 268.4C174.9 268.3 174.6 268.2 174.6 268.1C174.6 267.9 174.7 267.7 174.8 267.6L175.2 267.7C175.3 268 175.2 268.2 175.1 268.4Z" fill="#D7D7D7"/>
<path d="M365 102.3C364.8 102.2 364.6 102.1 364.6 102C364.6 101.8 364.7 101.7 364.8 101.5C364.9 101.6 365.2 101.6 365.2 101.7C365.1 101.8 365 102 365 102.3Z" fill="#D7D7D7"/>
<path d="M222.5 221.1C222.3 220.8 222.2 220.6 222.1 220.4C222.1 220.4 222.3 220.2 222.4 220.2C222.5 220.2 222.8 220.3 222.8 220.4C222.8 220.6 222.6 220.7 222.5 221.1Z" fill="#D7D7D7"/>
<path d="M317.6 149.7C317.4 149.6 317.1 149.5 317.1 149.4C317.1 149.2 317.2 149 317.3 148.9L317.7 149C317.7 149.3 317.6 149.5 317.6 149.7Z" fill="#D7D7D7"/>
<path d="M222.4 244.7C222.3 244.5 222.2 244.3 222.1 244.1C222.2 244 222.5 243.9 222.5 243.9C222.6 244 222.7 244.2 222.8 244.4C222.8 244.4 222.5 244.5 222.4 244.7Z" fill="#D7D7D7"/>
<path d="M294.1 172.9C294 173.1 293.9 173.3 293.8 173.4C293.6 173.3 293.4 173.1 293.3 173L293.5 172.7C293.7 172.7 293.9 172.8 294.1 172.9Z" fill="#D7D7D7"/>
<path d="M293.6 149.7C293.5 149.5 293.4 149.3 293.3 149.1C293.4 149 293.7 148.9 293.7 148.9C293.8 149 293.9 149.2 294 149.4C294 149.5 293.8 149.6 293.6 149.7Z" fill="#D7D7D7"/>
<path d="M365.2 78.0001C365.1 78.2001 365 78.4001 365 78.5001C364.8 78.4001 364.6 78.2001 364.5 78.1001C364.5 78.1001 364.6 77.8001 364.7 77.8001C364.9 77.8001 365 77.9001 365.2 78.0001Z" fill="#D7D7D7"/>
</g>
<defs>
<clipPath id="clip0_373_2543">
<rect width="372.2" height="328.7" fill="white" transform="translate(365.2 328.7) rotate(-180)"/>
</clipPath>
</defs>
</svg>
