<svg width="40" height="39" viewBox="0 0 40 39" fill="none" xmlns="http://www.w3.org/2000/svg">
<rect width="40" height="39" rx="19.5" fill="#00509D"/>
<path d="M10.0001 20.1246C10.1811 17.2441 11.2513 14.3162 14.1314 12.322C17.6726 9.87679 22.4807 9.94009 25.9746 12.4645C26.1871 12.6148 26.2737 12.5436 26.4232 12.4012C27.3045 11.5386 28.2882 10.7947 29.3505 10.1617C29.5551 10.0351 29.7597 9.90053 29.9958 10.1063C30.224 10.3041 30.1296 10.5257 30.0273 10.7473C29.4922 11.9422 28.8469 13.0659 28.0364 14.0867C27.8711 14.2924 27.8947 14.4191 28.0364 14.6169C29.2168 16.2787 29.7676 18.1146 29.5315 20.1562C29.2168 22.9418 27.1865 24.8093 24.3929 24.9043C23.7083 24.928 23.0315 24.9517 22.3469 24.9517C21.7882 24.9517 21.3554 25.1417 21.1036 25.6719C20.8596 26.1783 21.0249 26.5977 21.316 27.025C22.0007 28.0221 21.8433 29.1458 20.9541 29.7947C20.5212 30.1113 20.0255 30.1983 19.4982 30.1904C16.1774 30.135 13.6514 28.5761 11.7234 25.9488C10.5588 24.3662 9.99221 22.5698 10.0001 20.1246ZM28.5479 11.7048C27.5878 12.3378 26.7773 13.1371 26.0218 13.9917C24.7155 15.4636 23.425 16.9513 22.103 18.4074C21.8511 18.6844 21.9928 18.7793 22.1817 18.9455C22.3626 19.1117 22.4728 19.2541 22.7246 18.9692C24.0467 17.442 25.4002 15.9384 26.7379 14.4191C27.4619 13.5961 28.1072 12.7256 28.6187 11.7523C28.6266 11.7206 28.6423 11.6652 28.6344 11.6573C28.5715 11.6256 28.5636 11.6731 28.5479 11.7048ZM19.695 11.3408C17.9401 11.3962 16.0751 11.9184 14.4462 13.0975C11.9123 14.9255 10.9208 17.5607 10.8106 20.5836C10.6454 24.9834 14.8475 29.494 19.5769 29.3753C20.0884 29.3595 20.5291 29.2566 20.8045 28.7581C21.0721 28.2595 20.9068 27.8401 20.6157 27.4365C20.1278 26.7639 20.0097 26.0517 20.3953 25.292C20.7967 24.5086 21.4419 24.1525 22.3076 24.1446C23.1496 24.1288 23.9837 24.1208 24.8178 24.0575C26.6435 23.9072 28.1151 22.6727 28.5715 20.8922C29.0987 18.8268 28.6187 16.9355 27.454 15.1867C27.2967 14.9413 27.218 15.0996 27.1157 15.2183C25.8408 16.6585 24.5739 18.0988 23.2991 19.5232C23.1496 19.6894 23.126 19.7843 23.2755 19.9742C23.5666 20.362 23.5824 20.8051 23.362 21.2404C23.1338 21.6756 22.7561 21.8972 22.2761 21.8893C22.0715 21.8893 21.9928 21.9288 21.922 22.1267C21.6072 23.0684 20.9462 23.646 19.9783 23.8201C19.1913 23.9626 18.5461 24.3108 18.0739 24.9676C17.9637 25.1179 17.8221 25.1971 17.6332 25.1654C17.4444 25.1258 17.3578 24.9913 17.3027 24.8172C17.169 24.3029 17.0981 23.7806 17.106 23.2504C17.1375 21.6835 17.7119 20.4332 19.1756 19.721C19.3881 19.6181 19.3251 19.5153 19.2858 19.357C19.1756 18.8505 19.3015 18.4074 19.7186 18.0909C20.1199 17.7822 20.5685 17.7189 21.0091 17.9801C21.2452 18.1225 21.3475 18.0671 21.5128 17.8851C22.7955 16.4211 24.0781 14.9572 25.3844 13.5169C25.6048 13.2716 25.5654 13.1687 25.3215 12.9947C23.7004 11.8393 21.8826 11.412 19.695 11.3408ZM17.9874 23.8439C18.2864 23.6065 18.5854 23.4166 18.9159 23.2662C19.27 23.1079 19.6556 23.0921 20.0097 22.9734C20.6235 22.7756 21.0249 22.3562 21.1823 21.7152C21.2373 21.4857 21.2137 21.3274 21.017 21.1692C20.7416 20.9476 20.474 20.7181 20.2301 20.4649C20.0412 20.2591 19.876 20.2829 19.6478 20.3857C18.3572 20.9713 17.7119 22.277 17.9874 23.8439ZM22.6774 20.6231C22.6774 20.5836 22.6617 20.4886 22.5909 20.4253C21.9613 19.8555 21.3318 19.2779 20.6865 18.7239C20.5212 18.5815 20.3088 18.6211 20.1593 18.7951C20.0097 18.9692 20.0097 19.175 20.175 19.3253C20.7967 19.8951 21.4105 20.4649 22.0557 21.003C22.3076 21.2087 22.6695 21.003 22.6774 20.6231Z" fill="white"/>
<path d="M16.7519 14.5059C16.744 13.1448 17.8457 12.0369 19.1913 12.0448C20.5212 12.0528 21.6151 13.1448 21.6229 14.4822C21.6308 15.8274 20.5212 16.9432 19.1756 16.9432C17.8457 16.9353 16.7597 15.8433 16.7519 14.5059ZM20.7967 14.4742C20.7888 13.5721 20.057 12.852 19.1677 12.8599C18.2706 12.8678 17.5545 13.6117 17.5624 14.5059C17.5703 15.4001 18.3179 16.1361 19.1992 16.1202C20.0884 16.1123 20.8045 15.3764 20.7967 14.4742Z" fill="white"/>
<path d="M14.7216 19.7921C13.612 19.7921 12.6992 18.8821 12.6913 17.7663C12.6835 16.6347 13.612 15.7088 14.7452 15.7167C15.8548 15.7326 16.7597 16.6505 16.7519 17.7584C16.744 18.8821 15.839 19.7842 14.7216 19.7921ZM14.7137 16.5318C14.037 16.5397 13.5019 17.0857 13.5097 17.7663C13.5176 18.431 14.0527 18.9691 14.7059 18.9691C15.3747 18.977 15.9256 18.4231 15.9256 17.7425C15.9335 17.0699 15.3905 16.5318 14.7137 16.5318Z" fill="white"/>
<path d="M15.123 22.261C15.1151 23.1552 14.3754 23.8912 13.4862 23.8753C12.597 23.8595 11.8809 23.1236 11.8887 22.2214C11.8966 21.3272 12.6363 20.5992 13.5255 20.6071C14.4148 20.6229 15.1309 21.3589 15.123 22.261ZM13.5177 23.0444C13.9583 23.0365 14.3125 22.6804 14.3203 22.2452C14.3282 21.7941 13.9505 21.4222 13.4941 21.4301C13.0534 21.438 12.6993 21.7941 12.6914 22.2294C12.6835 22.6804 13.0613 23.0523 13.5177 23.0444Z" fill="white"/>
</svg>
