<svg width="40" height="39" viewBox="0 0 40 39" fill="none" xmlns="http://www.w3.org/2000/svg">
<rect width="40" height="39" rx="19.5" fill="#EB0723"/>
<path d="M9.97892 15.7968C10.2032 15.5974 10.3528 15.4478 10.5522 15.2983C10.8513 15.5725 11.1504 15.8716 11.4993 16.2205C11.599 15.9962 11.7236 15.7469 11.7735 15.4977C11.9978 14.5256 12.7455 13.8028 13.6927 13.7031C14.8641 13.5785 15.7863 14.077 16.2101 15.074C16.5341 15.8716 16.883 16.6442 17.232 17.4418C17.2818 17.4418 17.3566 17.4418 17.4064 17.4169C17.7305 16.5944 18.1043 15.7719 18.3536 14.9244C18.7524 13.6034 19.0764 12.2575 19.4253 10.9116C19.5749 10.2885 19.9487 9.93952 20.4722 9.96444C21.0205 10.0143 21.3944 10.4131 21.3694 11.086C21.3694 11.3602 21.4941 11.4599 21.6935 11.6344C21.9925 11.8836 22.2418 12.2326 22.4163 12.6064C22.516 12.8308 22.5658 13.0052 22.8151 13.1299C23.0394 13.2296 23.2139 13.429 23.4132 13.6034C24.9087 12.4818 26.2048 11.2107 26.7531 9.34133C26.9775 8.74314 27.4012 8.41912 27.9246 8.4939C28.4729 8.56867 28.772 9.01731 28.772 9.66535C28.772 9.76505 28.772 9.83982 28.772 9.93952C28.6225 10.5626 28.6723 11.086 29.1708 11.6095C29.6693 12.1578 29.6444 12.9055 29.2954 13.5785C29.1957 13.7779 29.1708 13.9274 29.2954 14.1518C29.6195 14.725 29.5945 15.3232 29.3702 15.9214C29.3204 16.071 29.3204 16.2953 29.3702 16.4448C29.6942 17.2424 29.5447 18.0649 28.9216 18.6631C28.7471 18.8376 28.7222 18.9622 28.772 19.1865C28.9465 20.0838 28.448 20.8814 27.5507 21.1805C27.4012 21.2303 27.2267 21.3799 27.1519 21.5294C26.7531 22.3519 26.13 22.8255 25.2078 22.9003C25.0832 22.9252 24.9336 22.9751 24.809 23.0498C24.4352 23.2741 24.0613 23.4985 23.6625 23.7477C23.9865 24.0219 24.3604 24.3459 24.7592 24.645C24.8589 24.7198 25.0333 24.6948 25.1829 24.6948C26.3045 24.5951 27.4012 24.4954 28.5228 24.3958C29.5696 24.321 30.1429 24.7945 30.2675 25.8414C30.2924 25.9909 30.3672 26.1405 30.4669 26.2651C31.1897 27.0627 31.1897 27.8353 30.3921 28.5581C30.2924 28.6578 30.2176 28.8074 30.1927 28.932C29.9933 29.6548 29.5696 30.1782 28.8966 30.5023C28.7471 30.577 28.6225 30.6767 28.4979 30.7764C27.7003 31.6239 26.5537 31.5989 25.806 30.7017C24.9835 29.7047 24.161 28.7077 23.3385 27.6858C23.1142 27.4116 22.8898 27.2621 22.516 27.2371C19.874 27.0876 17.6557 26.0657 15.9857 23.997C15.0635 22.8754 14.5152 21.5793 14.2161 20.1835C14.0167 19.1616 13.593 18.2394 12.9948 17.3421C12.596 17.6911 12.2969 18.1895 11.6738 18.04C11.5492 18.3142 11.4495 18.5385 11.3498 18.8127C12.0477 19.0121 12.6209 19.361 12.9699 20.034C13.244 20.5823 13.244 21.1556 13.1942 21.7538C12.4714 21.8534 11.7735 21.7787 11.0756 21.3051C11.1255 21.6291 11.1504 21.8534 11.2002 22.1276C12.1474 22.0778 12.9948 22.2772 13.6428 23C14.1662 23.5732 14.2909 24.2961 14.3906 25.1435C13.593 25.0687 12.8452 24.969 12.0726 24.8942C12.1723 25.1186 12.3218 25.4177 12.4963 25.6918C12.5461 25.7666 12.7206 25.8165 12.8452 25.8165C14.4404 25.9411 15.4125 27.3368 14.9389 28.8572C14.8392 29.2062 14.6897 29.5551 14.565 29.929C14.0416 29.8542 13.5182 29.8044 13.0446 29.6798C11.8233 29.4056 11.0258 28.1594 11.4744 27.0128C11.8233 26.0906 11.5741 25.4177 11.1504 24.6948C10.8762 24.9441 10.6519 25.2183 10.3528 25.4177C10.0537 25.6171 9.72968 25.7417 9.40566 25.9161C8.4336 24.7696 8.60807 23.2243 9.77953 22.5015C10.4774 22.0778 10.4774 22.0778 10.2531 21.1805C9.60505 21.7288 8.85732 21.8285 8.08466 21.7288C7.71079 20.2334 8.60807 18.9622 10.1285 18.7877C10.278 18.7628 10.4525 18.6631 10.5522 18.5385C11.1753 17.6911 11.1005 16.8685 10.3777 16.1208C10.3029 16.071 10.1534 15.9463 9.97892 15.7968ZM27.0772 27.0128C27.8997 27.3368 28.6973 27.611 29.4699 27.9101C29.6942 27.9849 29.9435 28.1594 30.1429 27.8353C30.3173 27.5612 30.3173 27.2621 30.1179 27.0128C29.9186 26.7636 29.6942 26.5891 29.3204 26.614C28.4231 26.639 27.5009 26.614 26.5787 26.614C26.5787 26.3399 26.5787 26.1155 26.5787 25.8663C27.5507 25.8663 28.4979 25.8663 29.4699 25.8663C29.445 25.318 29.2207 25.0936 28.6723 25.1435C27.4759 25.2432 26.3045 25.3429 25.1081 25.4675C24.7841 25.4924 24.5099 25.4426 24.2607 25.2183C23.7622 24.7696 23.2139 24.321 22.6655 23.8973C22.4661 23.7477 22.1919 23.6231 21.9427 23.648C21.0454 23.6979 20.1731 23.8225 19.2509 23.9222C19.201 23.7477 19.1512 23.5234 19.0764 23.2991C19.2758 23.2492 19.4253 23.1994 19.5749 23.1744C20.846 23.0748 22.0922 23 23.3634 22.9003C23.6625 22.8754 24.0613 22.7757 24.2358 22.5513C24.485 22.2273 24.7342 22.1775 25.0832 22.1775C25.6315 22.1775 26.0552 21.9282 26.3793 21.4048C26.1799 21.4048 26.0552 21.4048 25.8808 21.4048C25.8559 21.1805 25.8309 20.9562 25.806 20.7069C26.3045 20.6321 26.7531 20.5823 27.2018 20.5075C27.8 20.4078 28.0991 19.9841 27.9994 19.361C27.7252 19.5355 27.451 19.7099 27.1519 19.8844C27.0024 19.685 26.9027 19.4856 26.7531 19.2862C27.2766 18.9373 27.775 18.6133 28.2486 18.2643C28.772 17.8904 28.9216 17.367 28.6225 16.7938C28.2735 17.0679 27.8997 17.367 27.5258 17.6412C27.3513 17.4169 27.2267 17.2673 27.0772 17.0679C27.5009 16.719 27.8997 16.4199 28.2985 16.0959C28.7969 15.6722 28.9216 15.1238 28.5976 14.5506C28.2486 14.9494 27.9246 15.3481 27.5756 15.7469C27.3762 15.5725 27.2018 15.4229 27.0273 15.2734C27.5258 14.6752 27.9994 14.1019 28.4729 13.5287C28.9216 12.9554 28.8966 12.3074 28.4231 11.8836C28.0492 12.5317 27.6753 13.2046 27.2766 13.8776C27.0273 13.7031 26.8279 13.5785 26.6534 13.4539C26.8279 13.1797 26.9775 12.9554 27.1021 12.7311C27.6753 11.8089 27.9994 10.8119 28.0243 9.74012C28.0243 9.56565 27.8747 9.39118 27.8 9.24163C27.6753 9.36626 27.5258 9.49088 27.451 9.64043C27.0024 11.086 26.1799 12.2824 25.0084 13.2794C23.9117 14.2265 22.8151 15.1737 21.7184 16.0959C20.3226 17.2923 19.2509 18.713 18.5031 20.3829C18.3286 20.7568 18.204 21.1306 18.0295 21.5294C17.8052 21.4547 17.5809 21.3799 17.3317 21.2802C17.6058 20.6321 17.8551 20.0589 18.1043 19.4607C17.1323 18.5385 16.3845 17.4917 15.886 16.2454C15.7614 15.9214 15.6617 15.5974 15.5122 15.2734C15.238 14.6752 14.7395 14.401 14.0665 14.401C13.4185 14.401 12.9449 14.6752 12.6458 15.2484C12.4215 15.6722 12.5212 16.1457 13.0197 16.4947C13.2191 16.6442 13.593 16.5196 13.8921 16.4947C13.9668 16.4947 14.0416 16.4199 14.0416 16.4199C14.241 16.5944 14.4155 16.7439 14.6149 16.9184C14.3906 17.0679 14.1662 17.1926 13.917 17.3421C14.565 18.3391 14.8641 19.4607 15.1383 20.6072C15.6866 22.7507 16.9578 24.3708 18.8521 25.4924C20.0983 26.2152 21.4691 26.4894 22.8898 26.5642C23.3135 26.5891 23.5628 26.7387 23.812 27.0627C24.6595 28.1344 25.5318 29.2062 26.4042 30.253C26.8528 30.7764 27.3762 30.8263 27.8997 30.3527C27.127 29.7047 26.3793 29.0317 25.6066 28.3588C25.7811 28.1594 25.9306 27.9849 26.0802 27.8104C26.7781 28.4086 27.451 28.9819 28.0991 29.5551C28.5477 29.929 28.7222 29.929 29.121 29.4804C29.2954 29.281 29.3951 29.0068 29.5696 28.7326C28.5976 28.3588 27.7252 28.0347 26.8279 27.6858C26.9027 27.4615 26.9775 27.2621 27.0772 27.0128ZM20.6965 12.1578C20.6715 12.1329 20.6466 12.108 20.6466 12.083C20.6466 11.8089 20.6715 11.5098 20.6217 11.2356C20.5968 11.0611 20.4971 10.9116 20.4223 10.762C20.3226 10.9116 20.2229 11.0362 20.1232 11.1857C20.0983 11.2356 20.0734 11.3353 20.0734 11.4101C19.6496 13.5536 19.0016 15.6223 18.1292 17.6163C17.8302 18.2892 17.8302 18.3142 18.5031 18.8127C19.2259 17.6163 20.0983 16.5445 21.1451 15.6472C21.6187 15.2484 22.0673 14.8497 22.5409 14.4509C22.8649 14.1767 22.84 13.9773 22.4412 13.8028C22.2418 13.728 22.0175 13.7031 21.7932 13.6782C21.5938 12.3074 21.5938 12.3074 20.6965 12.1578ZM13.3188 28.3089C12.9699 27.8353 12.6458 27.3867 12.3218 26.9381C11.7984 28.2092 12.5461 29.1065 14.0665 29.1065C14.6398 27.935 14.1662 26.7885 13.0696 26.7137C13.3437 27.1125 13.6179 27.4864 13.8921 27.8852C13.7176 28.0347 13.5431 28.1594 13.3188 28.3089ZM13.5182 24.3459C13.2939 23.4237 12.4963 22.8255 11.599 22.9751C11.8233 23.9222 12.6458 24.4954 13.5182 24.3459ZM10.4774 23.0997C9.72968 23.2243 9.30596 24.3708 9.72968 24.9441C10.5771 24.645 10.8762 23.8474 10.4774 23.0997ZM8.85732 21.006C9.62998 21.0808 10.2282 20.4826 10.2531 19.6601C9.50536 19.5853 8.88224 20.1835 8.85732 21.006ZM11.0756 19.6601C11.0756 20.4826 11.6987 21.0808 12.4714 21.0309C12.4714 20.2084 11.8483 19.6102 11.0756 19.6601ZM12.1723 16.6193C12.1224 16.6193 12.0726 16.6193 12.0227 16.6193C11.9729 16.8436 11.8981 17.0929 11.8483 17.3172C12.0477 17.2175 12.2221 17.1178 12.4465 17.0181C12.3218 16.8436 12.2471 16.7439 12.1723 16.6193Z" fill="#EEEBE7"/>
<path d="M22.5907 22.1526C22.5409 21.9283 22.4661 21.704 22.4163 21.4797C22.6157 21.4049 22.7901 21.38 22.9397 21.3052C23.3385 21.1307 23.5877 20.8067 23.5877 20.383C23.5877 20.1088 23.6874 20.0091 23.9367 19.9593C24.161 19.9094 24.4102 19.8596 24.6345 19.7848C25.0583 19.6353 25.158 19.3611 24.9336 18.9124C24.809 18.9872 24.7093 19.062 24.5598 19.1368C24.4102 18.9623 24.2856 18.7629 24.1361 18.5884C24.5598 18.0152 25.5069 17.8905 25.4072 16.8686C25.2327 17.0182 25.0832 17.1179 24.9336 17.2425C24.7841 17.068 24.6345 16.9185 24.4601 16.744C24.6844 16.4698 24.9336 16.1957 25.158 15.9464C25.2078 15.8716 25.2577 15.7969 25.2826 15.7221C25.3075 15.4479 25.3324 15.1488 25.3324 14.8747C25.1081 14.9245 24.8838 14.9993 24.6345 15.0491C24.5847 15.0491 24.5598 15.0741 24.4601 15.099C24.3604 14.8996 24.2607 14.7251 24.1361 14.4759C24.3853 14.3512 24.6096 14.2017 24.8589 14.1269C25.482 13.9026 26.1799 14.3263 26.13 14.9744C26.0552 15.747 26.0303 16.5197 26.1051 17.2923C26.1549 17.6662 25.806 18.0899 25.6066 18.5635C26.0552 19.5356 25.7312 20.2085 24.5847 20.5824C24.4601 20.6322 24.3105 20.7569 24.2607 20.8566C23.9367 21.6541 23.5379 21.9782 22.5907 22.1526Z" fill="#EEEBE7"/>
<path d="M14.1663 15.5227C13.8921 15.6971 13.7425 15.8716 13.6179 15.8467C13.4933 15.8218 13.3188 15.6224 13.2939 15.4728C13.269 15.3731 13.4933 15.1488 13.6179 15.1488C13.7425 15.1737 13.8921 15.3482 14.1663 15.5227Z" fill="#EEEBE7"/>
</svg>
