<svg width="40" height="39" viewBox="0 0 40 39" fill="none" xmlns="http://www.w3.org/2000/svg">
<rect width="40" height="39" rx="19.5" fill="#FFB700"/>
<path d="M21.8877 9.02206C24.2608 9.02206 26.6339 9.02206 29.0069 9.02206C29.8719 9.02206 30.2489 9.39908 30.2489 10.264C30.2489 13.6573 30.2489 17.0284 30.2489 20.4216C30.2489 20.6878 30.2489 20.8874 30.5816 20.9983C30.9586 21.1313 31.0917 21.7967 30.9364 22.4398C30.8477 22.7947 30.5594 22.9943 30.0936 22.9943C29.2509 22.9943 28.4303 22.9943 27.5875 22.9943C24.7487 22.9943 21.9099 22.9943 19.0711 23.0165C18.7606 23.0165 18.4501 23.1717 18.1618 23.2826C17.9622 23.3713 17.94 24.1254 18.1174 24.325C18.3392 24.5689 18.561 24.7464 18.938 24.7464C21.1115 24.7242 22.6418 26.3432 22.5753 28.5166C22.5531 29.4259 21.9764 29.9804 21.0671 29.9804C17.8735 29.9804 14.6798 29.9804 11.4862 29.9804C10.5769 29.9804 10.0002 29.4038 10.0002 28.4945C9.97807 26.2323 11.4418 24.7464 13.704 24.7242C14.3472 24.7242 14.8129 23.9479 14.5024 23.3713C14.4581 23.2826 14.3472 23.2382 14.2363 23.1939C12.9721 22.5285 12.1959 21.5083 11.841 20.1333C11.7967 19.9781 11.6414 19.8228 11.5084 19.7563C10.8208 19.4901 10.3773 18.98 10.3551 18.2482C10.3107 17.0284 10.2664 15.7864 10.3773 14.5666C10.5325 12.8589 11.5305 11.75 13.1717 11.2399C13.4379 11.1512 13.5266 11.0624 13.5044 10.7963C13.4822 10.5967 13.5044 10.3971 13.5044 10.1753C13.5044 9.39908 13.9036 8.99988 14.702 8.99988C17.0973 9.02206 19.4925 9.02206 21.8877 9.02206ZM20.5349 20.9095C21.2002 20.9095 21.8434 20.9095 22.4644 20.9095C23.0854 20.9095 23.7063 20.9095 24.3273 20.9095C24.416 19.8006 24.7044 19.5123 25.7689 19.5123C26.2125 19.5123 26.6782 19.5123 27.1218 19.5123C28.1863 19.5123 28.4525 19.7563 28.5633 20.8208C28.5633 20.843 28.5855 20.8652 28.6077 20.8652C28.9404 20.8652 29.2509 20.8652 29.6057 20.8652C29.6057 20.6878 29.6057 20.5325 29.6057 20.3994C29.6057 17.0949 29.6057 13.7682 29.6057 10.4636C29.6057 9.77611 29.5835 9.73176 28.896 9.73176C24.2386 9.73176 19.5812 9.73176 14.946 9.73176C14.8129 9.73176 14.6798 9.6874 14.5911 9.75393C14.4581 9.82047 14.2806 9.95354 14.2585 10.0866C14.2141 10.4193 14.2363 10.752 14.2363 11.129C15.1012 11.129 15.9218 11.129 16.7424 11.129C17.6517 11.129 18.6054 11.1068 19.5368 10.7963C19.8473 10.7076 20.0691 10.8185 20.2687 11.0403C20.9341 11.7721 21.3998 12.5927 21.7325 13.5242C22.2648 14.988 22.2648 16.4961 22.2426 18.0042C22.2204 18.8913 21.8434 19.4236 21.0228 19.7563C20.9119 19.8006 20.801 19.8893 20.7566 19.9781C20.6679 20.2664 20.6014 20.5547 20.5349 20.9095ZM16.9642 14.7884C16.6093 14.9658 16.321 15.1876 15.9883 15.2763C14.9903 15.5424 13.9701 15.7642 12.9721 15.9416C12.5729 16.0082 12.4398 16.1634 12.4398 16.5404C12.462 17.4054 12.4398 18.2925 12.462 19.1575C12.462 21.1979 14.0145 22.8169 16.0992 22.9721C18.0509 23.1052 19.8695 21.6414 20.0913 19.6454C20.2022 18.5808 20.1357 17.4941 20.1578 16.4074C20.1578 16.1634 20.0248 15.986 19.7808 15.9638C18.6941 15.8751 17.7182 15.5646 16.9642 14.7884ZM11.1092 16.7179C11.3531 16.5404 11.6858 16.4296 11.7523 16.23C11.9519 15.5424 12.3733 15.2985 13.0387 15.2319C14.3693 15.0989 15.7 14.9214 16.7868 14.0121C16.8755 13.9234 17.2081 13.9678 17.2747 14.0565C17.94 14.8771 18.8271 15.1654 19.8252 15.2763C20.2687 15.3206 20.6679 15.5203 20.7566 15.9638C20.8454 16.4517 21.2002 16.5183 21.5551 16.6735C21.5329 14.8106 21.1115 13.125 19.8917 11.7056C19.803 11.5947 19.6034 11.5504 19.4481 11.5725C18.7384 11.6391 18.0287 11.7721 17.2969 11.8165C16.2545 11.8609 15.2343 11.8165 14.1919 11.8387C12.6394 11.8387 11.3309 12.9032 11.1092 14.4113C11.0204 15.1432 11.1092 15.8751 11.1092 16.7179ZM13.3048 25.5004C11.8632 25.5226 10.7321 26.7646 10.7099 28.317C10.7099 29.0933 10.9096 29.2929 11.6636 29.2929C14.4359 29.2929 17.2081 29.2929 19.9804 29.2929C20.3574 29.2929 20.7345 29.2929 21.1337 29.2929C21.6438 29.2707 21.8877 29.0267 21.8877 28.5388C21.8877 28.3836 21.8877 28.2061 21.8877 28.0509C21.799 26.6759 20.557 25.4782 19.2929 25.5226C19.5147 26.1436 19.0046 26.4541 18.7606 26.8755C18.4501 27.3634 18.0731 27.6739 17.4965 27.319C17.2747 27.6739 17.0973 27.9622 16.8976 28.2505C16.565 28.7162 16.0771 28.7162 15.7666 28.2283C15.567 27.9178 15.3674 27.6073 15.1899 27.319C14.2585 27.6073 13.1717 26.5206 13.3048 25.5004ZM30.2489 21.6192C30.0493 21.6192 29.894 21.6192 29.7388 21.6192C26.7004 21.6192 23.662 21.6192 20.6236 21.6192C20.0691 21.6192 19.9139 21.7301 19.7143 22.2846C23.2184 22.2846 26.7447 22.2846 30.2711 22.2846C30.2489 22.0628 30.2489 21.8632 30.2489 21.6192ZM17.7182 24.946C17.4965 25.2121 17.2969 25.4782 17.0973 25.7222C16.4541 26.5206 16.1658 26.5428 15.5226 25.7444C15.323 25.4782 15.1012 25.2343 14.9238 25.0125C14.5911 25.3008 14.2806 25.5669 13.9701 25.8331C14.2141 26.1436 14.4359 26.4319 14.6355 26.7202C15.3895 26.4319 15.4117 26.4319 15.8331 27.1194C15.9662 27.3412 16.1214 27.563 16.2988 27.8291C16.5428 27.4521 16.7424 27.1416 16.942 26.8089C17.1194 26.5428 17.3412 26.4541 17.6517 26.5871C17.7404 26.6315 17.8513 26.6759 17.9622 26.7202C18.184 26.4097 18.4058 26.1214 18.6054 25.8553C18.2949 25.5448 18.0066 25.2565 17.7182 24.946ZM15.2565 23.6596C15.0347 24.5689 15.9218 24.9238 16.2988 25.6778C16.6315 24.9016 17.5408 24.5689 17.2969 23.6596C16.6093 23.6596 15.9662 23.6596 15.2565 23.6596ZM27.7871 20.8874C27.8536 20.3107 27.7649 20.222 27.2548 20.222C26.7004 20.222 26.1459 20.222 25.5915 20.222C25.0814 20.222 24.9927 20.3551 25.1036 20.8874C25.9907 20.8874 26.8778 20.8874 27.7871 20.8874ZM20.8454 19.0466C21.3111 18.8691 21.5772 18.4699 21.5329 18.0264C21.4885 17.605 21.2224 17.2723 20.8454 17.2058C20.8454 17.8046 20.8454 18.4034 20.8454 19.0466ZM11.7301 19.0466C11.7301 18.4256 11.7301 17.8268 11.7301 17.2058C11.2644 17.3832 11.0648 17.6715 11.0648 18.1373C11.0648 18.5808 11.2644 18.8691 11.7301 19.0466Z" fill="white"/>
<path d="M25.1922 11.8165C24.3717 11.8165 23.5511 11.8165 22.7305 11.8165C22.4643 11.8165 22.2426 11.7722 22.2426 11.4617C22.2426 11.1512 22.4865 11.1068 22.7305 11.1068C24.3717 11.1068 26.035 11.1068 27.6762 11.1068C27.9423 11.1068 28.1641 11.1733 28.1419 11.4838C28.1198 11.75 27.9202 11.8165 27.6762 11.8165C26.8556 11.8165 26.035 11.8165 25.1922 11.8165Z" fill="white"/>
<path d="M25.5249 16.0082C24.8374 16.0082 24.1277 16.0082 23.4402 16.0082C23.1962 16.0082 22.9523 15.986 22.9523 15.6533C22.9523 15.3428 23.1962 15.2985 23.4402 15.2985C24.8596 15.2985 26.279 15.2985 27.6984 15.2985C27.9645 15.2985 28.1863 15.365 28.1641 15.6533C28.1641 15.9416 27.9424 15.986 27.6984 15.986C26.9665 16.0082 26.2568 16.0082 25.5249 16.0082Z" fill="white"/>
<path d="M24.5047 18.115C24.1277 18.115 23.7507 18.1372 23.3737 18.0929C23.2184 18.0707 23.0853 17.8711 22.9523 17.7602C23.0853 17.6493 23.2184 17.4275 23.3515 17.4053C24.1277 17.361 24.9039 17.361 25.6802 17.4053C25.8132 17.4053 25.9463 17.6271 26.0794 17.7602C25.9463 17.8711 25.8132 18.0707 25.658 18.0929C25.281 18.1372 24.8818 18.115 24.5047 18.115Z" fill="white"/>
<path d="M26.8112 13.2137C27.1217 13.2137 27.4322 13.1693 27.7427 13.2359C27.898 13.2581 28.031 13.4577 28.1641 13.5686C28.031 13.6794 27.898 13.9012 27.7649 13.9012C27.1217 13.9456 26.4564 13.9456 25.8132 13.9012C25.658 13.9012 25.4362 13.7016 25.414 13.5686C25.3697 13.3024 25.5914 13.2137 25.8354 13.2137C26.1681 13.2137 26.5007 13.2137 26.8112 13.2137Z" fill="white"/>
<path d="M23.8172 13.2137C23.9946 13.2137 24.1942 13.1693 24.3494 13.2359C24.4825 13.2802 24.6378 13.4355 24.6599 13.5686C24.6821 13.6573 24.5047 13.879 24.3938 13.9012C24.0168 13.9456 23.6397 13.9456 23.2627 13.9012C23.1518 13.879 22.9966 13.6794 22.9966 13.5686C22.9966 13.4577 23.1518 13.2802 23.2849 13.2359C23.418 13.1915 23.6176 13.2137 23.8172 13.2137Z" fill="white"/>
<path d="M16.3211 21.9518C15.6335 21.9518 15.1013 21.7301 14.7021 21.1978C14.5468 20.9982 14.4803 20.7986 14.7242 20.6212C14.9238 20.4659 15.1013 20.5768 15.2565 20.732C15.8775 21.4196 16.7646 21.4418 17.3856 20.7542C17.563 20.5768 17.7183 20.4659 17.9401 20.6433C18.1618 20.8208 18.0731 21.0425 17.9179 21.22C17.4743 21.7522 16.9421 21.974 16.3211 21.9518Z" fill="white"/>
</svg>
