<svg width="132" height="136" viewBox="0 0 132 136" fill="none" xmlns="http://www.w3.org/2000/svg">
<g clip-path="url(#clip0_2012_1009)">
<path d="M69.4052 11.8543C74.2612 19.7572 74.9718 30.6089 82.5519 35.9168C88 39.7502 95.284 39.3964 101.857 40.6349C116.307 43.4068 128.565 55.497 131.408 69.8873C133.125 78.6158 130.875 88.9957 123.176 93.5369C120.038 95.3652 116.248 96.0729 113.524 98.4909C109.852 101.735 109.201 107.043 107.779 111.702C104.404 122.907 94.9879 132.167 83.6178 135.056C72.2477 137.946 59.2787 133.936 51.8762 124.853C46.2504 117.953 43.8816 108.753 37.6044 102.442C31.3863 96.1908 22.385 93.8318 14.5088 89.8214C6.63262 85.8699 -1.00668 78.4979 5.09843e-05 69.7693C0.888342 62.3383 7.52091 57.2073 12.1992 51.4276C22.7403 38.5707 15.9893 19.3444 26.708 8.07982C38.315 -3.9514 60.6999 -2.41801 69.4052 11.8543Z" fill="#00509D"/>
</g>
<defs>
<clipPath id="clip0_2012_1009">
<rect width="132" height="136" fill="white"/>
</clipPath>
</defs>
</svg>
