<svg width="131" height="147" viewBox="0 0 131 147" fill="none" xmlns="http://www.w3.org/2000/svg">
<path d="M166.399 128.991L170.372 126.963C171.611 129.525 172.851 132.087 173.793 134.688L169.744 136.12C168.84 133.817 167.6 131.255 166.399 128.991ZM156.704 116.433L159.668 113.629C161.723 115.48 163.817 117.629 165.652 120.113L162.016 122.4C160.418 120.187 158.721 117.987 156.704 116.433ZM142.859 107.641L144.517 104.098C147.387 105.238 149.96 106.417 152.611 108.191L150.319 111.514C148.005 109.999 145.432 108.82 142.859 107.641ZM126.586 105.011L126.679 101.066C129.693 100.978 132.745 101.187 135.836 101.694L134.85 105.755C132.056 105.209 129.302 104.962 126.586 105.011ZM108.603 105.528C111.424 103.952 114.321 102.971 117.219 101.99L118.316 105.781C115.677 106.426 113.076 107.368 110.553 108.905L108.603 105.528ZM105.284 114.932L109.334 113.5C110.276 116.1 111.257 118.998 111.604 121.676L107.477 122.513C106.833 119.874 106.227 117.533 105.284 114.932ZM107.349 137.857C107.531 136.926 107.972 135.659 108.115 134.43C108.22 132.904 108.363 131.676 108.17 130.188L112.412 130.243C112.308 131.769 112.5 133.257 112.098 134.821C111.994 136.348 111.591 137.912 111.448 139.141L107.349 137.857ZM97.1595 101.264L100.46 98.7182C102.256 100.905 104.09 103.39 105.628 105.913L101.953 107.902C100.454 105.677 98.9556 103.451 97.1595 101.264ZM95.0259 117.473C96.8384 115.12 98.651 112.767 101.097 110.635L103.902 113.599C101.714 115.395 100.161 117.412 98.6456 119.726L95.0259 117.473ZM94.2258 143.189L97.1898 140.384C98.8703 141.679 101.107 142.599 103.19 142.329L104.286 146.12L103.691 146.197C100.319 146.634 96.5564 145.609 94.2258 143.189ZM84.7078 90.7776L86.9997 87.4554C89.6112 88.9318 91.9638 90.7444 94.3164 92.5569L91.3909 95.6588C89.2367 93.8206 87.0218 92.2927 84.7078 90.7776ZM90.0935 134.649C89.8235 132.567 90.1485 130.407 90.4735 128.247C90.6553 127.316 90.8371 126.385 91.0574 125.752L95.1179 126.738C94.8976 127.371 94.7158 128.302 94.4954 128.936C94.1318 130.798 94.0658 132.622 94.2586 134.109L90.0935 134.649ZM69.1012 84.7342L70.0873 80.6737C73.2167 81.478 76.0486 82.3208 78.5829 83.2023L76.9633 87.0424C74.765 86.4199 72.2306 85.5385 69.1012 84.7342ZM52.2202 82.0827L52.9087 78.0608C55.9996 78.5676 58.7543 78.8154 61.8451 79.3222L61.1565 83.3441C58.0657 82.8373 54.9749 82.3306 52.2202 82.0827ZM33.456 -22.9767C34.0013 -25.77 34.2878 -28.2272 33.9406 -30.9048L38.1443 -31.1473C38.194 -28.4312 37.9847 -25.3789 37.4393 -22.5856L33.456 -22.9767ZM27.9175 -8.14141L28.1379 -8.77501C29.3554 -11.0504 30.2754 -13.2873 31.1954 -15.5242L35.2945 -14.2406C34.3745 -12.0037 33.1955 -9.43076 31.978 -7.15532L31.4601 -6.48316L27.9175 -8.14141ZM34.7055 79.2109L35.6916 75.1504C36.9202 75.2936 38.1874 75.7343 39.416 75.8775C40.9807 76.2797 42.5068 76.3843 44.0715 76.7865L43.383 80.8084C41.8568 80.7038 40.2921 80.3016 38.4299 79.938C37.4988 79.7562 35.9727 79.6516 34.7055 79.2109ZM18.5169 5.68205C20.0319 3.36804 21.8445 1.01546 23.3595 -1.29855L26.9793 0.954726C25.4642 3.26874 23.6517 5.62132 22.1366 7.93533L18.5169 5.68205ZM17.8703 73.0242L20.1236 69.4044C22.399 70.6219 24.972 71.8009 27.8038 72.6438L26.1842 76.4839C23.0419 75.5804 20.1843 74.5392 17.8703 73.0242ZM8.96934 19.9279C10.1869 17.6525 11.7019 15.3385 13.7734 12.6498L17.3932 14.9031C15.6192 17.5532 14.1041 19.8672 12.848 21.8451L8.96934 19.9279ZM1.95988 35.8614C2.80275 33.0296 3.6842 30.4952 4.82458 27.6247L8.96224 29.2058C7.78328 31.7788 6.90181 34.3132 6.31788 36.809L1.95988 35.8614ZM4.63076 61.1278L8.30553 59.1388C9.50664 61.4031 11.2642 63.2928 13.3193 65.1439L10.3938 68.2458C8.26161 65.7997 6.16796 63.6511 4.63076 61.1278ZM0.797746 50.2301C0.566303 48.4451 0.593785 46.3239 0.621281 44.2028L4.86358 44.2578C4.61572 47.0125 4.92431 49.3926 5.56898 52.0316L1.44242 52.8692C1.02919 52.0152 0.913467 51.1227 0.797746 50.2301Z" fill="#EB0723"/>
</svg>
