<svg width="27" height="27" viewBox="0 0 27 27" fill="none" xmlns="http://www.w3.org/2000/svg">
<g clip-path="url(#clip0_589_6171)">
<path d="M27 13.5C27 6.04336 20.9566 0 13.5 0C6.04336 0 0 6.04336 0 13.5C0 20.2395 4.93594 25.824 11.3906 26.8365V17.4023H7.96289V13.5H11.3906V10.5258C11.3906 7.14287 13.4051 5.27344 16.49 5.27344C17.9666 5.27344 19.5117 5.53711 19.5117 5.53711V8.85938H17.8084C16.1314 8.85938 15.6094 9.90088 15.6094 10.9688V13.5H19.3535L18.755 17.4023H15.6094V26.8365C22.0641 25.824 27 20.2395 27 13.5Z" fill="#E2ECF5"/>
</g>
<defs>
<clipPath id="clip0_589_6171">
<rect width="27" height="27" fill="white"/>
</clipPath>
</defs>
</svg>
