<svg width="48" height="48" viewBox="0 0 48 48" fill="none" xmlns="http://www.w3.org/2000/svg">
<g clip-path="url(#clip0_817_11363)">
<path d="M39 22.5C39 15.0434 32.9566 9 25.5 9C18.0434 9 12 15.0434 12 22.5C12 29.2395 16.9359 34.824 23.3906 35.8365V26.4023H19.9629V22.5H23.3906V19.5258C23.3906 16.1429 25.4051 14.2734 28.49 14.2734C29.9666 14.2734 31.5117 14.5371 31.5117 14.5371V17.8594H29.8084C28.1314 17.8594 27.6094 18.9009 27.6094 19.9688V22.5H31.3535L30.755 26.4023H27.6094V35.8365C34.0641 34.824 39 29.2395 39 22.5Z" fill="#E2ECF5"/>
</g>
<defs>
<clipPath id="clip0_817_11363">
<rect width="27" height="27" fill="white" transform="translate(12 9)"/>
</clipPath>
</defs>
</svg>
