<svg width="48" height="48" viewBox="0 0 48 48" fill="none" xmlns="http://www.w3.org/2000/svg">
<path d="M22.8525 13.5063C23.1932 13.5058 23.5738 13.5063 24.0009 13.5063C27.4186 13.5063 27.8242 13.5192 29.1738 13.5806C30.4213 13.6376 31.0986 13.8458 31.5497 14.021C32.1471 14.253 32.5737 14.53 33.0214 14.978C33.4694 15.426 33.7459 15.8534 33.9785 16.4507C34.1536 16.9014 34.3631 17.5788 34.4199 18.8267C34.4812 20.1758 34.4941 20.5817 34.4941 23.9976C34.4941 27.4129 34.4812 27.8185 34.4199 29.1675C34.3628 30.4153 34.1536 31.0928 33.9785 31.5435C33.7465 32.1407 33.4693 32.5665 33.0214 33.0142C32.5734 33.4622 32.1474 33.7392 31.5497 33.9712C31.0991 34.1472 30.4215 34.3555 29.1738 34.4126C27.8244 34.4739 27.4186 34.4878 24.0009 34.4878C20.5834 34.4878 20.1782 34.4739 18.829 34.4126C17.581 34.355 16.9036 34.1464 16.4521 33.9712C15.8549 33.7392 15.4283 33.462 14.9804 33.0142C14.5324 32.5662 14.2549 32.1401 14.0224 31.5425C13.8472 31.0918 13.6378 30.4143 13.581 29.1665C13.5197 27.8174 13.5078 27.4116 13.5078 23.9937C13.5078 20.5757 13.5197 20.1721 13.581 18.8228C13.6381 17.575 13.8472 16.8979 14.0224 16.4468C14.2544 15.8495 14.5324 15.4231 14.9804 14.9751C15.4284 14.5271 15.8548 14.2496 16.4521 14.0171C16.9033 13.8411 17.581 13.633 18.829 13.5757C20.0097 13.5224 20.4673 13.5061 22.8525 13.5034V13.5063ZM24.0009 17.4263C20.3709 17.4264 17.4277 20.3704 17.4277 24.0005C17.4279 27.6304 20.371 30.5716 24.0009 30.5718C27.6309 30.5718 30.573 27.6305 30.5732 24.0005C30.5732 20.3703 27.6311 17.4263 24.0009 17.4263ZM30.8339 15.6313C29.9859 15.6313 29.2978 16.3192 29.2978 17.1675C29.2978 18.0155 29.9859 18.7036 30.8339 18.7036C31.6819 18.7035 32.37 18.0154 32.3701 17.1675C32.3701 16.3195 31.6819 15.6314 30.8339 15.6313Z" fill="#E2ECF5"/>
<path d="M24.0012 19.7334C26.3575 19.7334 28.2679 21.6436 28.2679 24.0001C28.2679 26.3564 26.3575 28.2668 24.0012 28.2668C21.6447 28.2668 19.7345 26.3564 19.7345 24.0001C19.7345 21.6436 21.6447 19.7334 24.0012 19.7334Z" fill="#E2ECF5"/>
</svg>
