<svg width="27" height="27" viewBox="0 0 27 27" fill="none" xmlns="http://www.w3.org/2000/svg">
<path d="M12.8295 7.59414C13.1173 7.59396 13.4456 7.59414 13.8135 7.59414C16.6729 7.59414 17.0136 7.60459 18.1581 7.65449C19.2121 7.70047 19.7429 7.86517 20.0934 7.9993C20.5779 8.17731 20.9226 8.39063 21.2865 8.75469C21.6508 9.11875 21.8638 9.46406 22.0424 9.94844C22.1763 10.2986 22.3423 10.8294 22.3881 11.8839C22.4379 13.0275 22.4484 13.3686 22.4484 16.2234C22.4484 19.0777 22.4379 19.4185 22.3881 20.5621C22.3421 21.6166 22.1763 22.1475 22.0424 22.4976C21.8644 22.982 21.6507 23.3249 21.2865 23.6889C20.9224 24.053 20.5782 24.2664 20.0934 24.4444C19.7433 24.5792 19.2123 24.7439 18.1581 24.7899C17.0138 24.8397 16.6729 24.8513 13.8135 24.8513C10.9544 24.8513 10.614 24.8397 9.46999 24.7899C8.41577 24.7434 7.88489 24.5784 7.53439 24.4444C7.04984 24.2664 6.70557 24.0528 6.34139 23.6889C5.97721 23.325 5.76389 22.9807 5.58545 22.4963C5.45132 22.1461 5.28529 21.6152 5.23951 20.5608C5.18961 19.4172 5.17916 19.0763 5.17916 16.2195C5.17916 13.3627 5.18961 13.024 5.23951 11.8802C5.28549 10.8258 5.45132 10.295 5.58545 9.94429C5.76346 9.45991 5.97721 9.11459 6.34139 8.75053C6.70557 8.38647 7.04984 8.17315 7.53439 7.99514C7.88509 7.86021 8.41577 7.6955 9.46999 7.64952C10.4554 7.60715 10.8468 7.59375 12.8295 7.59192V7.59414ZM13.8135 9.71189C11.06 9.71189 8.82291 11.9496 8.82291 14.7031C8.82291 17.4564 11.06 19.6924 13.8135 19.6924C16.567 19.6924 18.8031 17.4565 18.8032 14.7031C18.8032 11.9496 16.5671 9.71189 13.8135 9.71189ZM18.9963 8.78089C18.3593 8.78089 17.8423 9.29771 17.8423 9.93491C17.8423 10.5719 18.3593 11.0887 18.9963 11.0887C19.6333 11.0887 20.1501 10.5718 20.1502 9.93491C20.1502 9.29791 19.6333 8.78109 18.9963 8.78089Z" fill="#E2ECF5"/>
<path d="M13.8136 11.5438C15.8198 11.5438 17.4511 13.1749 17.4511 15.1813C17.4511 17.1875 15.8198 18.8188 13.8136 18.8188C11.8072 18.8188 10.1761 17.1875 10.1761 15.1813C10.1761 13.1749 11.8072 11.5438 13.8136 11.5438Z" fill="#E2ECF5"/>
</svg>