<svg width="27" height="27" viewBox="0 0 27 27" fill="none" xmlns="http://www.w3.org/2000/svg">
<path d="M13.5 8.55011C13.5 8.55011 18.0032 8.54989 19.1261 8.85881C19.7457 9.02886 20.2333 9.5299 20.3988 10.1661C20.6998 11.3193 20.6999 13.7252 20.6999 13.7252C20.6999 13.7515 20.6981 16.137 20.3988 17.2874C20.2333 17.9237 19.7457 18.4247 19.1261 18.5936C18.0032 18.9 13.5 18.8998 13.5 18.8998C13.4999 18.8998 8.9969 18.9 7.87425 18.5936C7.25445 18.4247 6.7662 17.9237 6.6006 17.2874C6.30146 16.1371 6.30011 13.7515 6.30011 13.7252C6.30011 13.7252 6.29981 11.3193 6.6006 10.1661C6.7662 9.52987 7.25445 9.02886 7.87425 8.85881C8.9969 8.54989 13.4999 8.55011 13.5 8.55011Z" fill="#E2ECF5"/>
<path d="M12.15 16.1999V11.6999L15.75 13.95L12.15 16.1999Z" fill="#00509D"/>
</svg>