<svg width="48" height="48" viewBox="0 0 48 48" fill="none" xmlns="http://www.w3.org/2000/svg">
<path d="M24 15.2002C24 15.2002 32.0057 15.1997 34.002 15.749C35.1033 16.0513 35.9703 16.9424 36.2646 18.0732C36.7996 20.1231 36.7998 24.4004 36.7998 24.4004C36.7998 24.4472 36.7966 28.6879 36.2646 30.7266C35.9703 31.8575 35.1033 32.7483 34.002 33.0508C32.0057 33.6 24 33.5996 24 33.5996C23.9998 33.5996 15.9944 33.6 13.998 33.0508C12.8966 32.7483 12.0288 31.8575 11.7344 30.7266C11.2026 28.6878 11.2002 24.4472 11.2002 24.4004C11.2002 24.4004 11.1996 20.1231 11.7344 18.0732C12.0288 16.9423 12.8966 16.0513 13.998 15.749C15.9944 15.1997 23.9998 15.2002 24 15.2002Z" fill="#E2ECF5"/>
<path d="M21.6 28.7998V20.7998L28 24.8L21.6 28.7998Z" fill="#00509D"/>
</svg>
