<svg width="395" height="360" viewBox="0 0 395 360" fill="none" xmlns="http://www.w3.org/2000/svg">
<path d="M267.759 347.321C243.692 331.526 227.238 302.228 199.077 297.378C178.758 293.664 159.138 304.264 139.195 309.196C95.3069 320.127 45.3173 302.293 17.9277 265.921C1.36824 243.777 -6.24472 211.843 9.00831 189.376C15.1888 180.223 24.8067 173.196 29.0135 163.014C34.7673 149.246 29.4314 133.488 27.0887 118.619C21.896 82.8482 35.4575 44.6447 63.173 22.0329C90.8886 -0.578912 132.036 -6.33191 164.776 9.18663C189.55 20.9903 208.555 43.8382 234.371 53.0328C260.079 62.372 288.075 57.3777 315.375 58.1907C342.567 59.1484 373.638 69.5723 382.419 95.3753C389.938 117.067 378.405 140.063 373.136 162.334C361.534 211.954 406.063 256.889 391.083 302.167C375.321 350.927 311.286 375.905 267.759 347.321Z" fill="#FFB700"/>
</svg>
