<svg width="324" height="94" viewBox="0 0 324 94" fill="none" xmlns="http://www.w3.org/2000/svg">
<path d="M267.725 174.083C246.474 175.21 223.734 166.754 204.92 174.872C191.249 180.622 184.346 193.251 174.736 203.173C153.621 225.047 116.128 234.856 83.7782 226.963C64.1519 222.115 45.473 209.036 44.5255 192.123C44.1194 185.245 46.6912 178.142 44.6609 171.489C41.9538 162.469 31.8022 156.606 23.8163 150.066C4.86672 134.168 -4.06666 110.039 2.29499 88.391C8.65663 66.7426 30.4487 48.4768 56.7074 43.9667C76.6045 40.5841 97.9904 44.8687 117.346 39.7948C136.702 34.8337 151.049 21.8672 167.562 12.0578C184.076 2.36111 207.086 -4.06577 223.735 5.51817C237.811 13.5236 241.195 29.3089 247.963 42.3881C263.123 71.4782 309.414 77.2286 320.648 105.417C332.965 135.634 306.165 172.053 267.725 174.083Z" fill="#00509D"/>
</svg>
