<svg width="255" height="169" viewBox="0 0 255 169" fill="none" xmlns="http://www.w3.org/2000/svg">
<path d="M181.551 163.199C164.877 154.817 151.635 137.749 133.483 136.295C120.364 135.114 109.11 142.667 97.089 146.764C70.6411 155.828 37.4999 147.593 16.692 126.78C4.09657 114.102 -3.86088 94.9429 3.47144 80.3531C6.43749 74.4108 11.7721 69.5865 13.3974 63.1203C15.6361 54.3727 10.7185 45.0035 7.76766 36.0178C0.94661 14.3771 5.65012 -9.76531 20.7873 -25.1157C35.9244 -40.4661 61.1686 -46.2092 83.2558 -38.4636C99.9754 -32.5654 114.175 -19.5881 131.289 -15.3448C148.349 -11.0071 165.417 -15.5765 182.627 -16.5495C199.783 -17.428 220.316 -12.7147 228.396 2.62449C235.274 15.512 230.329 30.2262 229.241 44.1578C226.904 75.1907 259.318 100.328 254.43 128.882C249.397 159.612 211.708 178.37 181.551 163.199Z" fill="#EB0723"/>
</svg>
