<svg width="368" height="372" viewBox="0 0 368 372" fill="none" xmlns="http://www.w3.org/2000/svg">
<path d="M237.95 359.334C213.24 342.977 196.346 312.634 167.433 307.612C146.571 303.765 126.428 314.743 105.952 319.851C60.8913 331.172 9.56639 312.701 -18.5548 275.033C-35.5566 252.1 -43.3729 219.028 -27.7125 195.76C-21.3669 186.281 -11.4921 179.004 -7.17292 168.459C-1.26548 154.2 -6.74392 137.88 -9.14914 122.481C-14.4806 85.4361 -0.556861 45.871 27.899 22.4533C56.3549 -0.964337 98.6018 -6.92237 132.216 9.14924C157.651 21.3736 177.164 45.0358 203.67 54.5581C230.064 64.2301 258.809 59.0578 286.838 59.8998C314.756 60.8916 346.656 71.687 355.672 98.4096C363.392 120.874 351.551 144.69 346.142 167.755C334.229 219.143 379.948 265.679 364.568 312.571C348.385 363.069 282.639 388.938 237.95 359.334Z" fill="#F7C953"/>
</svg>
