<svg width="315" height="111" viewBox="0 0 315 111" fill="none" xmlns="http://www.w3.org/2000/svg">
<path d="M260.506 167.327C239.808 168.416 217.66 160.25 199.336 168.089C186.02 173.641 179.297 185.835 169.937 195.416C149.371 216.537 112.853 226.009 81.3452 218.388C62.2294 213.706 44.0365 201.077 43.1136 184.746C42.7181 178.105 45.223 171.246 43.2455 164.823C40.6088 156.113 30.7214 150.452 22.9432 144.137C4.48662 128.786 -4.21435 105.487 1.9818 84.584C8.17794 63.6806 29.403 46.0433 54.9786 41.6884C74.358 38.4223 95.1876 42.5594 114.04 37.6602C132.892 32.8698 146.866 20.3495 162.95 10.8776C179.033 1.51464 201.445 -4.69106 217.66 4.56306C231.371 12.293 234.667 27.5351 241.258 40.1642C256.024 68.2532 301.111 73.8057 312.053 101.024C324.049 130.201 297.947 165.367 260.506 167.327Z" fill="#EB0723"/>
</svg>
