<svg width="67" height="148" viewBox="0 0 67 148" fill="none" xmlns="http://www.w3.org/2000/svg">
<path d="M-72.001 8.18865L-76.369 9.12162C-76.8841 6.22089 -77.3991 3.3202 -77.6171 0.462789L-73.3327 0.145559C-73.0729 2.6951 -72.5578 5.5958 -72.001 8.18865ZM-65.9876 23.4028L-69.5897 25.3893C-71.0796 22.9743 -72.5277 20.2516 -73.637 17.2642L-69.5242 15.9801C-68.5713 18.6307 -67.5193 21.2957 -65.9876 23.4028ZM-54.9732 35.9971L-57.5125 39.0804C-59.9772 37.1513 -62.1448 35.2655 -64.2289 32.764L-61.1372 30.0751C-59.3085 32.2255 -57.1409 34.1113 -54.9732 35.9971ZM-39.9821 43.1014L-41.1196 47.017C-44.0485 46.276 -46.9357 45.2272 -49.781 43.8705L-47.7523 40.0848C-45.204 41.3982 -42.614 42.4038 -39.9821 43.1014ZM-22.5074 47.5329C-25.6453 48.3312 -28.6997 48.5138 -31.754 48.6964L-31.8048 44.6076C-29.0894 44.6895 -26.3321 44.4636 -23.4912 43.622L-22.5074 47.5329ZM-16.8114 39.0493L-21.0958 39.3665C-21.3138 36.5091 -21.49 33.3438 -21.1139 30.573L-16.9131 30.8715C-16.9921 33.6856 -17.0294 36.1919 -16.8114 39.0493ZM-12.716 15.5763C-13.1384 16.4565 -13.8998 17.6014 -14.364 18.7895C-14.87 20.2855 -15.3343 21.4737 -15.5433 23.013L-19.6187 21.7909C-19.1127 20.2949 -18.9037 18.7556 -18.1006 17.3029C-17.5945 15.8069 -16.7914 14.3542 -16.3272 13.166L-12.716 15.5763ZM-12.6068 54.9415L-16.4643 56.5768C-17.6153 53.8974 -18.7245 50.91 -19.5367 47.966L-15.4657 46.9897C-14.6118 49.6259 -13.7578 52.2621 -12.6068 54.9415ZM-6.24662 39.3337C-8.6187 41.1856 -10.9908 43.0374 -13.9152 44.4948L-15.8321 40.7618C-13.2465 39.569 -11.2133 37.9817 -9.13829 36.0865L-6.24662 39.3337ZM1.35195 13.8598L-2.25022 15.8463C-3.52662 14.0904 -5.43897 12.5558 -7.51849 12.2526L-7.56931 8.16373L-6.97517 8.25035C-3.60832 8.74122 -0.252402 10.8003 1.35195 13.8598ZM-3.38584 68.8442L-6.47745 71.533C-8.60328 69.3394 -10.3902 66.8811 -12.1772 64.4229L-8.53324 62.1285C-6.94433 64.5579 -5.21459 66.6938 -3.38584 68.8442ZM3.06888 23.5289C2.77632 25.6839 1.88962 27.7523 1.00292 29.8207C0.580458 30.701 0.158 31.5813 -0.222665 32.1537L-3.87567 30.0514C-3.495 29.4789 -3.07254 28.5987 -2.69188 28.0262C-1.84697 26.2657 -1.29913 24.4618 -1.09016 22.9225L3.06888 23.5289ZM10.0563 79.1762L8.02762 82.9619C5.22405 81.2973 2.71755 79.676 0.508138 78.0981L3.08918 74.7069C5.04332 75.9337 7.25275 77.5116 10.0563 79.1762ZM25.6277 86.4697L23.8961 90.2987C21.0507 88.942 18.4606 87.9365 15.6153 86.5798L17.3469 82.7508C20.1922 84.1075 23.0376 85.4642 25.6277 86.4697ZM15.8272 196.6C14.5598 199.241 13.6313 201.618 13.2552 204.388L9.1379 203.474C9.81112 200.747 10.8232 197.755 12.0906 195.114L15.8272 196.6ZM25.1054 183.302L24.7247 183.874C22.9468 185.813 21.4659 187.795 19.9851 189.776L16.3739 187.366C17.8547 185.384 19.6745 183.138 21.4524 181.199L22.1301 180.67L25.1054 183.302ZM41.7514 94.1578L39.7227 97.9434C38.5762 97.4623 37.4715 96.6734 36.325 96.1922C34.9232 95.3599 33.4796 94.8355 32.0778 94.0032L33.8095 90.1743C35.253 90.6987 36.6548 91.531 38.3537 92.4066C39.2031 92.8444 40.6467 93.3688 41.7514 94.1578ZM37.8386 172.077C35.7636 173.972 33.3915 175.824 31.3165 177.719L28.4248 174.472C30.4998 172.576 32.8719 170.725 34.9469 168.829L37.8386 172.077ZM56.34 104.971L53.2066 107.968C51.3361 106.125 49.1685 104.239 46.662 102.618L49.243 99.2268C52.0327 100.994 54.5113 102.821 56.34 104.971ZM50.8255 160.47C49.0476 162.408 46.9726 164.304 44.2616 166.42L41.3699 163.173C43.7838 161.013 45.8588 159.118 47.595 157.487L50.8255 160.47ZM61.8135 146.479C60.2491 149.076 58.7264 151.366 56.8649 153.92L53.2955 151.202C55.1152 148.956 56.6379 146.666 57.8634 144.333L61.8135 146.479ZM65.9462 120.499L61.8753 121.476C61.3184 118.883 60.1256 116.511 58.6357 114.096L62.2797 111.802C63.686 114.833 65.1341 117.555 65.9462 120.499ZM66.7486 132.442C66.4978 134.289 65.9082 136.401 65.3185 138.513L61.2431 137.291C62.2134 134.607 62.5477 132.144 62.6268 129.33L66.8276 129.628C66.9993 130.595 66.8739 131.519 66.7486 132.442Z" fill="#FFB700"/>
</svg>
