<svg width="294" height="144" viewBox="0 0 294 144" fill="none" xmlns="http://www.w3.org/2000/svg">
<path d="M85.1134 137.822C104.315 128.252 119.564 108.767 140.467 107.107C155.574 105.758 168.534 114.382 182.378 119.059C212.835 129.407 251 120.005 274.962 96.2439C289.467 81.7707 298.63 59.897 290.186 43.2405C286.771 36.4565 280.628 30.9488 278.756 23.5667C276.178 13.5799 281.841 2.88346 285.239 -7.37511C293.094 -32.0813 287.678 -59.6437 270.246 -77.1685C252.814 -94.6934 223.743 -101.25 198.308 -92.4072C179.054 -85.6734 162.702 -70.8579 142.994 -66.0135C123.348 -61.0613 103.692 -66.278 83.874 -67.3888C64.1175 -68.3918 40.4721 -63.0108 31.1676 -45.4988C23.2466 -30.7857 28.9417 -13.9871 30.1941 1.91794C32.8856 37.3468 -4.44235 66.0445 1.1873 98.6434C6.98271 133.727 50.3853 155.142 85.1134 137.822Z" fill="#FFB700"/>
</svg>
