<svg width="294" height="241" viewBox="0 0 294 241" fill="none" xmlns="http://www.w3.org/2000/svg">
<path d="M84.9316 234.822C104.133 225.252 119.382 205.767 140.285 204.107C155.393 202.758 168.353 211.382 182.196 216.059C212.653 226.407 250.818 217.005 274.78 193.244C289.285 178.771 298.449 156.897 290.005 140.241C286.589 133.457 280.446 127.949 278.574 120.567C275.996 110.58 281.659 99.8835 285.057 89.6249C292.912 64.9187 287.496 37.3563 270.064 19.8315C252.632 2.30658 223.562 -4.25 198.126 4.59275C178.872 11.3266 162.52 26.1421 142.812 30.9865C123.166 35.9387 103.511 30.722 83.6923 29.6112C63.9357 28.6082 40.2903 33.9892 30.9858 51.5013C23.0648 66.2143 28.7599 83.0129 30.0123 98.9179C32.7039 134.347 -4.6241 163.044 1.00554 195.643C6.80095 230.727 50.2035 252.142 84.9316 234.822Z" fill="#FFB700"/>
</svg>
