<svg width="153" height="188" viewBox="0 0 153 188" fill="none" xmlns="http://www.w3.org/2000/svg">
<path d="M163.206 178.001L167.819 176.261C168.674 179.842 169.53 183.424 170.061 186.989L165.475 187.944C164.931 184.771 164.075 181.19 163.206 178.001ZM155.148 159.646L158.826 156.68C160.682 159.524 162.525 162.761 164.03 166.374L159.73 168.523C158.428 165.313 157.018 162.098 155.148 159.646ZM141.97 145.235L144.388 141.028C147.245 143.134 149.777 145.225 152.283 148.101L149.228 151.884C147.034 149.416 144.502 147.326 141.97 145.235ZM125.073 138.245L125.894 133.173C129.128 133.725 132.349 134.669 135.557 136.006L133.762 141.031C130.879 139.71 127.982 138.781 125.073 138.245ZM105.775 134.939C109.076 133.528 112.349 132.902 115.623 132.276L116.101 137.412C113.166 137.661 110.216 138.303 107.241 139.73L105.775 134.939ZM100.513 146.348L105.099 145.393C105.63 148.959 106.148 152.917 106.03 156.451L101.47 156.62C101.264 153.071 101.044 149.914 100.513 146.348ZM98.5292 176.402C98.8935 175.24 99.5957 173.702 99.9731 172.147C100.364 170.2 100.741 168.645 100.807 166.682L105.327 167.69C104.937 169.637 104.871 171.601 104.155 173.532C103.765 175.479 103.049 177.41 102.672 178.965L98.5292 176.402ZM94.3348 126.906L98.324 124.349C99.8424 127.569 101.348 131.182 102.528 134.78L98.2404 136.536C97.0468 133.331 95.8532 130.126 94.3348 126.906ZM89.0946 147.361C91.46 144.724 93.8255 142.088 96.8272 139.875L99.2803 144.321C96.6165 146.157 94.589 148.417 92.5483 151.07L89.0946 147.361ZM83.5411 180.386L87.2187 177.421C88.7765 179.463 90.9971 181.145 93.2703 181.257L93.7485 186.393L93.0991 186.361C89.4186 186.181 85.5875 184.026 83.5411 180.386ZM82.9544 110.617L86.0089 106.834C88.5278 109.317 90.7088 112.177 92.8898 115.037L89.199 118.395C87.2345 115.546 85.1486 113.084 82.9544 110.617ZM80.6888 168.448C80.781 165.7 81.5227 162.983 82.2644 160.267C82.6287 159.105 82.993 157.943 83.3441 157.173L87.4999 159.344C87.1488 160.113 86.7845 161.275 86.4334 162.044C85.7049 164.368 85.3011 166.708 85.2353 168.671L80.6888 168.448ZM67.3931 99.366L69.1881 94.3414C72.3829 96.0712 75.2529 97.7851 77.7982 99.483L75.3669 104.083C73.1332 102.794 70.5879 101.096 67.3931 99.366ZM49.8511 92.2132L51.3213 87.1728C54.5293 88.5099 57.4256 89.4385 60.6336 90.7757L59.1633 95.8162C55.9554 94.479 52.7474 93.1418 49.8511 92.2132ZM49.0112 -47.5724C50.104 -51.0583 50.8589 -54.1675 50.9775 -57.7012L55.5108 -57.0856C55.0674 -53.5678 54.2862 -49.6734 53.1934 -46.1875L49.0112 -47.5724ZM40.3861 -29.6425L40.7372 -30.4118C42.4531 -33.0806 43.8443 -35.7653 45.2355 -38.45L49.3782 -35.8872C47.987 -33.2025 46.2579 -30.1411 44.5419 -27.4723L43.8661 -26.7189L40.3861 -29.6425ZM31.6727 84.636L33.4677 79.6114C34.7535 80.0678 36.0262 80.9167 37.312 81.3731C38.9094 82.238 40.5199 82.7102 42.1173 83.5751L40.6471 88.6156C39.0365 88.1434 37.4391 87.2785 35.517 86.3976C34.5559 85.9572 32.9454 85.485 31.6727 84.636ZM27.8216 -13.8722C29.8623 -16.525 32.2277 -19.162 34.2684 -21.8148L37.7221 -18.1059C35.6814 -15.4531 33.3159 -12.8161 31.2752 -10.1633L27.8216 -13.8722ZM14.8256 72.9291L17.8933 68.7535C20.1006 70.8281 22.6327 72.9187 25.5027 74.6326L23.0715 79.2326C19.8811 77.372 17.0198 75.3964 14.8256 72.9291ZM15.023 2.41106C16.739 -0.257719 18.7797 -2.91058 21.483 -5.92422L24.9367 -2.21534C22.5581 0.814219 20.5174 3.46708 18.8146 5.74323L15.023 2.41106ZM4.62639 21.4339C6.04394 17.964 7.4483 14.8866 9.19059 11.4326L13.3201 14.388C11.591 17.4495 10.1866 20.5268 9.10697 23.6201L4.62639 21.4339ZM2.86158 54.6448L7.14915 52.8887C8.01801 56.0776 9.54953 58.9056 11.4058 61.7496L7.71501 65.1081C5.8851 61.4788 4.042 58.2422 2.86158 54.6448ZM0.759798 39.7283C0.838837 37.3725 1.25578 34.64 1.67273 31.9076L6.19285 32.9158C5.4248 36.4176 5.31942 39.5587 5.5256 43.1083L0.965999 43.2779C0.680774 42.0841 0.720279 40.9062 0.759798 39.7283Z" fill="#FFB700"/>
</svg>
